{
.appVersion = "3260";
.formatVersion = 3;
DisplayStrings = (
"­"
);
axes = (
{
name = Weight;
tag = wght;
}
);
classes = (
{
automatic = 1;
code = "A Aacute Abreve Acaron Acircumflex Adieresis Agrave Amacron Aogonek Aring Atilde AE B C Cacute Ccaron Ccedilla Cdotaccent D Dcaron Dcroat Eth E Eacute Ecaron Ecircumflex Edieresis Edotaccent Egrave Emacron Eogonek F G Gbreve Gcommaaccent Gdotaccent H Hbar I Iacute Icircumflex Idieresis Idotaccent Igrave Imacron Iogonek J K Kcommaaccent L Lacute Lcaron Lcommaaccent Lslash M N Nacute Ncaron Ncommaaccent Ntilde Eng O Oacute Ocircumflex Odieresis Ograve Ohungarumlaut Omacron Oslash Otilde OE P Thorn Q R Racute Rcaron Rcommaaccent S Sacute Scaron Scedilla Scommaaccent Germandbls T Tbar Tcaron Tcedilla Tcommaaccent U Uacute Ubreve Ucircumflex Udieresis Ugrave Uhungarumlaut Umacron Uogonek Uring V W Wacute Wcircumflex Wdieresis Wgrave X Y Yacute Ycircumflex Ydieresis Ygrave Z Zacute Zcaron Zdotaccent";
name = Uppercase;
}
);
customParameters = (
{
name = "Instance Preview";
value = (
A,
a,
B,
b,
C,
c,
"0",
"1",
"2",
"3"
);
},
{
name = fsType;
value = (
);
},
{
name = "Family Alignment Zones";
value = (
{
pos = 700;
size = 20;
},
{
pos = 470;
size = 10;
},
{
pos = 0;
size = -10;
},
{
pos = -200;
size = -10;
}
);
},
{
name = "Use Typo Metrics";
value = 1;
},
{
name = "EditView Line Height";
value = 1500;
},
{
name = "Use Line Breaks";
value = 1;
},
{
name = "Use Extension Kerning";
value = 1;
},
{
name = "meta Table";
value = (
{
data = "latin, latin-ext";
tag = dlng;
},
{
data = "latin, latin-ext";
tag = slng;
}
);
},
{
name = "Get Hints From Master";
value = "D56600E4-3CB1-46B6-994E-4E22114E2E10";
},
{
name = blueScale;
value = 0.04796;
},
{
name = unicodeRanges;
value = (
0,
1,
2,
3,
5,
6,
29,
31,
32,
33,
35,
36,
37,
38,
45,
47,
62
);
},
{
name = "TrueType Curve Error";
value = 0.3;
},
{
name = TTFMinimumDistance;
value = 0.5;
},
{
name = TTFBlueFuzz;
value = 2;
},
{
name = "Export Mac Name Table Entries";
value = 0;
},
{

glyphs = (
{
glyphname = A;
kernLeft = A;
kernRight = A;
lastChange = "2024-06-28 09:22:26 +0000";
layers = (
{
anchors = (
{
name = ogonek;
pos = (598,0);
},
{
name = top;
pos = (347,700);
}
);
hints = (
{
horizontal = 1;
origin = (0,7);
target = up;
type = BottomGhost;
},
{
horizontal = 1;
origin = (1,3);
target = (1,2);
type = Stem;
},
{
horizontal = 1;
origin = (0,6);
target = (0,1,0,3);
type = Stem;
}
);
layerId = "D56600E4-3CB1-46B6-994E-4E22114E2E10";
shapes = (
{
closed = 1;
nodes = (
(165,0,l),
(357,579,l),
(336,579,l),
(527,0,l),
(691,0,l),
(446,700,l),
(247,700,l),
(1,0,l)
);
},
{
closed = 1;
nodes = (
(580,153,l),
(528,287,l),
(167,287,l),
(116,153,l)
);
}
);
width = 693;
},
{
anchors = (
{
name = ogonek;
pos = (605,0);
},
{
name = top;
pos = (315,700);
}
);
layerId = "FF94DDBB-E62A-4F15-93F9-F4255DC66883";
shapes = (
{
closed = 1;
nodes = (
(48,0,l),
(320,675,l),
(311,675,l),
(581,0,l),
(612,0,l),
(330,700,l),
(299,700,l),
(18,0,l)
);
},
{
closed = 1;
nodes = (
(506,219,l),
(494,247,l),
(136,247,l),
(124,219,l)
);
}
);
width = 630;
}
);
unicode = 65;
},
{
glyphname = AE;
kernRight = E;
lastChange = "2024-06-28 09:22:26 +0000";
layers = (
{
hints = (
{
horizontal = 1;
origin = (0,18);
target = (0,9);
type = Stem;
},
{
horizontal = 1;
origin = (2,3);
target = (2,2);
type = Stem;
},
{
horizontal = 1;
origin = (0,17);
target = (0,15);
type = Stem;
},
{
horizontal = 1;
origin = (1,3);
target = (1,2);
type = Stem;
},
{
origin = (0,3);
target = (0,13);
type = Stem;
}
);
layerId = "D56600E4-3CB1-46B6-994E-4E22114E2E10";
shapes = (
{
closed = 1;
nodes = (
(154,0,l),
(481,607,l),
(448,617,l),
(448,122,ls),
(448,51,o),
(499,0,o),
(570,0,cs),
(909,0,l),
(909,145,l),
(626,145,ls),
(615,145,o),
(606,154,o),
(606,165,cs),
(606,622,l),
(539,555,l),
(909,555,l),
(909,700,l),
(359,700,l),
(-25,0,l)
);
},
{
closed = 1;
nodes = (
(531,143,l),
(531,277,l),
(173,277,l),
(93,143,l)
);
},
{
closed = 1;
nodes = (
(888,283,l),
(888,421,l),
(551,421,l),
(551,283,l)
);
}
);
width = 959;
},
{
layerId = "FF94DDBB-E62A-4F15-93F9-F4255DC66883";
shapes = (
{
closed = 1;
nodes = (
(22,0,l),
(482,675,l),
(475,678,l),
(475,103,ls),
(475,44,o),
(519,0,o),
(578,0,cs),
(872,0,l),
(872,28,l),
(582,28,ls),
(538,28,o),
(504,62,o),
(504,106,cs),
(504,685,l),
(491,672,l),
(872,672,l),
(872,700,l),
(465,700,l),
(-12,0,l)
);
},
{
closed = 1;
nodes = (
(491,228,l),
(491,256,l),
(172,256,l),
(154,228,l)
);
},
{
closed = 1;
nodes = (
(851,336,l),
(851,364,l),
(495,364,l),
(495,336,l)
);
}
);
width = 927;
}
);
unicode = 198;
},
{
glyphname = B;
kernLeft = H;
lastChange = "2024-06-28 09:22:26 +0000";
layers = (
{
hints = (
{
horizontal = 1;
origin = (0,15);
target = (1,18);
type = Stem;
},
{
horizontal = 1;
origin = (1,11);
target = (1,9);
type = Stem;
},
{
horizontal = 1;
origin = (0,14);
target = (1,2);
type = Stem;
},
{
place = (72,150);
type = Stem;
},
{
place = (443,150);
type = Stem;
}
);
layerId = "D56600E4-3CB1-46B6-994E-4E22114E2E10";
shapes = (
{
closed = 1;
nodes = (
(363,0,ls),
(513,0,o),
(607,76,o),
(607,196,cs),
(607,285,o),
(546,369,o),
(424,369,c),
(421,347,l),
(535,347,o),
(578,438,o),
(578,518,cs),
(578,630,o),
(488,700,o),
(344,700,cs),
(70,700,l),
(70,0,l)
);
},
{
closed = 1;
nodes = (
(227,624,l),
(164,569,l),
(324,569,ls),
(381,569,o),
(416,541,o),
(416,496,cs),
(416,448,o),
(382,420,o),
(327,420,cs),
(175,420,l),
(175,295,l),
(349,295,ls),
(410,295,o),
(441,257,o),
(441,211,cs),
(441,161,o),
(401,131,o),
(336,131,cs),
(164,131,l),
(227,76,l)
);
}
);
width = 641;
},
{
layerId = "FF94DDBB-E62A-4F15-93F9-F4255DC66883";
shapes = (
{
closed = 1;
nodes = (
(314,0,ls),
(465,0,o),
(538,76,o),
(538,190,cs),
(538,292,o),
(454,367,o),
(327,367,c),
(327,355,l),
(450,355,o),
(517,430,o),
(517,529,cs),
(517,632,o),
(441,700,o),
(312,700,cs),
(100,700,l),
(100,0,l)
);
},
{
closed = 1;
nodes = (
(129,685,l),
(116,673,l),
(311,673,ls),
(421,673,o),
(488,615,o),
(488,528,cs),
(488,439,o),
(429,374,o),
(320,374,cs),
(116,374,l),
(116,347,l),
(322,347,ls),
(433,347,o),
(508,281,o),
(508,191,cs),
(508,94,o),
(445,27,o),
(312,27,cs),
(116,27,l),
(129,15,l)
);
}
);
width = 598;
}
);
unicode = 66;
},
{
glyphname = C;
kernLeft = O;
kernRight = C;
lastChange = "2024-06-28 09:22:26 +0000";
layers = (
{
anchors = (
{
name = bottom;
pos = (362,0);
},
{
name = top;
pos = (406,700);
}
);
hints = (
{
horizontal = 1;
origin = (0,27);
target = (0,6);
type = Stem;
},
{
horizontal = 1;
origin = (0,20);
target = (0,13);
type = Stem;
},
{
origin = (0,24);
target = (0,10);
type = Stem;
}
);
layerId = "D56600E4-3CB1-46B6-994E-4E22114E2E10";
shapes = (
{
closed = 1;
nodes = (
(497,-15,o),
(582,21,o),
(647,83,c),
(544,203,l),
(505,162,o),
(458,141,o),
(400,141,cs),
(282,141,o),
(199,225,o),
(199,345,cs),
(199,355,ls),
(199,475,o),
(282,559,o),
(400,559,cs),
(456,559,o),
(502,539,o),
(539,502,c),
(642,622,l),
(578,682,o),
(498,715,o),
(400,715,cs),
(197,715,o),
(35,566,o),
(35,355,cs),
(35,345,ls),
(35,134,o),
(197,-15,o),
(400,-15,cs)
);
}
);
width = 658;
},
{
anchors = (
{
name = bottom;
pos = (387,0);
},
{
name = top;
pos = (418,700);
}
);
layerId = "FF94DDBB-E62A-4F15-93F9-F4255DC66883";
shapes = (
{
closed = 1;
nodes = (
(485,-15,o),
(557,7,o),
(611,47,c),
(593,70,l),
(544,34,o),
(478,14,o),
(407,14,cs),
(228,14,o),
(87,148,o),
(87,339,cs),
(87,361,ls),
(87,552,o),
(228,686,o),
(407,686,cs),
(477,686,o),
(544,666,o),
(593,631,c),
(610,654,l),
(557,693,o),
(485,715,o),
(407,715,cs),
(212,715,o),
(57,569,o),
(57,361,cs),
(57,339,ls),
(57,131,o),
(212,-15,o),
(407,-15,cs)
);
}
);
width = 642;
}
);
unicode = 67;
},
{
glyphname = D;
kernLeft = H;
kernRight = D;
lastChange = "2024-06-28 09:22:26 +0000";
layers = (
{
anchors = (
{
name = center;
pos = (184,357);
},
{
name = top;
pos = (356,700);
}
);
hints = (
{
horizontal = 1;
origin = (0,9);
target = (1,10);
type = Stem;
},
{
horizontal = 1;
origin = (0,8);
target = (1,2);
type = Stem;
},
{
origin = (0,9);
target = (1,11);
type = Stem;
},
{
origin = (1,6);
target = (0,4);
type = Stem;
}
);
layerId = "D56600E4-3CB1-46B6-994E-4E22114E2E10";
shapes = (
{
closed = 1;
nodes = (
(338,0,ls),
(536,0,o),
(690,142,o),
(690,344,cs),
(690,354,ls),
(690,558,o),
(539,700,o),
(338,700,cs),
(70,700,l),
(70,0,l)
);
},
{
closed = 1;
nodes = (
(230,618,l),
(164,551,l),
(325,551,ls),
(446,551,o),
(526,473,o),
(526,354,cs),
(526,344,ls),
(526,227,o),
(443,149,o),
(325,149,cs),
(164,149,l),
(230,82,l)
);
}
);
width = 726;
},
{
anchors = (
{
name = center;
pos = (156,360);
},
{
name = top;
pos = (338,700);
}
);
layerId = "FF94DDBB-E62A-4F15-93F9-F4255DC66883";
shapes = (
{
closed = 1;
nodes = (
(312,0,ls),
(502,0,o),
(646,147,o),
(646,355,cs),
(646,368,ls),
(646,563,o),
(503,700,o),
(312,700,cs),
(100,700,l),
(100,0,l)
);
},
{
closed = 1;
nodes = (
(129,684,l),
(116,671,l),
(311,671,ls),
(485,671,o),
(617,547,o),
(617,368,cs),
(617,355,ls),
(617,164,o),
(485,29,o),
(311,29,cs),
(116,29,l),
(129,16,l)
);
}
);
width = 705;
}
);
unicode = 68;
},
{
glyphname = E;
kernLeft = E;
kernRight = E;
lastChange = "2024-06-28 09:22:26 +0000";
layers = (
{
anchors = (
{
name = ogonek;
pos = (545,0);
},
{
name = top;
pos = (327,700);
}
);
hints = (
{
horizontal = 1;
origin = (0,19);
target = (0,2);
type = Stem;
},
{
horizontal = 1;
origin = (1,3);
target = (1,2);
type = Stem;
},
{
horizontal = 1;
origin = (0,12);
target = (0,10);
type = Stem;
},
{
origin = (0,16);
target = (0,6);
type = Stem;
}
);
layerId = "D56600E4-3CB1-46B6-994E-4E22114E2E10";
shapes = (
{
closed = 1;
nodes = (
(545,0,l),
(545,145,l),
(242,145,ls),
(231,145,o),
(222,154,o),
(222,165,cs),
(222,535,ls),
(222,546,o),
(231,555,o),
(242,555,cs),
(545,555,l),
(545,700,l),
(186,700,ls),
(115,700,o),
(64,649,o),
(64,578,cs),
(64,122,ls),
(64,51,o),
(115,0,o),
(186,0,cs)
);
},
{
closed = 1;
nodes = (
(524,283,l),
(524,421,l),
(140,421,l),
(140,283,l)
);
}
);
width = 595;
},
{
anchors = (
{
name = ogonek;
pos = (492,0);
},
{
name = top;
pos = (308,700);
}
);
layerId = "FF94DDBB-E62A-4F15-93F9-F4255DC66883";
shapes = (
{
closed = 1;
nodes = (
(492,0,l),
(492,28,l),
(201,28,ls),
(156,28,o),
(123,62,o),
(123,106,cs),
(123,594,ls),
(123,638,o),
(156,672,o),
(201,672,cs),
(492,672,l),
(492,700,l),
(197,700,ls),
(137,700,o),
(94,656,o),
(94,597,cs),
(94,103,ls),
(94,44,o),
(137,0,o),
(197,0,cs)
);
},
{
closed = 1;
nodes = (
(471,336,l),
(471,364,l),
(112,364,l),
(112,336,l)
);
}
);
width = 547;
}
);
unicode = 69;
},
{
glyphname = F;
lastChange = "2024-06-28 09:22:26 +0000";
layers = (
{
hints = (
{
horizontal = 1;
origin = (0,11);
target = up;
type = BottomGhost;
},
{
horizontal = 1;
origin = (1,3);
target = (1,2);
type = Stem;
},
{
horizontal = 1;
origin = (0,7);
target = (0,5);
type = Stem;
},
{
origin = (0,11);
target = (0,1);
type = Stem;
}
);
layerId = "D56600E4-3CB1-46B6-994E-4E22114E2E10";
shapes = (
{
closed = 1;
nodes = (
(228,0,l),
(228,535,ls),
(228,546,o),
(237,555,o),
(248,555,cs),
(540,555,l),
(540,700,l),
(190,700,ls),
(119,700,o),
(68,649,o),
(68,578,cs),
(68,0,l)
);
},
{
closed = 1;
nodes = (
(515,251,l),
(515,394,l),
(150,394,l),
(150,251,l)
);
}
);
width = 570;
},
{
layerId = "FF94DDBB-E62A-4F15-93F9-F4255DC66883";
shapes = (
{
closed = 1;
nodes = (
(126,0,l),
(126,594,ls),
(126,638,o),
(160,672,o),
(204,672,cs),
(493,672,l),
(493,700,l),
(200,700,ls),
(140,700,o),
(97,656,o),
(97,597,cs),
(97,0,l)
);
},
{
closed = 1;
nodes = (
(473,320,l),
(473,348,l),
(113,348,l),
(113,320,l)
);
}
);
width = 529;
}
);
unicode = 70;
},
{
glyphname = G;
kernLeft = O;
kernRight = G;
lastChange = "2024-06-28 09:22:26 +0000";
layers = (
{
anchors = (
{
name = bottom;
pos = (377,0);
},
{
name = top;
pos = (395,700);
}
);
hints = (
{
horizontal = 1;
origin = (0,30);
target = (0,9);
type = Stem;
},
{
horizontal = 1;
origin = (0,5);
target = (0,3);
type = Stem;
},
{
horizontal = 1;
origin = (0,23);
target = (0,16);
type = Stem;
},
{
origin = (0,27);
target = (0,13);
type = Stem;
},
{
place = (562,160);
type = Stem;
}
);
layerId = "D56600E4-3CB1-46B6-994E-4E22114E2E10";
shapes = (
{
closed = 1;
nodes = (
(618,-15,o),
(750,146,o),
(718,396,c),
(412,396,l),
(412,266,l),
(628,266,l),
(559,308,l),
(579,208,o),
(506,135,o),
(400,135,cs),
(283,135,o),
(199,222,o),
(199,346,cs),
(199,353,ls),
(199,476,o),
(283,563,o),
(404,563,cs),
(463,563,o),
(514,542,o),
(555,493,c),
(667,604,l),
(600,673,o),
(513,715,o),
(401,715,cs),
(186,715,o),
(35,566,o),
(35,353,cs),
(35,346,ls),
(35,134,o),
(184,-15,o),
(396,-15,cs)
);
}
);
width = 748;
},
{
anchors = (
{
name = bottom;
pos = (393,0);
},
{
name = top;
pos = (393,700);
}
);
layerId = "FF94DDBB-E62A-4F15-93F9-F4255DC66883";
shapes = (
{
closed = 1;
nodes = (
(593,-15,o),
(710,151,o),
(693,348,c),
(454,348,l),
(454,321,l),
(677,321,l),
(664,335,l),
(675,164,o),
(569,14,o),
(397,14,cs),
(216,14,o),
(88,148,o),
(88,339,cs),
(88,360,ls),
(88,552,o),
(219,686,o),
(404,686,cs),
(467,686,o),
(529,668,o),
(579,630,c),
(597,653,l),
(542,694,o),
(474,715,o),
(405,715,cs),
(201,715,o),
(58,569,o),
(58,360,cs),
(58,339,ls),
(58,131,o),
(198,-15,o),
(397,-15,cs)
);
}
);
width = 732;
}
);
unicode = 71;
},
{
glyphname = H;
kernLeft = H;
kernRight = H;
lastChange = "2024-06-28 09:22:26 +0000";
layers = (
{
hints = (
{
horizontal = 1;
origin = (1,3);
target = up;
type = BottomGhost;
},
{
horizontal = 1;
origin = (2,3);
target = (2,2);
type = Stem;
},
{
horizontal = 1;
origin = (1,2);
target = down;
type = TopGhost;
},
{
origin = (1,3);
target = (1,1);
type = Stem;
},
{
origin = (0,3);
target = (0,1);
type = Stem;
}
);
layerId = "D56600E4-3CB1-46B6-994E-4E22114E2E10";
shapes = (
{
closed = 1;
nodes = (
(672,0,l),
(672,700,l),
(511,700,l),
(511,0,l)
);
},
{
closed = 1;
nodes = (
(231,0,l),
(231,700,l),
(70,700,l),
(70,0,l)
);
},
{
closed = 1;
nodes = (
(573,289,l),
(573,434,l),
(152,434,l),
(152,289,l)
);
}
);
width = 742;
},
{
layerId = "FF94DDBB-E62A-4F15-93F9-F4255DC66883";
shapes = (
{
closed = 1;
nodes = (
(615,0,l),
(615,700,l),
(586,700,l),
(586,0,l)
);
},
{
closed = 1;
nodes = (
(129,0,l),
(129,700,l),
(100,700,l),
(100,0,l)
);
},
{
closed = 1;
nodes = (
(596,346,l),
(596,374,l),
(119,374,l),
(119,346,l)
);
}
);
width = 715;
}
);
unicode = 72;
},
{
glyphname = Hbar;
kernLeft = H;
kernRight = H;
lastChange = "2024-06-28 09:22:26 +0000";
layers = (
{
hints = (
{
origin = (2,3);
target = (2,1);
type = Stem;
},
{
origin = (1,3);
target = (1,1);
type = Stem;
},
{
horizontal = 1;
origin = (3,3);
target = (3,2);
type = Stem;
},
{
horizontal = 1;
origin = (0,3);
target = (0,2);
type = Stem;
}
);
layerId = "D56600E4-3CB1-46B6-994E-4E22114E2E10";
shapes = (
{
closed = 1;
nodes = (
(770,470,l),
(770,589,l),
(28,589,l),
(28,470,l)
);
},
{
closed = 1;
nodes = (
(700,0,l),
(700,700,l),
(539,700,l),
(539,0,l)
);
},
{
closed = 1;
nodes = (
(259,0,l),
(259,700,l),
(98,700,l),
(98,0,l)
);
},
{
closed = 1;
nodes = (
(601,229,l),
(601,374,l),
(180,374,l),
(180,229,l)
);
}
);
width = 798;
},
{
layerId = "FF94DDBB-E62A-4F15-93F9-F4255DC66883";
shapes = (
{
closed = 1;
nodes = (
(706,512,l),
(706,536,l),
(34,536,l),
(34,512,l)
);
},
{
closed = 1;
nodes = (
(627,0,l),
(627,700,l),
(598,700,l),
(598,0,l)
);
},
{
closed = 1;
nodes = (
(141,0,l),
(141,700,l),
(112,700,l),
(112,0,l)
);
},
{
closed = 1;
nodes = (
(608,314,l),
(608,342,l),
(131,342,l),
(131,314,l)
);
}
);
width = 739;
}
);
unicode = 294;
},
{
glyphname = I;
kernLeft = I;
kernRight = I;
lastChange = "2024-06-28 09:22:26 +0000";
layers = (
{
anchors = (
{
name = ogonek;
pos = (317,0);
},
{
name = top;
pos = (237,700);
}
);
hints = (
{
horizontal = 1;
origin = (2,3);
target = (2,2);
type = Stem;
},
{
horizontal = 1;
origin = (1,2);
target = (1,3);
type = Stem;
},
{
origin = (0,3);
target = (0,1);
type = Stem;
}
);
layerId = "D56600E4-3CB1-46B6-994E-4E22114E2E10";
shapes = (
{
closed = 1;
nodes = (
(317,50,l),
(317,650,l),
(156,650,l),
(156,50,l)
);
},
{
closed = 1;
nodes = (
(428,555,l),
(428,700,l),
(45,700,l),
(45,555,l)
);
},
{
closed = 1;
nodes = (
(428,0,l),
(428,145,l),
(45,145,l),
(45,0,l)
);
}
);
width = 473;
},
{
anchors = (
{
name = ogonek;
pos = (197,0);
},
{
name = top;
pos = (183,700);
}
);
layerId = "FF94DDBB-E62A-4F15-93F9-F4255DC66883";
shapes = (
{
closed = 1;
nodes = (
(197,10,l),
(197,690,l),
(167,690,l),
(167,10,l)
);
},
{
closed = 1;
nodes = (
(331,672,l),
(331,700,l),
(35,700,l),
(35,672,l)
);
},
{
closed = 1;
nodes = (
(331,0,l),
(331,28,l),
(35,28,l),
(35,0,l)
);
}
);
width = 366;
}
);
unicode = 73;
},
{
glyphname = J;
lastChange = "2024-06-28 09:22:26 +0000";
layers = (
{
anchors = (
{
name = top;
pos = (219,700);
}
);
hints = (
{
horizontal = 1;
origin = (0,14);
target = (0,13);
type = Stem;
},
{
horizontal = 1;
origin = (0,5);
target = (0,7);
type = Stem;
},
{
origin = (0,4);
target = (0,9);
type = Stem;
}
);
layerId = "D56600E4-3CB1-46B6-994E-4E22114E2E10";
shapes = (
{
closed = 1;
nodes = (
(144,0,ls),
(296,0,o),
(371,70,o),
(371,212,cs),
(371,700,l),
(59,700,l),
(59,555,l),
(277,555,l),
(210,622,l),
(210,196,ls),
(210,167,o),
(188,145,o),
(159,145,cs),
(29,145,l),
(29,0,l)
);
}
);
width = 437;
},
{
anchors = (
{
name = top;
pos = (195,700);
}
);
layerId = "FF94DDBB-E62A-4F15-93F9-F4255DC66883";
shapes = (
{
closed = 1;
nodes = (
(191,0,ls),
(256,0,o),
(301,45,o),
(301,109,cs),
(301,700,l),
(57,700,l),
(57,672,l),
(284,672,l),
(272,685,l),
(272,108,ls),
(272,62,o),
(237,28,o),
(192,28,cs),
(20,28,l),
(20,0,l)
);
}
);
width = 398;
}
);
unicode = 74;
},
{
glyphname = K;
kernLeft = H;
kernRight = K;
lastChange = "2024-06-28 09:22:26 +0000";
layers = (
{
anchors = (
{
name = bottom;
pos = (356,0);
},
{
name = top;
pos = (354,700);
}
);
hints = (
{
horizontal = 1;
origin = (2,3);
target = up;
type = BottomGhost;
},
{
horizontal = 1;
origin = (1,2);
target = down;
type = TopGhost;
},
{
origin = (1,3);
target = (1,1);
type = Stem;
}
);
layerId = "D56600E4-3CB1-46B6-994E-4E22114E2E10";
shapes = (
{
closed = 1;
nodes = (
(643,700,l),
(458,700,l),
(149,303,l),
(166,87,l)
);
},
{
closed = 1;
nodes = (
(230,0,l),
(230,700,l),
(70,700,l),
(70,0,l)
);
},
{
closed = 1;
nodes = (
(653,0,l),
(393,479,l),
(279,361,l),
(462,0,l)
);
}
);
width = 651;
},
{
anchors = (
{
name = bottom;
pos = (309,0);
},
{
name = top;
pos = (309,700);
}
);
layerId = "FF94DDBB-E62A-4F15-93F9-F4255DC66883";
shapes = (
{
closed = 1;
nodes = (
(549,700,l),
(513,700,l),
(115,224,l),
(117,184,l)
);
},
{
closed = 1;
nodes = (
(129,0,l),
(129,700,l),
(100,700,l),
(100,0,l)
);
},
{
closed = 1;
nodes = (
(576,0,l),
(282,402,l),
(261,381,l),
(539,0,l)
);
}
);
width = 584;
}
);
unicode = 75;
},
{
glyphname = L;
kernLeft = L;
kernRight = L;
lastChange = "2024-06-28 09:22:26 +0000";
layers = (
{
anchors = (
{
name = bottom;
pos = (302,0);
},
{
name = center;
pos = (175,360);
},
{
name = top;
pos = (150,700);
},
{
name = topright;
pos = (319,700);
}
);
hints = (
{
horizontal = 1;
origin = (0,11);
target = (0,2);
type = Stem;
},
{
horizontal = 1;
origin = (0,7);
target = down;
type = TopGhost;
},
{
origin = (0,6);
target = (0,8);
type = Stem;
}
);
layerId = "D56600E4-3CB1-46B6-994E-4E22114E2E10";
shapes = (
{
closed = 1;
nodes = (
(532,0,l),
(532,150,l),
(248,150,ls),
(237,150,o),
(228,159,o),
(228,170,cs),
(228,700,l),
(68,700,l),
(68,122,ls),
(68,51,o),
(119,0,o),
(190,0,cs)
);
}
);
width = 545;
},
{
anchors = (
{
name = bottom;
pos = (304,0);
},
{
name = center;
pos = (140,351);
},
{
name = top;
pos = (112,700);
},
{
name = topright;
pos = (312,700);
}
);
layerId = "FF94DDBB-E62A-4F15-93F9-F4255DC66883";
shapes = (
{
closed = 1;
nodes = (
(480,0,l),
(480,29,l),
(204,29,ls),
(160,29,o),
(126,62,o),
(126,107,cs),
(126,700,l),
(97,700,l),
(97,103,ls),
(97,44,o),
(140,0,o),
(200,0,cs)
);
}
);
width = 494;
}
);
unicode = 76;
},
{
glyphname = M;
kernLeft = H;
kernRight = H;
lastChange = "2024-06-28 09:22:26 +0000";
layers = (
{
hints = (
{
horizontal = 1;
origin = (0,15);
target = up;
type = BottomGhost;
},
{
horizontal = 1;
origin = (0,14);
target = down;
type = TopGhost;
},
{
origin = (0,15);
target = (0,1);
type = Stem;
},
{
origin = (0,7);
target = (0,9);
type = Stem;
}
);
layerId = "D56600E4-3CB1-46B6-994E-4E22114E2E10";
shapes = (
{
closed = 1;
nodes = (
(226,0,l),
(226,627,l),
(168,627,l),
(368,130,l),
(485,130,l),
(685,627,l),
(627,627,l),
(627,0,l),
(783,0,l),
(783,700,l),
(568,700,l),
(389,269,l),
(464,269,l),
(285,700,l),
(70,700,l),
(70,0,l)
);
}
);
width = 853;
},
{
layerId = "FF94DDBB-E62A-4F15-93F9-F4255DC66883";
shapes = (
{
closed = 1;
nodes = (
(129,0,l),
(129,668,l),
(123,667,l),
(370,195,l),
(400,195,l),
(647,667,l),
(641,668,l),
(641,0,l),
(670,0,l),
(670,700,l),
(631,700,l),
(379,219,l),
(391,219,l),
(138,700,l),
(100,700,l),
(100,0,l)
);
}
);
width = 770;
}
);
unicode = 77;
},
{
glyphname = N;
kernLeft = H;
kernRight = H;
lastChange = "2024-06-28 09:22:26 +0000";
layers = (
{
anchors = (
{
name = bottom;
pos = (365,0);
},
{
name = top;
pos = (365,700);
}
);
hints = (
{
horizontal = 1;
origin = (0,11);
target = up;
type = BottomGhost;
},
{
horizontal = 1;
origin = (0,10);
target = down;
type = TopGhost;
},
{
origin = (0,11);
target = (0,1);
type = Stem;
},
{
origin = (0,5);
target = (0,7);
type = Stem;
}
);
layerId = "D56600E4-3CB1-46B6-994E-4E22114E2E10";
shapes = (
{
closed = 1;
nodes = (
(230,0,l),
(230,521,l),
(167,510,l),
(521,0,l),
(660,0,l),
(660,700,l),
(500,700,l),
(500,172,l),
(569,183,l),
(213,700,l),
(70,700,l),
(70,0,l)
);
}
);
width = 730;
},
{
anchors = (
{
name = bottom;
pos = (339,0);
},
{
name = top;
pos = (339,700);
}
);
layerId = "FF94DDBB-E62A-4F15-93F9-F4255DC66883";
shapes = (
{
closed = 1;
nodes = (
(129,0,l),
(129,669,l),
(121,667,l),
(542,0,l),
(576,0,l),
(576,700,l),
(547,700,l),
(547,30,l),
(554,33,l),
(132,700,l),
(100,700,l),
(100,0,l)
);
}
);
width = 676;
}
);
unicode = 78;
},
{
glyphname = Eng;
kernLeft = H;
kernRight = H;
lastChange = "2024-06-28 09:22:26 +0000";
layers = (
{
hints = (
{
horizontal = 1;
origin = (1,11);
target = (1,10);
type = Stem;
},
{
horizontal = 1;
origin = (0,4);
target = up;
type = BottomGhost;
},
{
horizontal = 1;
origin = (1,5);
target = down;
type = TopGhost;
},
{
origin = (0,3);
target = (0,5);
type = Stem;
},
{
origin = (1,6);
target = (1,4);
type = Stem;
}
);
layerId = "D56600E4-3CB1-46B6-994E-4E22114E2E10";
shapes = (
{
closed = 1;
nodes = (
(544,219,l),
(213,700,l),
(70,700,l),
(70,0,l),
(230,0,l),
(230,508,l),
(177,497,l),
(544,-34,l)
);
},
{
closed = 1;
nodes = (
(433,-200,ls),
(585,-200,o),
(660,-130,o),
(660,12,cs),
(660,700,l),
(500,700,l),
(500,-4,ls),
(500,-33,o),
(477,-55,o),
(448,-55,cs),
(348,-55,l),
(348,-200,l)
);
}
);
width = 730;
},
{
layerId = "FF94DDBB-E62A-4F15-93F9-F4255DC66883";
shapes = (
{
closed = 1;
nodes = (
(558,25,l),
(132,700,l),
(100,700,l),
(100,0,l),
(129,0,l),
(129,669,l),
(122,666,l),
(558,-26,l)
);
},
{
closed = 1;
nodes = (
(466,-200,ls),
(531,-200,o),
(576,-155,o),
(576,-91,cs),
(576,700,l),
(547,700,l),
(547,-92,ls),
(547,-138,o),
(512,-172,o),
(467,-172,cs),
(390,-172,l),
(390,-200,l)
);
}
);
width = 676;
}
);
unicode = 330;
},
{
glyphname = O;
kernLeft = O;
kernRight = O;
lastChange = "2024-06-28 09:22:26 +0000";
layers = (
{
anchors = (
{
name = center;
pos = (387,350);
},
{
name = tail.Q;
pos = (387,0);
},
{
name = top;
pos = (387,700);
}
);
hints = (
{
horizontal = 1;
origin = (0,13);
target = (1,13);
type = Stem;
},
{
horizontal = 1;
origin = (0,6);
target = (1,6);
type = Stem;
},
{
origin = (0,10);
target = (1,3);
type = Stem;
},
{
origin = (1,10);
target = (0,3);
type = Stem;
}
);
layerId = "D56600E4-3CB1-46B6-994E-4E22114E2E10";
shapes = (
{
closed = 1;
nodes = (
(587,-15,o),
(737,130,o),
(737,346,cs),
(737,353,ls),
(737,570,o),
(587,715,o),
(387,715,cs),
(187,715,o),
(36,570,o),
(36,353,cs),
(36,346,ls),
(36,130,o),
(187,-15,o),
(387,-15,cs)
);
},
{
closed = 1;
nodes = (
(278,141,o),
(200,216,o),
(200,346,cs),
(200,353,ls),
(200,483,o),
(278,559,o),
(387,559,cs),
(495,559,o),
(573,483,o),
(573,353,cs),
(573,346,ls),
(573,216,o),
(495,141,o),
(387,141,cs)
);
}
);
width = 773;
},
{
anchors = (
{
name = center;
pos = (387,350);
},
{
name = tail.Q;
pos = (387,0);
},
{
name = top;
pos = (387,700);
}
);
layerId = "FF94DDBB-E62A-4F15-93F9-F4255DC66883";
shapes = (
{
closed = 1;
nodes = (
(580,-10,o),
(716,138,o),
(716,350,cs),
(716,360,ls),
(716,566,o),
(580,710,o),
(387,710,cs),
(194,710,o),
(58,566,o),
(58,360,cs),
(58,350,ls),
(58,138,o),
(194,-10,o),
(387,-10,cs)
);
},
{
closed = 1;
nodes = (
(212,19,o),
(88,154,o),
(88,350,cs),
(88,360,ls),
(88,549,o),
(212,681,o),
(387,681,cs),
(562,681,o),
(686,549,o),
(686,360,cs),
(686,350,ls),
(686,154,o),
(562,19,o),
(387,19,cs)
);
}
);
width = 774;
}
);
unicode = 79;
},
{
glyphname = OE;
kernRight = E;
lastChange = "2024-06-28 09:22:26 +0000";
layers = (
{
hints = (
{
horizontal = 1;
origin = (0,17);
target = (0,2);
type = Stem;
},
{
horizontal = 1;
origin = (2,3);
target = (2,2);
type = Stem;
},
{
horizontal = 1;
origin = (0,11);
target = (0,9);
type = Stem;
},
{
origin = (0,14);
target = (0,5);
type = Stem;
},
{
origin = (1,3);
target = (1,1);
type = Stem;
}
);
layerId = "D56600E4-3CB1-46B6-994E-4E22114E2E10";
shapes = (
{
closed = 1;
nodes = (
(962,0,l),
(962,145,l),
(409,145,ls),
(271,145,o),
(200,231,o),
(200,353,cs),
(200,472,o),
(271,555,o),
(409,555,cs),
(962,555,l),
(962,700,l),
(397,700,ls),
(172,700,o),
(36,566,o),
(36,353,cs),
(36,136,o),
(172,0,o),
(397,0,cs)
);
},
{
closed = 1;
nodes = (
(651,57,l),
(651,634,l),
(491,634,l),
(491,57,l)
);
},
{
closed = 1;
nodes = (
(941,283,l),
(941,421,l),
(569,421,l),
(569,283,l)
);
}
);
width = 1012;
},
{
layerId = "FF94DDBB-E62A-4F15-93F9-F4255DC66883";
shapes = (
{
closed = 1;
nodes = (
(934,0,l),
(934,28,l),
(446,28,ls),
(211,28,o),
(87,157,o),
(87,356,cs),
(87,548,o),
(211,672,o),
(446,672,cs),
(934,672,l),
(934,700,l),
(446,700,ls),
(193,700,o),
(57,565,o),
(57,356,cs),
(57,139,o),
(193,0,o),
(446,0,cs)
);
},
{
closed = 1;
nodes = (
(575,13,l),
(575,686,l),
(546,686,l),
(546,13,l)
);
},
{
closed = 1;
nodes = (
(913,336,l),
(913,364,l),
(561,364,l),
(561,336,l)
);
}
);
width = 990;
}
);
unicode = 338;
},
{
glyphname = P;
kernLeft = H;
lastChange = "2024-06-28 09:22:26 +0000";
layers = (
{
hints = (
{
horizontal = 1;
origin = (0,20);
target = up;
type = BottomGhost;
},
{
horizontal = 1;
origin = (0,12);
target = (0,10);
type = Stem;
},
{
horizontal = 1;
origin = (0,19);
target = (0,3);
type = Stem;
},
{
origin = (0,20);
target = (0,1);
type = Stem;
},
{
origin = (0,6);
target = (0,15);
type = Stem;
}
);
layerId = "D56600E4-3CB1-46B6-994E-4E22114E2E10";
shapes = (
{
closed = 1;
nodes = (
(230,0,l),
(230,626,l),
(164,565,l),
(331,565,ls),
(389,565,o),
(423,524,o),
(423,471,cs),
(423,418,o),
(389,376,o),
(331,376,cs),
(144,376,l),
(144,244,l),
(323,244,ls),
(480,244,o),
(581,329,o),
(581,471,cs),
(581,614,o),
(480,700,o),
(323,700,cs),
(70,700,l),
(70,0,l)
);
}
);
width = 601;
},
{
layerId = "FF94DDBB-E62A-4F15-93F9-F4255DC66883";
shapes = (
{
closed = 1;
nodes = (
(129,0,l),
(129,685,l),
(116,672,l),
(291,672,ls),
(399,672,o),
(477,610,o),
(477,503,cs),
(477,396,o),
(399,333,o),
(291,333,cs),
(114,333,l),
(114,306,l),
(290,306,ls),
(417,306,o),
(506,378,o),
(506,503,cs),
(506,628,o),
(417,700,o),
(290,700,cs),
(100,700,l),
(100,0,l)
);
}
);
width = 543;
}
);
unicode = 80;
},
{
glyphname = Thorn;
kernLeft = H;
lastChange = "2024-06-28 09:22:26 +0000";
layers = (
{
hints = (
{
horizontal = 1;
origin = (1,3);
target = up;
type = BottomGhost;
},
{
horizontal = 1;
origin = (0,17);
target = (0,16);
type = Stem;
},
{
horizontal = 1;
origin = (0,9);
target = (0,7);
type = Stem;
},
{
horizontal = 1;
origin = (1,2);
target = down;
type = TopGhost;
},
{
origin = (1,3);
target = (1,1);
type = Stem;
},
{
origin = (0,12);
target = (0,3);
type = Stem;
}
);
layerId = "D56600E4-3CB1-46B6-994E-4E22114E2E10";
shapes = (
{
closed = 1;
nodes = (
(323,122,ls),
(480,122,o),
(581,207,o),
(581,349,cs),
(581,492,o),
(480,578,o),
(323,578,cs),
(144,578,l),
(144,443,l),
(331,443,ls),
(389,443,o),
(423,402,o),
(423,349,cs),
(423,296,o),
(389,254,o),
(331,254,cs),
(144,254,l),
(144,122,l)
);
},
{
closed = 1;
nodes = (
(230,0,l),
(230,700,l),
(70,700,l),
(70,0,l)
);
}
);
width = 611;
},
{
layerId = "FF94DDBB-E62A-4F15-93F9-F4255DC66883";
shapes = (
{
closed = 1;
nodes = (
(290,153,ls),
(417,153,o),
(506,225,o),
(506,350,cs),
(506,475,o),
(417,547,o),
(290,547,cs),
(114,547,l),
(114,520,l),
(291,520,ls),
(399,520,o),
(477,457,o),
(477,350,cs),
(477,243,o),
(399,180,o),
(291,180,cs),
(114,180,l),
(114,153,l)
);
},
{
closed = 1;
nodes = (
(129,0,l),
(129,700,l),
(100,700,l),
(100,0,l)
);
}
);
width = 557;
}
);
unicode = 222;
},
{
glyphname = R;
kernLeft = H;
kernRight = R;
lastChange = "2024-06-28 09:22:26 +0000";
layers = (
{
anchors = (
{
name = bottom;
pos = (327,0);
},
{
name = top;
pos = (314,700);
}
);
hints = (
{
horizontal = 1;
origin = (1,3);
target = up;
type = BottomGhost;
},
{
horizontal = 1;
origin = (0,12);
target = (0,10);
type = Stem;
},
{
horizontal = 1;
origin = (0,19);
target = (0,3);
type = Stem;
},
{
origin = (0,20);
target = (0,1);
type = Stem;
},
{
origin = (0,6);
target = (0,15);
type = Stem;
}
);
layerId = "D56600E4-3CB1-46B6-994E-4E22114E2E10";
shapes = (
{
closed = 1;
nodes = (
(230,0,l),
(230,626,l),
(164,566,l),
(338,566,ls),
(396,566,o),
(436,524,o),
(436,467,cs),
(436,410,o),
(396,370,o),
(338,370,cs),
(143,370,l),
(143,237,l),
(346,237,ls),
(499,237,o),
(600,319,o),
(600,470,cs),
(600,618,o),
(499,700,o),
(346,700,cs),
(70,700,l),
(70,0,l)
);
},
{
closed = 1;
nodes = (
(621,0,l),
(458,306,l),
(286,306,l),
(439,0,l)
);
}
);
width = 646;
},
{
anchors = (
{
name = bottom;
pos = (289,0);
},
{
name = top;
pos = (266,700);
}
);
layerId = "FF94DDBB-E62A-4F15-93F9-F4255DC66883";
shapes = (
{
closed = 1;
nodes = (
(129,0,l),
(129,685,l),
(116,672,l),
(287,672,ls),
(402,672,o),
(478,617,o),
(478,506,cs),
(478,386,o),
(402,342,o),
(287,342,cs),
(114,342,l),
(114,314,l),
(287,314,ls),
(420,314,o),
(508,368,o),
(508,506,cs),
(508,635,o),
(420,700,o),
(287,700,cs),
(100,700,l),
(100,0,l)
);
},
{
closed = 1;
nodes = (
(529,0,l),
(297,327,l),
(260,327,l),
(492,0,l)
);
}
);
width = 571;
}
);
unicode = 82;
},
{
glyphname = S;
kernLeft = S;
kernRight = S;
lastChange = "2024-06-28 09:22:26 +0000";
layers = (
{
anchors = (
{
name = bottom;
pos = (284,0);
},
{
name = top;
pos = (298,700);
}
);
hints = (
{
horizontal = 1;
origin = (0,31);
target = (0,24);
type = Stem;
},
{
horizontal = 1;
origin = (0,15);
target = (0,8);
type = Stem;
},
{
origin = (0,18);
target = (0,5);
type = Stem;
},
{
origin = (0,21);
target = (0,2);
type = Stem;
}
);
layerId = "D56600E4-3CB1-46B6-994E-4E22114E2E10";
shapes = (
{
closed = 1;
nodes = (
(431,-15,o),
(540,77,o),
(540,215,cs),
(540,467,o),
(200,382,o),
(200,509,cs),
(200,553,o),
(238,581,o),
(295,581,cs),
(344,581,o),
(381,560,o),
(423,517,c),
(525,618,l),
(474,676,o),
(392,715,o),
(295,715,cs),
(142,715,o),
(41,630,o),
(41,494,cs),
(41,250,o),
(376,326,o),
(376,191,cs),
(376,149,o),
(340,119,o),
(277,119,cs),
(225,119,o),
(181,139,o),
(123,195,c),
(24,97,l),
(82,30,o),
(160,-15,o),
(271,-15,cs)
);
}
);
width = 570;
},
{
anchors = (
{
name = bottom;
pos = (253,0);
},
{
name = top;
pos = (288,700);
}
);
layerId = "FF94DDBB-E62A-4F15-93F9-F4255DC66883";
shapes = (
{
closed = 1;
nodes = (
(384,-10,o),
(475,64,o),
(475,187,cs),
(475,442,o),
(91,307,o),
(91,523,cs),
(91,618,o),
(165,683,o),
(279,683,cs),
(343,683,o),
(393,663,o),
(430,625,c),
(449,646,l),
(411,687,o),
(353,710,o),
(280,710,cs),
(148,710,o),
(62,635,o),
(62,520,cs),
(62,280,o),
(445,410,o),
(445,184,cs),
(445,84,o),
(371,17,o),
(254,17,cs),
(176,17,o),
(110,47,o),
(68,100,c),
(49,79,l),
(93,23,o),
(165,-10,o),
(253,-10,cs)
);
}
);
width = 522;
}
);
unicode = 83;
},
{
glyphname = Germandbls;
lastChange = "2024-06-28 09:22:26 +0000";
layers = (
{
hints = (
{
horizontal = 1;
origin = (0,37);
target = (0,30);
type = Stem;
},
{
horizontal = 1;
origin = (0,10);
target = (0,19);
type = Stem;
},
{
horizontal = 1;
origin = (0,15);
target = (0,34);
type = Stem;
},
{
origin = (0,14);
target = (0,16);
type = Stem;
},
{
origin = (0,27);
target = (0,2);
type = Stem;
}
);
layerId = "D56600E4-3CB1-46B6-994E-4E22114E2E10";
shapes = (
{
closed = 1;
nodes = (
(551,-10,o),
(646,71,o),
(646,199,cs),
(646,274,o),
(607,336,o),
(540,374,c),
(540,348,l),
(645,560,l),
(569,666,o),
(475,715,o),
(363,715,cs),
(191,715,o),
(63,611,o),
(63,423,cs),
(63,0,l),
(223,0,l),
(223,422,ls),
(223,525,o),
(278,567,o),
(353,567,cs),
(404,567,o),
(448,543,o),
(477,499,c),
(468,545,l),
(361,315,l),
(450,285,o),
(482,248,o),
(482,203,cs),
(482,157,o),
(447,138,o),
(403,138,cs),
(375,138,o),
(342,146,o),
(313,160,c),
(267,28,l),
(305,5,o),
(351,-10,o),
(412,-10,cs)
);
}
);
width = 687;
},
{
layerId = "FF94DDBB-E62A-4F15-93F9-F4255DC66883";
shapes = (
{
closed = 1;
nodes = (
(521,-10,o),
(601,69,o),
(601,180,cs),
(601,267,o),
(543,337,o),
(473,366,c),
(473,354,l),
(579,561,l),
(530,658,o),
(454,710,o),
(343,710,cs),
(198,710,o),
(93,614,o),
(93,453,cs),
(93,0,l),
(121,0,l),
(121,453,ls),
(121,596,o),
(215,682,o),
(343,682,cs),
(441,682,o),
(506,634,o),
(551,546,c),
(550,567,l),
(441,352,l),
(515,325,o),
(573,260,o),
(573,181,cs),
(573,86,o),
(505,19,o),
(398,19,cs),
(349,19,o),
(299,33,o),
(263,59,c),
(250,35,l),
(284,11,o),
(341,-10,o),
(402,-10,cs)
);
}
);
width = 658;
}
);
unicode = 7838;
},
{
glyphname = T;
kernLeft = T;
kernRight = T;
lastChange = "2024-06-28 09:22:26 +0000";
layers = (
{
anchors = (
{
name = bottom;
pos = (283,0);
},
{
name = center;
pos = (283,338);
},
{
name = top;
pos = (284,700);
}
);
hints = (
{
horizontal = 1;
origin = (0,3);
target = up;
type = BottomGhost;
},
{
horizontal = 1;
origin = (1,2);
target = (1,3);
type = Stem;
},
{
origin = (0,3);
target = (0,1);
type = Stem;
}
);
layerId = "D56600E4-3CB1-46B6-994E-4E22114E2E10";
shapes = (
{
closed = 1;
nodes = (
(363,0,l),
(363,633,l),
(202,633,l),
(202,0,l)
);
},
{
closed = 1;
nodes = (
(554,555,l),
(554,700,l),
(14,700,l),
(14,555,l)
);
}
);
width = 568;
},
{
anchors = (
{
name = bottom;
pos = (257,0);
},
{
name = center;
pos = (257,368);
},
{
name = top;
pos = (257,700);
}
);
layerId = "FF94DDBB-E62A-4F15-93F9-F4255DC66883";
shapes = (
{
closed = 1;
nodes = (
(272,0,l),
(272,686,l),
(242,686,l),
(242,0,l)
);
},
{
closed = 1;
nodes = (
(500,672,l),
(500,700,l),
(14,700,l),
(14,672,l)
);
}
);
width = 514;
}
);
unicode = 84;
},
{
glyphname = U;
kernLeft = U;
kernRight = U;
lastChange = "2024-06-28 09:22:26 +0000";
layers = (
{
anchors = (
{
name = bottom;
pos = (346,0);
},
{
name = ogonek;
pos = (438,0);
},
{
name = top;
pos = (347,700);
},
{
name = topright;
pos = (679,700);
}
);
hints = (
{
horizontal = 1;
origin = (0,17);
target = (0,8);
type = Stem;
},
{
horizontal = 1;
origin = (0,13);
target = down;
type = TopGhost;
},
{
origin = (0,12);
target = (0,14);
type = Stem;
},
{
origin = (0,3);
target = (0,5);
type = Stem;
}
);
layerId = "D56600E4-3CB1-46B6-994E-4E22114E2E10";
shapes = (
{
closed = 1;
nodes = (
(515,-15,o),
(628,67,o),
(628,248,cs),
(628,700,l),
(467,700,l),
(467,261,ls),
(467,170,o),
(419,133,o),
(346,133,cs),
(273,133,o),
(225,170,o),
(225,261,cs),
(225,700,l),
(64,700,l),
(64,248,ls),
(64,67,o),
(175,-15,o),
(346,-15,cs)
);
}
);
width = 692;
},
{
anchors = (
{
name = bottom;
pos = (339,0);
},
{
name = ogonek;
pos = (410,0);
},
{
name = top;
pos = (340,700);
},
{
name = topright;
pos = (658,700);
}
);
layerId = "FF94DDBB-E62A-4F15-93F9-F4255DC66883";
shapes = (
{
closed = 1;
nodes = (
(490,-10,o),
(585,80,o),
(585,228,cs),
(585,700,l),
(557,700,l),
(557,229,ls),
(557,99,o),
(472,18,o),
(339,18,cs),
(207,18,o),
(122,99,o),
(122,229,cs),
(122,700,l),
(94,700,l),
(94,228,ls),
(94,80,o),
(189,-10,o),
(339,-10,cs)
);
}
);
width = 679;
}
);
unicode = 85;
},
{
glyphname = V;
lastChange = "2024-06-28 09:22:26 +0000";
layers = (
{
hints = (
{
horizontal = 1;
origin = (0,7);
target = up;
type = BottomGhost;
},
{
horizontal = 1;
origin = (0,6);
target = down;
type = TopGhost;
}
);
layerId = "D56600E4-3CB1-46B6-994E-4E22114E2E10";
shapes = (
{
closed = 1;
nodes = (
(422,0,l),
(673,700,l),
(502,700,l),
(308,120,l),
(366,120,l),
(171,700,l),
(1,700,l),
(250,0,l)
);
}
);
width = 673;
},
{
layerId = "FF94DDBB-E62A-4F15-93F9-F4255DC66883";
shapes = (
{
closed = 1;
nodes = (
(320,0,l),
(589,700,l),
(558,700,l),
(301,26,l),
(309,26,l),
(52,700,l),
(21,700,l),
(289,0,l)
);
}
);
width = 610;
}
);
unicode = 86;
},
{
glyphname = W;
kernLeft = W;
kernRight = W;
lastChange = "2024-06-28 09:22:26 +0000";
layers = (
{
anchors = (
{
name = top;
pos = (508,700);
}
);
hints = (
{
horizontal = 1;
origin = (0,15);
target = up;
type = BottomGhost;
},
{
horizontal = 1;
origin = (0,14);
target = down;
type = TopGhost;
}
);
layerId = "D56600E4-3CB1-46B6-994E-4E22114E2E10";
shapes = (
{
closed = 1;
nodes = (
(365,0,l),
(530,583,l),
(485,583,l),
(650,0,l),
(815,0,l),
(1004,700,l),
(842,700,l),
(702,127,l),
(765,127,l),
(597,700,l),
(419,700,l),
(249,127,l),
(312,127,l),
(173,700,l),
(10,700,l),
(199,0,l)
);
}
);
width = 1014;
},
{
anchors = (
{
name = top;
pos = (486,700);
}
);
layerId = "FF94DDBB-E62A-4F15-93F9-F4255DC66883";
shapes = (
{
closed = 1;
nodes = (
(274,0,l),
(490,670,l),
(481,670,l),
(698,0,l),
(727,0,l),
(945,700,l),
(915,700,l),
(709,29,l),
(717,29,l),
(501,700,l),
(470,700,l),
(254,28,l),
(263,28,l),
(56,700,l),
(26,700,l),
(244,0,l)
);
}
);
width = 971;
}
);
unicode = 87;
},
{
glyphname = X;
lastChange = "2024-06-28 09:22:26 +0000";
layers = (
{
hints = (
{
horizontal = 1;
origin = (0,11);
target = up;
type = BottomGhost;
},
{
horizontal = 1;
origin = (0,9);
target = down;
type = TopGhost;
}
);
layerId = "D56600E4-3CB1-46B6-994E-4E22114E2E10";
shapes = (
{
closed = 1;
nodes = (
(186,0,l),
(338,245,l),
(491,0,l),
(673,0,l),
(451,356,l),
(670,700,l),
(478,700,l),
(338,468,l),
(198,700,l),
(7,700,l),
(225,356,l),
(3,0,l)
);
}
);
width = 676;
},
{
layerId = "FF94DDBB-E62A-4F15-93F9-F4255DC66883";
shapes = (
{
closed = 1;
nodes = (
(54,0,l),
(295,327,l),
(536,0,l),
(570,0,l),
(315,349,l),
(561,700,l),
(526,700,l),
(295,372,l),
(65,700,l),
(29,700,l),
(275,349,l),
(20,0,l)
);
}
);
width = 590;
}
);
unicode = 88;
},
{
glyphname = Y;
kernLeft = Y;
kernRight = Y;
lastChange = "2024-06-28 09:22:26 +0000";
layers = (
{
anchors = (
{
name = top;
pos = (319,700);
}
);
hints = (
{
horizontal = 1;
origin = (0,4);
target = up;
type = BottomGhost;
},
{
horizontal = 1;
origin = (0,7);
target = down;
type = TopGhost;
},
{
origin = (0,3);
target = (0,5);
type = Stem;
}
);
layerId = "D56600E4-3CB1-46B6-994E-4E22114E2E10";
shapes = (
{
closed = 1;
nodes = (
(170,700,l),
(-3,700,l),
(238,284,l),
(238,0,l),
(399,0,l),
(399,284,l),
(640,700,l),
(467,700,l),
(287,386,l),
(350,386,l)
);
}
);
width = 637;
},
{
anchors = (
{
name = top;
pos = (301,700);
}
);
layerId = "FF94DDBB-E62A-4F15-93F9-F4255DC66883";
shapes = (
{
closed = 1;
nodes = (
(51,700,l),
(18,700,l),
(286,305,l),
(286,0,l),
(315,0,l),
(315,305,l),
(583,700,l),
(549,700,l),
(294,324,l),
(307,324,l)
);
}
);
width = 601;
}
);
unicode = 89;
},
{
glyphname = Z;
kernLeft = Z;
kernRight = Z;
lastChange = "2024-06-28 09:22:26 +0000";
layers = (
{
anchors = (
{
name = top;
pos = (306,700);
}
);
hints = (
{
horizontal = 1;
origin = (0,11);
target = (0,2);
type = Stem;
},
{
horizontal = 1;
origin = (0,6);
target = (0,8);
type = Stem;
}
);
layerId = "D56600E4-3CB1-46B6-994E-4E22114E2E10";
shapes = (
{
closed = 1;
nodes = (
(568,0,l),
(568,139,l),
(162,139,l),
(184,88,l),
(564,566,l),
(564,700,l),
(47,700,l),
(47,561,l),
(427,561,l),
(403,613,l),
(33,140,l),
(33,0,l)
);
}
);
width = 605;
},
{
anchors = (
{
name = top;
pos = (282,700);
}
);
layerId = "FF94DDBB-E62A-4F15-93F9-F4255DC66883";
shapes = (
{
closed = 1;
nodes = (
(523,0,l),
(523,28,l),
(57,28,l),
(63,19,l),
(523,674,l),
(523,700,l),
(40,700,l),
(40,672,l),
(497,672,l),
(492,681,l),
(30,26,l),
(30,0,l)
);
}
);
width = 557;
}
);
unicode = 90;
},
{
glyphname = a;
kernLeft = a;
kernRight = a;
lastChange = "2024-06-28 09:22:26 +0000";
layers = (
{
anchors = (
{
name = ogonek;
pos = (476,0);
},
{
name = top;
pos = (256,493);
}
);
hints = (
{
horizontal = 1;
origin = (2,5);
target = (1,6);
type = Stem;
},
{
horizontal = 1;
origin = (0,7);
target = (0,14);
type = Stem;
},
{
horizontal = 1;
origin = (1,12);
target = (2,11);
type = Stem;
},
{
place = (44,150);
type = Stem;
},
{
place = (334,150);
type = Stem;
}
);
layerId = "D56600E4-3CB1-46B6-994E-4E22114E2E10";
shapes = (
{
closed = 1;
nodes = (
(476,0,l),
(473,52,o),
(473,103,o),
(473,155,cs),
(473,316,ls),
(473,436,o),
(383,503,o),
(256,503,cs),
(168,503,o),
(84,470,o),
(40,423,c),
(106,324,l),
(144,355,o),
(200,374,o),
(246,374,cs),
(290,374,o),
(325,356,o),
(325,307,cs),
(325,202,l),
(343,145,l),
(343,0,l)
);
},
{
closed = 1;
nodes = (
(315,-10,o),
(364,46,o),
(364,145,c),
(408,145,l),
(408,231,o),
(351,288,o),
(230,288,cs),
(99,288,o),
(27,226,o),
(27,136,cs),
(27,50,o),
(99,-10,o),
(208,-10,cs)
);
},
{
closed = 1;
nodes = (
(208,98,o),
(177,117,o),
(177,145,cs),
(177,172,o),
(208,191,o),
(251,191,cs),
(295,191,o),
(326,172,o),
(326,145,cs),
(326,117,o),
(295,98,o),
(251,98,cs)
);
}
);
width = 527;
},
{
anchors = (
{
name = ogonek;
pos = (411,0);
},
{
name = top;
pos = (240,472);
}
);
layerId = "FF94DDBB-E62A-4F15-93F9-F4255DC66883";
shapes = (
{
closed = 1;
nodes = (
(411,0,l),
(409,54,o),
(408,107,o),
(408,161,cs),
(408,309,ls),
(408,427,o),
(342,482,o),
(240,482,cs),
(177,482,o),
(110,461,o),
(67,410,c),
(84,389,l),
(123,437,o),
(184,454,o),
(240,454,cs),
(327,454,o),
(379,410,o),
(379,309,cs),
(379,161,l),
(381,157,l),
(384,0,l)
);
},
{
closed = 1;
nodes = (
(341,-10,o),
(398,45,o),
(398,128,c),
(401,128,l),
(401,207,o),
(341,260,o),
(229,260,cs),
(116,260,o),
(48,205,o),
(48,126,cs),
(48,44,o),
(118,-10,o),
(228,-10,cs)
);
},
{
closed = 1;
nodes = (
(135,15,o),
(78,62,o),
(78,126,cs),
(78,191,o),
(135,235,o),
(231,235,cs),
(327,235,o),
(379,191,o),
(379,125,cs),
(379,61,o),
(328,15,o),
(232,15,cs)
);
}
);
width = 490;
},
{
anchors = (
{
name = ogonek;
pos = (439,0);
},
{
name = top;
pos = (247,481);
}
);
associatedMasterId = "FF94DDBB-E62A-4F15-93F9-F4255DC66883";
attr = {
coordinates = (
400
);
};
layerId = "D13A1A24-AF93-4B8E-B952-A473B89EAD71";
name = "19 Jun 24 at 17:38";
shapes = (
{
closed = 1;
nodes = (
(439,0,l),
(436,53,o),
(436,105,o),
(436,158,cs),
(436,312,ls),
(436,431,o),
(359,491,o),
(247,491,cs),
(173,491,o),
(101,464,o),
(55,416,c),
(93,359,l),
(135,398,o),
(194,418,o),
(244,418,cs),
(319,418,o),
(356,383,o),
(356,311,cs),
(356,209,l),
(366,182,l),
(366,0,l)
);
},
{
closed = 1;
nodes = (
(336,-10,o),
(392,45,o),
(392,144,c),
(408,144,l),
(408,227,o),
(344,281,o),
(233,281,cs),
(109,281,o),
(39,214,o),
(39,132,cs),
(39,47,o),
(110,-10,o),
(224,-10,cs)
);
},
{
closed = 1;
nodes = (
(167,51,o),
(120,83,o),
(120,134,cs),
(120,184,o),
(166,216,o),
(239,216,cs),
(312,216,o),
(356,184,o),
(356,134,cs),
(356,83,o),
(311,51,o),
(239,51,cs)
);
}
);
width = 506;
}
);
unicode = 97;
},
{
glyphname = ae;
kernLeft = a;
kernRight = e;
lastChange = "2024-06-28 09:22:26 +0000";
layers = (
{
anchors = (
{
name = bottom;
pos = (408,0);
},
{
name = top;
pos = (408,493);
}
);
hints = (
{
origin = (1,9);
target = (2,2);
type = Stem;
},
{
place = (637,146);
type = Stem;
},
{
horizontal = 1;
origin = (0,19);
target = (0,18);
type = Stem;
},
{
horizontal = 1;
origin = (0,44);
target = (0,6);
type = Stem;
},
{
horizontal = 1;
origin = (0,23);
target = (0,13);
type = Stem;
}
);
layerId = "D56600E4-3CB1-46B6-994E-4E22114E2E10";
shapes = (
{
closed = 1;
nodes = (
(649,-10,o),
(717,14,o),
(759,71,c),
(674,158,l),
(648,130,o),
(623,115,o),
(577,115,cs),
(504,115,o),
(468,178,o),
(468,243,cs),
(468,253,ls),
(468,328,o),
(493,387,o),
(559,387,cs),
(617,387,o),
(655,330,o),
(629,231,c),
(704,297,l),
(428,297,l),
(428,200,l),
(779,200,l),
(803,384,o),
(711,503,o),
(558,503,cs),
(479,503,o),
(418,470,o),
(378,423,c),
(434,423,l),
(400,474,o),
(334,503,o),
(253,503,cs),
(168,503,o),
(84,471,o),
(40,423,c),
(106,324,l),
(142,354,o),
(197,374,o),
(243,374,cs),
(286,374,o),
(320,356,o),
(320,307,cs),
(320,243,ls),
(320,90,o),
(421,-10,o),
(569,-10,cs)
);
},
{
closed = 1;
nodes = (
(321,-10,o),
(410,46,o),
(410,145,c),
(403,145,l),
(403,231,o),
(347,288,o),
(228,288,cs),
(98,288,o),
(27,226,o),
(27,136,cs),
(27,50,o),
(103,-10,o),
(211,-10,cs)
);
},
{
closed = 1;
nodes = (
(207,98,o),
(177,117,o),
(177,145,cs),
(177,172,o),
(207,191,o),
(249,191,cs),
(291,191,o),
(321,172,o),
(321,145,cs),
(321,117,o),
(291,98,o),
(249,98,cs)
);
}
);
width = 812;
},
{
anchors = (
{
name = bottom;
pos = (399,0);
},
{
name = top;
pos = (399,472);
}
);
layerId = "FF94DDBB-E62A-4F15-93F9-F4255DC66883";
shapes = (
{
closed = 1;
nodes = (
(650,-10,o),
(706,9,o),
(739,38,c),
(723,61,l),
(694,36,o),
(645,18,o),
(593,18,cs),
(475,18,o),
(393,106,o),
(393,234,cs),
(393,245,ls),
(393,367,o),
(466,454,o),
(574,454,cs),
(676,454,o),
(742,371,o),
(731,250,c),
(745,262,l),
(383,262,l),
(383,235,l),
(759,235,l),
(775,380,o),
(697,482,o),
(575,482,cs),
(482,482,o),
(407,425,o),
(380,335,c),
(391,335,l),
(389,430,o),
(332,482,o),
(236,482,cs),
(176,482,o),
(109,462,o),
(67,410,c),
(83,388,l),
(120,435,o),
(182,454,o),
(235,454,cs),
(317,454,o),
(365,409,o),
(365,327,cs),
(365,235,ls),
(365,91,o),
(458,-10,o),
(592,-10,cs)
);
},
{
closed = 1;
nodes = (
(329,-10,o),
(399,44,o),
(399,128,c),
(397,128,l),
(397,209,o),
(332,260,o),
(227,260,cs),
(116,260,o),
(49,205,o),
(49,126,cs),
(49,44,o),
(119,-10,o),
(225,-10,cs)
);
},
{
closed = 1;
nodes = (
(135,15,o),
(79,62,o),
(79,126,cs),
(79,191,o),
(134,235,o),
(228,235,cs),
(317,235,o),
(373,192,o),
(373,126,cs),
(373,58,o),
(316,15,o),
(228,15,cs)
);
}
);
width = 807;
},
{
anchors = (
{
name = bottom;
pos = (403,0);
},
{
name = top;
pos = (403,481);
}
);
associatedMasterId = "FF94DDBB-E62A-4F15-93F9-F4255DC66883";
attr = {
coordinates = (
400
);
};
layerId = "0652E081-936A-4E86-9F9D-83590C9202C5";
name = "19 Jun 24 at 17:38";
shapes = (
{
closed = 1;
nodes = (
(645,-10,o),
(709,11,o),
(746,52,c),
(700,107,l),
(673,81,o),
(634,64,o),
(584,64,cs),
(485,64,o),
(423,132,o),
(423,233,cs),
(423,248,ls),
(423,350,o),
(476,421,o),
(564,421,cs),
(649,421,o),
(703,355,o),
(686,242,c),
(725,286,l),
(400,286,l),
(400,220,l),
(766,220,l),
(785,382,o),
(701,491,o),
(566,491,cs),
(479,491,o),
(410,444,o),
(377,373,c),
(407,373,l),
(392,449,o),
(331,491,o),
(241,491,cs),
(171,491,o),
(96,466,o),
(53,416,c),
(90,361,l),
(127,400,o),
(187,418,o),
(235,418,cs),
(302,418,o),
(344,384,o),
(344,317,cs),
(344,238,ls),
(344,91,o),
(437,-10,o),
(580,-10,cs)
);
},
{
closed = 1;
nodes = (
(340,-10,o),
(415,54,o),
(415,144,c),
(406,144,l),
(406,227,o),
(342,281,o),
(231,281,cs),
(107,281,o),
(47,213,o),
(47,134,cs),
(47,45,o),
(123,-10,o),
(227,-10,cs)
);
},
{
closed = 1;
nodes = (
(170,51,o),
(128,83,o),
(128,134,cs),
(128,184,o),
(164,216,o),
(237,216,cs),
(311,216,o),
(354,183,o),
(354,135,cs),
(354,85,o),
(307,51,o),
(237,51,cs)
);
}
);
width = 809;
}
);
unicode = 230;
},
{
glyphname = b;
kernLeft = h;
kernRight = b;
lastChange = "2024-06-28 09:22:26 +0000";
layers = (
{
hints = (
{
origin = (0,12);
target = (0,11);
type = Stem;
},
{
origin = (1,9);
target = (0,2);
type = Stem;
},
{
horizontal = 1;
origin = (0,6);
target = (1,5);
type = Stem;
},
{
horizontal = 1;
origin = (0,19);
target = (1,12);
type = Stem;
}
);
layerId = "D56600E4-3CB1-46B6-994E-4E22114E2E10";
shapes = (
{
closed = 1;
nodes = (
(471,-10,o),
(572,89,o),
(572,241,cs),
(572,251,ls),
(572,401,o),
(468,503,o),
(337,503,cs),
(271,503,o),
(215,475,o),
(177,428,c),
(208,392,l),
(208,730,l),
(58,730,l),
(58,0,l),
(193,0,l),
(193,115,l),
(164,83,l),
(203,24,o),
(265,-10,o),
(338,-10,cs)
);
},
{
closed = 1;
nodes = (
(248,121,o),
(198,166,o),
(198,246,cs),
(198,327,o),
(248,372,o),
(313,372,cs),
(371,372,o),
(422,329,o),
(422,251,cs),
(422,241,ls),
(422,164,o),
(371,121,o),
(313,121,cs)
);
}
);
width = 603;
},
{
layerId = "FF94DDBB-E62A-4F15-93F9-F4255DC66883";
shapes = (
{
closed = 1;
nodes = (
(442,-10,o),
(531,91,o),
(531,235,cs),
(531,244,ls),
(531,383,o),
(442,482,o),
(312,482,cs),
(218,482,o),
(144,425,o),
(113,337,c),
(117,331,l),
(117,730,l),
(88,730,l),
(88,0,l),
(116,0,l),
(116,141,l),
(112,136,l),
(143,47,o),
(217,-10,o),
(312,-10,cs)
);
},
{
closed = 1;
nodes = (
(198,17,o),
(116,107,o),
(116,236,cs),
(116,364,o),
(198,454,o),
(310,454,cs),
(424,454,o),
(502,367,o),
(502,244,cs),
(502,235,ls),
(502,107,o),
(424,17,o),
(310,17,cs)
);
}
);
width = 583;
}
);
unicode = 98;
},
{
glyphname = c;
kernLeft = o;
kernRight = c;
lastChange = "2024-06-28 09:22:26 +0000";
layers = (
{
anchors = (
{
name = bottom;
pos = (289,0);
},
{
name = top;
pos = (292,493);
}
);
hints = (
{
horizontal = 1;
origin = (0,27);
target = (0,6);
type = Stem;
},
{
horizontal = 1;
origin = (0,20);
target = (0,13);
type = Stem;
},
{
origin = (0,24);
target = (0,10);
type = Stem;
}
);
layerId = "D56600E4-3CB1-46B6-994E-4E22114E2E10";
shapes = (
{
closed = 1;
nodes = (
(365,-10,o),
(439,24,o),
(478,78,c),
(389,167,l),
(361,138,o),
(326,127,o),
(294,127,cs),
(231,127,o),
(179,170,o),
(179,242,cs),
(179,252,ls),
(179,324,o),
(229,366,o),
(292,366,cs),
(326,366,o),
(361,353,o),
(384,324,c),
(475,415,l),
(436,469,o),
(365,503,o),
(291,503,cs),
(143,503,o),
(30,402,o),
(30,252,cs),
(30,242,ls),
(30,94,o),
(141,-10,o),
(291,-10,cs)
);
}
);
width = 494;
},
{
anchors = (
{
name = bottom;
pos = (271,0);
},
{
name = top;
pos = (291,472);
}
);
layerId = "FF94DDBB-E62A-4F15-93F9-F4255DC66883";
shapes = (
{
closed = 1;
nodes = (
(355,-10,o),
(407,12,o),
(447,53,c),
(428,73,l),
(392,37,o),
(347,18,o),
(287,18,cs),
(167,18,o),
(81,105,o),
(81,229,cs),
(81,243,ls),
(81,367,o),
(166,454,o),
(287,454,cs),
(347,454,o),
(392,434,o),
(428,399,c),
(447,419,l),
(407,460,o),
(355,482,o),
(288,482,cs),
(150,482,o),
(52,383,o),
(52,243,cs),
(52,229,ls),
(52,88,o),
(150,-10,o),
(288,-10,cs)
);
}
);
width = 484;
}
);
unicode = 99;
},
{
glyphname = d;
kernLeft = d;
kernRight = d;
lastChange = "2024-06-28 09:22:26 +0000";
layers = (
{
anchors = (
{
name = center;
pos = (456,600);
},
{
name = topright;
pos = (606,730);
}
);
hints = (
{
horizontal = 1;
origin = (0,19);
target = (1,12);
type = Stem;
},
{
horizontal = 1;
origin = (0,12);
target = (1,6);
type = Stem;
},
{
origin = (0,16);
target = (1,2);
type = Stem;
},
{
origin = (0,7);
target = (0,6);
type = Stem;
}
);
layerId = "D56600E4-3CB1-46B6-994E-4E22114E2E10";
shapes = (
{
closed = 1;
nodes = (
(339,-10,o),
(400,24,o),
(440,85,c),
(411,116,l),
(411,0,l),
(545,0,l),
(545,730,l),
(395,730,l),
(395,392,l),
(426,428,l),
(388,475,o),
(332,503,o),
(266,503,cs),
(135,503,o),
(31,401,o),
(31,251,cs),
(31,241,ls),
(31,89,o),
(132,-10,o),
(265,-10,cs)
);
},
{
closed = 1;
nodes = (
(232,121,o),
(181,164,o),
(181,241,cs),
(181,251,ls),
(181,329,o),
(232,372,o),
(290,372,cs),
(355,372,o),
(405,327,o),
(405,246,cs),
(405,166,o),
(355,121,o),
(290,121,cs)
);
}
);
width = 603;
},
{
anchors = (
{
name = center;
pos = (462,600);
},
{
name = topright;
pos = (593,730);
}
);
layerId = "FF94DDBB-E62A-4F15-93F9-F4255DC66883";
shapes = (
{
closed = 1;
nodes = (
(366,-10,o),
(440,47,o),
(472,136,c),
(468,141,l),
(468,0,l),
(496,0,l),
(496,730,l),
(467,730,l),
(467,331,l),
(471,337,l),
(439,425,o),
(366,482,o),
(272,482,cs),
(142,482,o),
(52,383,o),
(52,244,cs),
(52,235,ls),
(52,91,o),
(141,-10,o),
(272,-10,cs)
);
},
{
closed = 1;
nodes = (
(159,17,o),
(81,107,o),
(81,235,cs),
(81,244,ls),
(81,367,o),
(159,454,o),
(273,454,cs),
(386,454,o),
(468,364,o),
(468,236,cs),
(468,107,o),
(386,17,o),
(273,17,cs)
);
}
);
width = 583;
}
);
unicode = 100;
},
{
glyphname = eth;
lastChange = "2024-06-28 09:22:26 +0000";
layers = (
{
hints = (
{
horizontal = 1;
origin = (0,21);
target = (1,11);
type = Stem;
},
{
horizontal = 1;
origin = (1,5);
target = (0,15);
type = Stem;
},
{
horizontal = 1;
origin = (2,1);
target = down;
type = TopGhost;
},
{
horizontal = 1;
origin = (0,6);
target = down;
type = TopGhost;
},
{
origin = (0,18);
target = (1,2);
type = Stem;
},
{
origin = (1,8);
target = (0,2);
type = Stem;
}
);
layerId = "D56600E4-3CB1-46B6-994E-4E22114E2E10";
shapes = (
{
closed = 1;
nodes = (
(446,-10,o),
(546,94,o),
(546,251,cs),
(546,381,o),
(481,499,o),
(331,628,cs),
(195,745,l),
(91,645,l),
(218,541,ls),
(323,455,o),
(384,389,o),
(399,318,c),
(419,348,l),
(381,436,o),
(327,474,o),
(247,474,cs),
(126,474,o),
(31,390,o),
(31,252,cs),
(31,92,o),
(136,-10,o),
(290,-10,cs)
);
},
{
closed = 1;
nodes = (
(223,121,o),
(181,166,o),
(181,237,cs),
(181,307,o),
(223,351,o),
(289,351,cs),
(356,351,o),
(397,306,o),
(397,236,cs),
(397,166,o),
(355,121,o),
(289,121,cs)
);
},
{
closed = 1;
nodes = (
(442,605,l),
(412,708,l),
(40,571,l),
(70,466,l)
);
}
);
width = 577;
},
{
layerId = "FF94DDBB-E62A-4F15-93F9-F4255DC66883";
shapes = (
{
closed = 1;
nodes = (
(405,-10,o),
(496,89,o),
(496,232,cs),
(496,363,o),
(438,459,o),
(299,588,cs),
(132,743,l),
(112,722,l),
(278,569,ls),
(372,483,o),
(418,424,o),
(448,351,c),
(456,354,l),
(422,431,o),
(356,480,o),
(271,480,cs),
(140,480,o),
(52,383,o),
(52,235,cs),
(52,91,o),
(143,-10,o),
(274,-10,cs)
);
},
{
closed = 1;
nodes = (
(160,17,o),
(80,106,o),
(80,234,cs),
(80,366,o),
(158,453,o),
(274,453,cs),
(385,453,o),
(468,359,o),
(468,231,cs),
(468,105,o),
(388,17,o),
(274,17,cs)
);
},
{
closed = 1;
nodes = (
(376,686,l),
(364,710,l),
(83,542,l),
(94,518,l)
);
}
);
width = 548;
}
);
unicode = 240;
},
{
glyphname = e;
kernLeft = o;
kernRight = e;
lastChange = "2024-06-28 09:22:26 +0000";
layers = (
{
anchors = (
{
name = bottom;
pos = (264,0);
},
{
name = top;
pos = (273,493);
}
);
hints = (
{
horizontal = 1;
origin = (0,30);
target = (0,6);
type = Stem;
},
{
horizontal = 1;
origin = (0,20);
target = (0,18);
type = Stem;
},
{
horizontal = 1;
origin = (0,23);
target = (0,13);
type = Stem;
},
{
origin = (0,27);
target = (0,9,0,20);
type = Stem;
},
{
origin = (0,16);
target = (0,20);
type = Stem;
}
);
layerId = "D56600E4-3CB1-46B6-994E-4E22114E2E10";
shapes = (
{
closed = 1;
nodes = (
(366,-10,o),
(433,16,o),
(474,71,c),
(389,158,l),
(363,131,o),
(338,115,o),
(290,115,cs),
(215,115,o),
(178,158,o),
(178,223,cs),
(178,253,ls),
(178,328,o),
(204,387,o),
(271,387,cs),
(327,387,o),
(364,338,o),
(348,249,c),
(415,297,l),
(138,297,l),
(138,200,l),
(494,200,l),
(518,384,o),
(425,503,o),
(270,503,cs),
(125,503,o),
(30,392,o),
(30,253,cs),
(30,243,ls),
(30,90,o),
(132,-10,o),
(282,-10,cs)
);
}
);
width = 527;
},
{
anchors = (
{
name = bottom;
pos = (263,0);
},
{
name = top;
pos = (264,472);
}
);
layerId = "FF94DDBB-E62A-4F15-93F9-F4255DC66883";
shapes = (
{
closed = 1;
nodes = (
(345,-10,o),
(401,9,o),
(435,38,c),
(418,60,l),
(387,34,o),
(337,18,o),
(285,18,cs),
(165,18,o),
(81,107,o),
(81,235,cs),
(81,245,ls),
(81,368,o),
(156,454,o),
(266,454,cs),
(370,454,o),
(439,370,o),
(426,246,c),
(438,261,l),
(73,261,l),
(73,235,l),
(455,235,l),
(470,380,o),
(391,482,o),
(266,482,cs),
(139,482,o),
(52,384,o),
(52,245,cs),
(52,235,ls),
(52,91,o),
(148,-10,o),
(285,-10,cs)
);
}
);
width = 503;
},
{
anchors = (
{
name = bottom;
pos = (263,0);
},
{
name = top;
pos = (268,481);
}
);
associatedMasterId = "FF94DDBB-E62A-4F15-93F9-F4255DC66883";
attr = {
coordinates = (
400
);
};
layerId = "9233D140-3893-4365-8AFD-39EBFD6955B4";
name = "19 Jun 24 at 17:39";
shapes = (
{
closed = 1;
nodes = (
(354,-10,o),
(415,12,o),
(452,52,c),
(406,102,l),
(377,76,o),
(338,64,o),
(288,64,cs),
(186,64,o),
(123,137,o),
(123,238,cs),
(123,248,ls),
(123,351,o),
(177,421,o),
(269,421,cs),
(352,421,o),
(407,356,o),
(393,247,c),
(429,282,l),
(101,282,l),
(101,216,l),
(472,216,l),
(491,382,o),
(406,491,o),
(268,491,cs),
(133,491,o),
(43,387,o),
(43,248,cs),
(43,238,ls),
(43,91,o),
(141,-10,o),
(284,-10,cs)
);
}
);
width = 513;
}
);
unicode = 101;
},
{
glyphname = eogonek;
kernLeft = o;
kernRight = e;
lastChange = "2024-06-28 09:22:26 +0000";
layers = (
{
hints = (
{
origin = (0,33);
target = (0,17);
type = Stem;
},
{
origin = (0,23);
target = (0,27);
type = Stem;
},
{
horizontal = 1;
origin = (0,30);
target = (0,20);
type = Stem;
},
{
horizontal = 1;
origin = (0,37);
target = (0,13);
type = Stem;
},
{
horizontal = 1;
origin = (0,0);
target = (0,1);
type = Stem;
}
);
layerId = "D56600E4-3CB1-46B6-994E-4E22114E2E10";
shapes = (
{
closed = 1;
nodes = (
(427,-200,l),
(427,-99,l),
(409,-99,ls),
(389,-99,o),
(384,-87,o),
(384,-77,cs),
(384,-68,o),
(388,-60,o),
(395,-49,cs),
(474,71,l),
(389,158,l),
(363,131,o),
(338,115,o),
(290,115,cs),
(215,115,o),
(178,158,o),
(178,223,cs),
(178,253,ls),
(178,328,o),
(204,387,o),
(271,387,cs),
(331,387,o),
(370,330,o),
(344,231,c),
(419,297,l),
(138,297,l),
(138,200,l),
(494,200,l),
(518,384,o),
(425,503,o),
(270,503,cs),
(125,503,o),
(30,392,o),
(30,253,cs),
(30,243,ls),
(30,90,o),
(132,-10,o),
(282,-10,cs),
(326,-10,o),
(377,1,o),
(424,43,c),
(336,43,l),
(307,8,ls),
(269,-37,o),
(253,-62,o),
(253,-104,cs),
(253,-161,o),
(295,-200,o),
(363,-200,cs)
);
}
);
width = 527;
},
{
layerId = "FF94DDBB-E62A-4F15-93F9-F4255DC66883";
shapes = (
{
closed = 1;
nodes = (
(403,-200,l),
(403,-175,l),
(364,-175,ls),
(339,-175,o),
(326,-157,o),
(326,-138,cs),
(326,-121,o),
(335,-104,o),
(347,-87,cs),
(435,38,l),
(418,60,l),
(387,34,o),
(337,18,o),
(285,18,cs),
(165,18,o),
(81,107,o),
(81,235,cs),
(81,245,ls),
(81,368,o),
(156,454,o),
(266,454,cs),
(369,454,o),
(437,372,o),
(427,250,c),
(441,261,l),
(73,261,l),
(73,235,l),
(455,235,l),
(470,380,o),
(391,482,o),
(266,482,cs),
(139,482,o),
(52,384,o),
(52,245,cs),
(52,235,ls),
(52,91,o),
(148,-10,o),
(285,-10,cs),
(327,-10,o),
(368,0,o),
(401,17,c),
(395,22,l),
(327,-73,ls),
(309,-97,o),
(299,-117,o),
(299,-140,cs),
(299,-172,o),
(318,-200,o),
(361,-200,cs)
);
}
);
width = 503;
},
{
associatedMasterId = "FF94DDBB-E62A-4F15-93F9-F4255DC66883";
attr = {
coordinates = (
400
);
};
layerId = "6DB3C8F5-03ED-4B96-B713-A37243443432";
name = "19 Jun 24 at 17:39";
shapes = (
{
closed = 1;
nodes = (
(414,-200,l),
(414,-142,l),
(384,-142,ls),
(360,-142,o),
(351,-127,o),
(351,-112,cs),
(351,-98,o),
(358,-86,o),
(368,-71,cs),
(452,52,l),
(406,102,l),
(377,76,o),
(338,64,o),
(288,64,cs),
(186,64,o),
(123,137,o),
(123,238,cs),
(123,248,ls),
(123,351,o),
(177,421,o),
(269,421,cs),
(353,421,o),
(409,354,o),
(392,242,c),
(432,282,l),
(101,282,l),
(101,216,l),
(472,216,l),
(491,382,o),
(406,491,o),
(268,491,cs),
(133,491,o),
(43,387,o),
(43,248,cs),
(43,238,ls),
(43,91,o),
(141,-10,o),
(284,-10,cs),
(327,-10,o),
(372,0,o),
(411,28,c),
(370,31,l),
(318,-38,ls),
(293,-72,o),
(279,-93,o),
(279,-125,cs),
(279,-167,o),
(309,-200,o),
(362,-200,cs)
);
}
);
width = 513;
}
);
unicode = 281;
},
{
glyphname = f;
kernLeft = f;
lastChange = "2024-06-28 09:22:26 +0000";
layers = (
{
hints = (
{
horizontal = 1;
origin = (0,11);
target = up;
type = BottomGhost;
},
{
horizontal = 1;
origin = (1,2);
target = (1,3);
type = Stem;
},
{
horizontal = 1;
origin = (0,7);
target = (0,5);
type = Stem;
},
{
origin = (0,11);
target = (0,1);
type = Stem;
}
);
layerId = "D56600E4-3CB1-46B6-994E-4E22114E2E10";
shapes = (
{
closed = 1;
nodes = (
(254,0,l),
(254,586,ls),
(254,597,o),
(263,606,o),
(274,606,cs),
(361,606,l),
(361,730,l),
(276,730,ls),
(170,730,o),
(104,672,o),
(104,573,cs),
(104,0,l)
);
},
{
closed = 1;
nodes = (
(361,367,l),
(361,493,l),
(25,493,l),
(25,367,l)
);
}
);
width = 377;
},
{
layerId = "FF94DDBB-E62A-4F15-93F9-F4255DC66883";
shapes = (
{
closed = 1;
nodes = (
(144,0,l),
(144,625,ls),
(144,670,o),
(177,703,o),
(222,703,cs),
(298,703,l),
(298,730,l),
(222,730,ls),
(160,730,o),
(115,686,o),
(115,624,cs),
(115,0,l)
);
},
{
closed = 1;
nodes = (
(298,444,l),
(298,472,l),
(19,472,l),
(19,444,l)
);
}
);
width = 316;
}
);
unicode = 102;
},
{
glyphname = g;
kernLeft = g;
kernRight = g;
lastChange = "2024-06-28 09:22:26 +0000";
layers = (
{
hints = (
{
horizontal = 1;
origin = (0,25);
target = (0,24);
type = Stem;
},
{
horizontal = 1;
origin = (0,17);
target = (0,7);
type = Stem;
},
{
horizontal = 1;
origin = (2,13);
target = (3,13);
type = Stem;
},
{
horizontal = 1;
origin = (3,6);
target = (1,2);
type = Stem;
},
{
origin = (2,9);
target = (3,3);
type = Stem;
},
{
origin = (3,9);
target = (2,2);
type = Stem;
}
);
layerId = "D56600E4-3CB1-46B6-994E-4E22114E2E10";
shapes = (
{
closed = 1;
nodes = (
(350,-200,ls),
(437,-200,o),
(499,-138,o),
(499,-56,cs),
(499,44,o),
(440,86,o),
(357,86,cs),
(212,86,ls),
(209,86,o),
(207,88,o),
(209,92,cs),
(255,185,l),
(129,215,l),
(77,108,ls),
(43,39,o),
(75,-30,o),
(152,-30,cs),
(334,-30,ls),
(353,-30,o),
(359,-37,o),
(359,-54,cs),
(359,-70,o),
(353,-77,o),
(334,-77,cs),
(31,-77,l),
(31,-200,l)
);
},
{
closed = 1;
nodes = (
(342,409,l),
(444,592,l),
(293,592,l),
(210,409,l)
);
},
{
closed = 1;
nodes = (
(387,127,o),
(480,203,o),
(480,312,cs),
(480,322,ls),
(480,428,o),
(387,503,o),
(255,503,cs),
(123,503,o),
(30,428,o),
(30,322,cs),
(30,312,ls),
(30,203,o),
(123,127,o),
(255,127,cs)
);
},
{
closed = 1;
nodes = (
(209,239,o),
(177,269,o),
(177,311,cs),
(177,315,ls),
(177,356,o),
(209,384,o),
(255,384,cs),
(301,384,o),
(333,356,o),
(333,315,cs),
(333,311,ls),
(333,269,o),
(301,239,o),
(255,239,cs)
);
}
);
width = 515;
},
{
layerId = "FF94DDBB-E62A-4F15-93F9-F4255DC66883";
shapes = (
{
closed = 1;
nodes = (
(301,-200,ls),
(384,-200,o),
(436,-153,o),
(436,-80,cs),
(436,-11,o),
(384,31,o),
(302,31,cs),
(165,31,ls),
(108,31,o),
(112,76,o),
(127,104,cs),
(164,175,l),
(138,184,l),
(98,107,ls),
(76,63,o),
(86,5,o),
(161,5,cs),
(300,5,ls),
(366,5,o),
(408,-28,o),
(408,-80,cs),
(408,-138,o),
(366,-174,o),
(300,-174,cs),
(25,-174,l),
(25,-200,l)
);
},
{
closed = 1;
nodes = (
(300,461,l),
(367,591,l),
(338,591,l),
(272,461,l)
);
},
{
closed = 1;
nodes = (
(355,148,o),
(434,217,o),
(434,314,cs),
(434,326,ls),
(434,417,o),
(355,482,o),
(243,482,cs),
(130,482,o),
(51,416,o),
(51,322,cs),
(51,314,ls),
(51,217,o),
(130,148,o),
(243,148,cs)
);
},
{
closed = 1;
nodes = (
(146,175,o),
(79,232,o),
(79,314,cs),
(79,322,ls),
(79,400,o),
(146,455,o),
(243,455,cs),
(338,455,o),
(406,402,o),
(406,325,cs),
(406,314,ls),
(406,232,o),
(338,175,o),
(243,175,cs)
);
}
);
width = 479;
}
);
unicode = 103;
},
{
glyphname = h;
kernLeft = h;
kernRight = n;
lastChange = "2024-06-28 09:22:26 +0000";
layers = (
{
anchors = (
{
name = center;
pos = (148,600);
},
{
name = top;
pos = (124,700);
}
);
hints = (
{
horizontal = 1;
origin = (0,13);
target = (0,4);
type = Stem;
},
{
origin = (0,20);
target = (0,0);
type = Stem;
},
{
origin = (0,8);
target = (0,9);
type = Stem;
},
{
horizontal = 1;
origin = (0,8);
target = up;
type = BottomGhost;
}
);
layerId = "D56600E4-3CB1-46B6-994E-4E22114E2E10";
shapes = (
{
closed = 1;
nodes = (
(208,0,l),
(208,268,ls),
(208,332,o),
(244,367,o),
(294,367,cs),
(340,367,o),
(369,338,o),
(369,272,cs),
(369,0,l),
(519,0,l),
(519,297,ls),
(519,425,o),
(448,503,o),
(338,503,cs),
(281,503,o),
(189,480,o),
(163,355,c),
(203,355,l),
(203,730,l),
(58,730,l),
(58,0,l)
);
}
);
width = 572;
},
{
anchors = (
{
name = center;
pos = (122,600);
},
{
name = top;
pos = (102,700);
}
);
layerId = "FF94DDBB-E62A-4F15-93F9-F4255DC66883";
shapes = (
{
closed = 1;
nodes = (
(117,0,l),
(117,271,ls),
(117,392,o),
(197,454,o),
(289,454,cs),
(378,454,o),
(446,401,o),
(446,270,cs),
(446,0,l),
(475,0,l),
(475,272,ls),
(475,418,o),
(398,482,o),
(292,482,cs),
(225,482,o),
(138,446,o),
(107,348,c),
(115,348,l),
(115,730,l),
(88,730,l),
(88,0,l)
);
}
);
width = 555;
}
);
unicode = 104;
},
{
glyphname = idotless;
kernLeft = i;
kernRight = i;
lastChange = "2024-06-28 09:22:26 +0000";
layers = (
{
anchors = (
{
name = ogonek;
pos = (254,0);
},
{
name = top;
pos = (180,493);
}
);
hints = (
{
horizontal = 1;
origin = (0,6);
target = up;
type = BottomGhost;
},
{
horizontal = 1;
origin = (0,2);
target = (0,4);
type = Stem;
},
{
origin = (0,6);
target = (0,1);
type = Stem;
}
);
layerId = "D56600E4-3CB1-46B6-994E-4E22114E2E10";
shapes = (
{
closed = 1;
nodes = (
(254,0,l),
(254,493,l),
(21,493,l),
(21,367,l),
(171,367,l),
(104,434,l),
(104,0,l)
);
}
);
width = 312;
},
{
anchors = (
{
name = ogonek;
pos = (149,0);
},
{
name = top;
pos = (134,472);
}
);
layerId = "FF94DDBB-E62A-4F15-93F9-F4255DC66883";
shapes = (
{
closed = 1;
nodes = (
(149,0,l),
(149,472,l),
(19,472,l),
(19,444,l),
(133,444,l),
(120,457,l),
(120,0,l)
);
}
);
width = 236;
}
);
unicode = 305;
},
{
glyphname = jdotless;
kernLeft = i;
kernRight = i;
lastChange = "2024-06-28 09:22:26 +0000";
layers = (
{
anchors = (
{
name = top;
pos = (183,493);
}
);
hints = (
{
horizontal = 1;
origin = (0,14);
target = (0,13);
type = Stem;
},
{
horizontal = 1;
origin = (0,5);
target = (0,7);
type = Stem;
},
{
origin = (0,4);
target = (0,9);
type = Stem;
}
);
layerId = "D56600E4-3CB1-46B6-994E-4E22114E2E10";
shapes = (
{
closed = 1;
nodes = (
(64,-200,ls),
(181,-200,o),
(254,-136,o),
(254,-26,cs),
(254,493,l),
(21,493,l),
(21,367,l),
(171,367,l),
(104,434,l),
(104,-56,ls),
(104,-67,o),
(95,-76,o),
(84,-76,cs),
(21,-76,l),
(21,-200,l)
);
}
);
width = 312;
},
{
anchors = (
{
name = top;
pos = (134,472);
}
);
layerId = "FF94DDBB-E62A-4F15-93F9-F4255DC66883";
shapes = (
{
closed = 1;
nodes = (
(41,-200,ls),
(104,-200,o),
(149,-156,o),
(149,-93,cs),
(149,472,l),
(19,472,l),
(19,444,l),
(133,444,l),
(120,457,l),
(120,-95,ls),
(120,-140,o),
(87,-173,o),
(42,-173,cs),
(-5,-173,l),
(-5,-200,l)
);
}
);
width = 236;
}
);
unicode = 567;
},
{
glyphname = k;
kernLeft = h;
kernRight = k;
lastChange = "2024-06-28 09:22:26 +0000";
layers = (
{
anchors = (
{
name = bottom;
pos = (286,0);
}
);
hints = (
{
horizontal = 1;
origin = (2,3);
target = up;
type = BottomGhost;
},
{
horizontal = 1;
origin = (0,1);
target = down;
type = TopGhost;
},
{
horizontal = 1;
origin = (1,2);
target = down;
type = TopGhost;
},
{
origin = (1,3);
target = (1,1);
type = Stem;
}
);
layerId = "D56600E4-3CB1-46B6-994E-4E22114E2E10";
shapes = (
{
closed = 1;
nodes = (
(537,493,l),
(353,493,l),
(131,241,l),
(141,51,l)
);
},
{
closed = 1;
nodes = (
(208,0,l),
(208,730,l),
(58,730,l),
(58,0,l)
);
},
{
closed = 1;
nodes = (
(539,0,l),
(328,362,l),
(212,262,l),
(355,0,l)
);
}
);
width = 540;
},
{
anchors = (
{
name = bottom;
pos = (249,0);
}
);
layerId = "FF94DDBB-E62A-4F15-93F9-F4255DC66883";
shapes = (
{
closed = 1;
nodes = (
(434,472,l),
(397,472,l),
(99,182,l),
(101,148,l)
);
},
{
closed = 1;
nodes = (
(117,0,l),
(117,730,l),
(88,730,l),
(88,0,l)
);
},
{
closed = 1;
nodes = (
(459,0,l),
(232,293,l),
(212,273,l),
(422,0,l)
);
}
);
width = 468;
}
);
unicode = 107;
},
{
glyphname = l;
kernLeft = l;
kernRight = l;
lastChange = "2024-06-28 09:22:26 +0000";
layers = (
{
anchors = (
{
name = bottom;
pos = (184,0);
},
{
name = center;
pos = (141,365);
},
{
name = top;
pos = (134,730);
},
{
name = topright;
pos = (269,730);
}
);
hints = (
{
horizontal = 1;
origin = (0,14);
target = (0,2);
type = Stem;
},
{
horizontal = 1;
origin = (0,7);
target = (0,9);
type = Stem;
},
{
origin = (0,6);
target = (0,11);
type = Stem;
}
);
layerId = "D56600E4-3CB1-46B6-994E-4E22114E2E10";
shapes = (
{
closed = 1;
nodes = (
(285,0,l),
(285,124,l),
(228,124,ls),
(217,124,o),
(208,133,o),
(208,144,cs),
(208,730,l),
(-15,730,l),
(-15,604,l),
(125,604,l),
(58,671,l),
(58,147,ls),
(58,54,o),
(120,0,o),
(219,0,cs)
);
}
);
width = 311;
},
{
anchors = (
{
name = bottom;
pos = (160,0);
},
{
name = center;
pos = (106,365);
},
{
name = top;
pos = (100,730);
},
{
name = topright;
pos = (221,730);
}
);
layerId = "FF94DDBB-E62A-4F15-93F9-F4255DC66883";
shapes = (
{
closed = 1;
nodes = (
(230,0,l),
(230,27,l),
(193,27,ls),
(148,27,o),
(115,60,o),
(115,105,cs),
(115,730,l),
(-14,730,l),
(-14,703,l),
(99,703,l),
(86,716,l),
(86,105,ls),
(86,44,o),
(130,0,o),
(192,0,cs)
);
}
);
width = 248;
}
);
unicode = 108;
},
{
glyphname = m;
kernLeft = n;
kernRight = n;
lastChange = "2024-06-28 09:22:26 +0000";
layers = (
{
hints = (
{
origin = (0,36);
target = (0,0);
type = Stem;
},
{
origin = (0,8);
target = (0,9);
type = Stem;
},
{
origin = (0,17);
target = (0,18);
type = Stem;
},
{
horizontal = 1;
origin = (0,22);
target = (0,13);
type = Stem;
},
{
horizontal = 1;
origin = (0,8);
target = up;
type = BottomGhost;
}
);
layerId = "D56600E4-3CB1-46B6-994E-4E22114E2E10";
shapes = (
{
closed = 1;
nodes = (
(207,0,l),
(207,282,ls),
(207,334,o),
(239,367,o),
(285,367,cs),
(328,367,o),
(355,340,o),
(355,282,cs),
(355,0,l),
(505,0,l),
(505,282,ls),
(505,334,o),
(536,367,o),
(581,367,cs),
(625,367,o),
(653,340,o),
(653,282,cs),
(653,0,l),
(802,0,l),
(802,305,ls),
(802,433,o),
(726,503,o),
(621,503,cs),
(569,503,o),
(474,484,o),
(434,378,c),
(493,378,l),
(472,460,o),
(413,503,o),
(334,503,cs),
(270,503,o),
(187,476,o),
(161,354,c),
(202,354,l),
(202,493,l),
(58,493,l),
(58,0,l)
);
}
);
width = 855;
},
{
layerId = "FF94DDBB-E62A-4F15-93F9-F4255DC66883";
shapes = (
{
closed = 1;
nodes = (
(116,0,l),
(116,272,ls),
(116,392,o),
(188,454,o),
(279,454,cs),
(368,454,o),
(428,401,o),
(428,271,cs),
(428,0,l),
(456,0,l),
(456,272,ls),
(456,392,o),
(528,454,o),
(619,454,cs),
(708,454,o),
(768,401,o),
(768,271,cs),
(768,0,l),
(795,0,l),
(795,272,ls),
(795,418,o),
(727,482,o),
(622,482,cs),
(553,482,o),
(473,445,o),
(443,343,c),
(451,343,l),
(431,439,o),
(369,482,o),
(283,482,cs),
(217,482,o),
(142,448,o),
(110,357,c),
(115,355,l),
(115,472,l),
(88,472,l),
(88,0,l)
);
}
);
width = 876;
}
);
unicode = 109;
},
{
glyphname = n;
kernLeft = n;
kernRight = n;
lastChange = "2024-06-28 09:22:26 +0000";
layers = (
{
anchors = (
{
name = bottom;
pos = (287,0);
},
{
name = top;
pos = (290,493);
}
);
hints = (
{
horizontal = 1;
origin = (0,8);
target = up;
type = BottomGhost;
},
{
origin = (0,20);
target = (0,0);
type = Stem;
},
{
origin = (0,8);
target = (0,9);
type = Stem;
},
{
horizontal = 1;
origin = (0,13);
target = (0,4);
type = Stem;
}
);
layerId = "D56600E4-3CB1-46B6-994E-4E22114E2E10";
shapes = (
{
closed = 1;
nodes = (
(208,0,l),
(208,268,ls),
(208,332,o),
(244,367,o),
(294,367,cs),
(340,367,o),
(369,338,o),
(369,272,cs),
(369,0,l),
(519,0,l),
(519,297,ls),
(519,425,o),
(448,503,o),
(338,503,cs),
(281,503,o),
(189,480,o),
(163,355,c),
(203,355,l),
(203,493,l),
(58,493,l),
(58,0,l)
);
}
);
width = 572;
},
{
anchors = (
{
name = bottom;
pos = (280,0);
},
{
name = top;
pos = (280,472);
}
);
layerId = "FF94DDBB-E62A-4F15-93F9-F4255DC66883";
shapes = (
{
closed = 1;
nodes = (
(117,0,l),
(117,271,ls),
(117,392,o),
(197,454,o),
(289,454,cs),
(378,454,o),
(446,401,o),
(446,270,cs),
(446,0,l),
(475,0,l),
(475,272,ls),
(475,418,o),
(398,482,o),
(292,482,cs),
(225,482,o),
(138,446,o),
(107,348,c),
(115,348,l),
(115,472,l),
(88,472,l),
(88,0,l)
);
}
);
width = 555;
}
);
unicode = 110;
},
{
glyphname = eng;
kernLeft = n;
kernRight = n;
lastChange = "2024-06-28 09:22:26 +0000";
layers = (
{
hints = (
{
origin = (0,14);
target = (0,15);
type = Stem;
},
{
origin = (0,22);
target = (0,4);
type = Stem;
},
{
horizontal = 1;
origin = (0,7);
target = (0,19);
type = Stem;
},
{
horizontal = 1;
origin = (0,28);
target = (0,27);
type = Stem;
}
);
layerId = "D56600E4-3CB1-46B6-994E-4E22114E2E10";
shapes = (
{
closed = 1;
nodes = (
(329,-200,ls),
(446,-200,o),
(519,-136,o),
(519,-26,cs),
(519,297,ls),
(519,425,o),
(448,503,o),
(338,503,cs),
(281,503,o),
(189,480,o),
(163,355,c),
(203,355,l),
(203,493,l),
(58,493,l),
(58,0,l),
(208,0,l),
(208,268,ls),
(208,332,o),
(244,367,o),
(294,367,cs),
(340,367,o),
(369,338,o),
(369,272,cs),
(369,-56,ls),
(369,-67,o),
(360,-76,o),
(349,-76,cs),
(286,-76,l),
(286,-200,l)
);
}
);
width = 572;
},
{
layerId = "FF94DDBB-E62A-4F15-93F9-F4255DC66883";
shapes = (
{
closed = 1;
nodes = (
(367,-200,ls),
(430,-200,o),
(475,-156,o),
(475,-93,cs),
(475,272,ls),
(475,418,o),
(398,482,o),
(292,482,cs),
(225,482,o),
(138,446,o),
(107,348,c),
(115,348,l),
(115,472,l),
(88,472,l),
(88,0,l),
(117,0,l),
(117,271,ls),
(117,392,o),
(197,454,o),
(289,454,cs),
(378,454,o),
(446,401,o),
(446,270,cs),
(446,-95,ls),
(446,-140,o),
(413,-173,o),
(369,-173,cs),
(321,-173,l),
(321,-200,l)
);
}
);
width = 555;
}
);
unicode = 331;
},
{
glyphname = o;
kernLeft = o;
kernRight = o;
lastChange = "2024-06-28 09:22:26 +0000";
layers = (
{
anchors = (
{
name = center;
pos = (291,247);
},
{
name = top;
pos = (291,493);
}
);
hints = (
{
horizontal = 1;
origin = (0,13);
target = (1,13);
type = Stem;
},
{
horizontal = 1;
origin = (0,6);
target = (1,6);
type = Stem;
},
{
origin = (0,10);
target = (1,3);
type = Stem;
},
{
origin = (1,10);
target = (0,3);
type = Stem;
}
);
layerId = "D56600E4-3CB1-46B6-994E-4E22114E2E10";
shapes = (
{
closed = 1;
nodes = (
(439,-10,o),
(553,94,o),
(553,242,cs),
(553,252,ls),
(553,399,o),
(439,503,o),
(292,503,cs),
(144,503,o),
(30,399,o),
(30,252,cs),
(30,242,ls),
(30,94,o),
(144,-10,o),
(292,-10,cs)
);
},
{
closed = 1;
nodes = (
(226,121,o),
(180,171,o),
(180,242,cs),
(180,252,ls),
(180,322,o),
(226,372,o),
(292,372,cs),
(358,372,o),
(404,322,o),
(404,252,cs),
(404,242,ls),
(404,171,o),
(358,121,o),
(292,121,cs)
);
}
);
width = 583;
},
{
anchors = (
{
name = center;
pos = (275,236);
},
{
name = top;
pos = (275,472);
}
);
layerId = "FF94DDBB-E62A-4F15-93F9-F4255DC66883";
shapes = (
{
closed = 1;
nodes = (
(405,-10,o),
(497,91,o),
(497,235,cs),
(497,246,ls),
(497,384,o),
(405,482,o),
(275,482,cs),
(145,482,o),
(52,383,o),
(52,243,cs),
(52,235,ls),
(52,91,o),
(145,-10,o),
(275,-10,cs)
);
},
{
closed = 1;
nodes = (
(162,17,o),
(81,107,o),
(81,235,cs),
(81,243,ls),
(81,367,o),
(162,454,o),
(275,454,cs),
(389,454,o),
(468,369,o),
(468,246,cs),
(468,235,ls),
(468,107,o),
(389,17,o),
(275,17,cs)
);
}
);
width = 549;
}
);
unicode = 111;
},
{
glyphname = oe;
kernLeft = o;
kernRight = e;
lastChange = "2024-06-28 09:22:26 +0000";
layers = (
{
anchors = (
{
name = bottom;
pos = (460,0);
},
{
name = top;
pos = (460,493);
}
);
hints = (
{
horizontal = 1;
origin = (0,26);
target = (0,25);
type = Stem;
},
{
origin = (0,40);
target = (1,3);
type = Stem;
},
{
origin = (1,9);
place = (391,150);
type = Stem;
},
{
origin = (0,23);
place = (703,150);
type = Stem;
},
{
horizontal = 1;
origin = (0,37);
target = (1,6);
type = Stem;
},
{
horizontal = 1;
origin = (0,44);
target = (1,13);
type = Stem;
}
);
layerId = "D56600E4-3CB1-46B6-994E-4E22114E2E10";
shapes = (
{
closed = 1;
nodes = (
(381,-10,o),
(452,31,o),
(491,100,c),
(437,100,l),
(473,30,o),
(546,-10,o),
(643,-10,cs),
(723,-10,o),
(791,14,o),
(833,71,c),
(748,158,l),
(720,129,o),
(697,115,o),
(651,115,cs),
(578,115,o),
(542,158,o),
(542,223,cs),
(542,253,ls),
(542,328,o),
(567,387,o),
(632,387,cs),
(691,387,o),
(729,330,o),
(703,231,c),
(778,297,l),
(502,297,l),
(502,200,l),
(853,200,l),
(877,384,o),
(785,503,o),
(631,503,cs),
(545,503,o),
(473,465,o),
(435,395,c),
(483,395,l),
(446,463,o),
(376,503,o),
(286,503,cs),
(140,503,o),
(30,399,o),
(30,252,cs),
(30,242,ls),
(30,94,o),
(140,-10,o),
(286,-10,cs)
);
},
{
closed = 1;
nodes = (
(222,121,o),
(180,171,o),
(180,242,cs),
(180,252,ls),
(180,322,o),
(222,372,o),
(286,372,cs),
(351,372,o),
(391,322,o),
(391,252,cs),
(391,242,ls),
(391,171,o),
(351,121,o),
(286,121,cs)
);
}
);
width = 886;
},
{
anchors = (
{
name = bottom;
pos = (468,0);
},
{
name = top;
pos = (471,472);
}
);
layerId = "FF94DDBB-E62A-4F15-93F9-F4255DC66883";
shapes = (
{
closed = 1;
nodes = (
(376,-10,o),
(453,57,o),
(478,160,c),
(472,160,l),
(499,56,o),
(584,-10,o),
(691,-10,cs),
(751,-10,o),
(807,10,o),
(839,38,c),
(822,60,l),
(793,35,o),
(744,18,o),
(691,18,cs),
(572,18,o),
(490,106,o),
(490,233,cs),
(490,245,ls),
(490,368,o),
(563,454,o),
(672,454,cs),
(774,454,o),
(841,372,o),
(831,250,c),
(844,261,l),
(482,261,l),
(482,235,l),
(859,235,l),
(874,380,o),
(796,482,o),
(672,482,cs),
(570,482,o),
(496,416,o),
(471,319,c),
(477,319,l),
(452,418,o),
(375,482,o),
(272,482,cs),
(144,482,o),
(52,383,o),
(52,243,cs),
(52,235,ls),
(52,91,o),
(144,-10,o),
(272,-10,cs)
);
},
{
closed = 1;
nodes = (
(160,17,o),
(81,107,o),
(81,235,cs),
(81,243,ls),
(81,367,o),
(160,454,o),
(272,454,cs),
(385,454,o),
(460,369,o),
(460,246,cs),
(460,235,ls),
(460,107,o),
(385,17,o),
(272,17,cs)
);
}
);
width = 907;
},
{
anchors = (
{
name = bottom;
pos = (465,0);
},
{
name = top;
pos = (466,481);
}
);
associatedMasterId = "FF94DDBB-E62A-4F15-93F9-F4255DC66883";
attr = {
coordinates = (
400
);
};
layerId = "AADB521E-C581-48D6-A302-06C05CA48B81";
name = "19 Jun 24 at 17:40";
shapes = (
{
closed = 1;
nodes = (
(377,-10,o),
(450,46,o),
(481,134,c),
(460,134,l),
(490,45,o),
(569,-10,o),
(670,-10,cs),
(739,-10,o),
(800,12,o),
(836,52,c),
(790,102,l),
(762,75,o),
(724,64,o),
(674,64,cs),
(575,64,o),
(512,128,o),
(512,229,cs),
(512,248,ls),
(512,351,o),
(565,421,o),
(655,421,cs),
(739,421,o),
(793,354,o),
(776,242,c),
(816,282,l),
(491,282,l),
(491,216,l),
(856,216,l),
(876,382,o),
(792,491,o),
(655,491,cs),
(561,491,o),
(489,437,o),
(459,352,c),
(480,352,l),
(449,437,o),
(376,491,o),
(278,491,cs),
(142,491,o),
(43,390,o),
(43,247,cs),
(43,238,ls),
(43,92,o),
(142,-10,o),
(278,-10,cs)
);
},
{
closed = 1;
nodes = (
(187,62,o),
(124,134,o),
(124,238,cs),
(124,247,ls),
(124,348,o),
(187,419,o),
(278,419,cs),
(370,419,o),
(431,349,o),
(431,249,cs),
(431,238,ls),
(431,134,o),
(370,62,o),
(278,62,cs)
);
}
);
width = 898;
}
);
unicode = 339;
},
{
glyphname = p;
kernLeft = n;
kernRight = b;
lastChange = "2024-06-28 09:22:26 +0000";
layers = (
{
anchors = (
{
name = top;
pos = (310,493);
}
);
hints = (
{
horizontal = 1;
origin = (0,19);
target = up;
type = BottomGhost;
},
{
horizontal = 1;
origin = (0,5);
target = (1,12);
type = Stem;
},
{
horizontal = 1;
origin = (0,12);
target = (1,5);
type = Stem;
},
{
origin = (0,19);
target = (0,1);
type = Stem;
},
{
origin = (1,9);
target = (0,9);
type = Stem;
}
);
layerId = "D56600E4-3CB1-46B6-994E-4E22114E2E10";
shapes = (
{
closed = 1;
nodes = (
(208,-200,l),
(208,101,l),
(176,65,l),
(216,18,o),
(272,-10,o),
(338,-10,cs),
(471,-10,o),
(572,89,o),
(572,241,cs),
(572,251,ls),
(572,401,o),
(468,503,o),
(337,503,cs),
(267,503,o),
(207,471,o),
(168,418,c),
(198,384,l),
(198,493,l),
(58,493,l),
(58,-200,l)
);
},
{
closed = 1;
nodes = (
(248,121,o),
(198,166,o),
(198,246,cs),
(198,327,o),
(248,372,o),
(313,372,cs),
(371,372,o),
(422,329,o),
(422,251,cs),
(422,241,ls),
(422,164,o),
(371,121,o),
(313,121,cs)
);
}
);
width = 603;
},
{
anchors = (
{
name = top;
pos = (302,472);
}
);
layerId = "FF94DDBB-E62A-4F15-93F9-F4255DC66883";
shapes = (
{
closed = 1;
nodes = (
(117,-200,l),
(117,140,l),
(113,135,l),
(144,47,o),
(218,-10,o),
(312,-10,cs),
(442,-10,o),
(531,91,o),
(531,235,cs),
(531,244,ls),
(531,383,o),
(442,482,o),
(312,482,cs),
(218,482,o),
(144,424,o),
(112,336,c),
(116,331,l),
(116,472,l),
(88,472,l),
(88,-200,l)
);
},
{
closed = 1;
nodes = (
(198,17,o),
(116,107,o),
(116,236,cs),
(116,364,o),
(198,454,o),
(310,454,cs),
(424,454,o),
(502,367,o),
(502,244,cs),
(502,235,ls),
(502,107,o),
(424,17,o),
(310,17,cs)
);
}
);
width = 583;
}
);
unicode = 112;
},
{
glyphname = thorn;
kernLeft = h;
kernRight = b;
lastChange = "2024-06-28 09:22:26 +0000";
layers = (
{
hints = (
{
horizontal = 1;
origin = (0,19);
target = up;
type = BottomGhost;
},
{
horizontal = 1;
origin = (0,5);
target = (1,12);
type = Stem;
},
{
horizontal = 1;
origin = (0,12);
target = (1,5);
type = Stem;
},
{
horizontal = 1;
origin = (0,18);
target = down;
type = TopGhost;
},
{
origin = (0,19);
target = (1,2);
type = Stem;
},
{
origin = (1,9);
target = (0,9);
type = Stem;
}
);
layerId = "D56600E4-3CB1-46B6-994E-4E22114E2E10";
shapes = (
{
closed = 1;
nodes = (
(208,-200,l),
(208,110,l),
(178,77,l),
(217,22,o),
(277,-10,o),
(348,-10,cs),
(481,-10,o),
(582,89,o),
(582,241,cs),
(582,251,ls),
(582,401,o),
(478,503,o),
(347,503,cs),
(277,503,o),
(217,471,o),
(178,418,c),
(208,384,l),
(208,730,l),
(58,730,l),
(58,-200,l)
);
},
{
closed = 1;
nodes = (
(258,121,o),
(208,166,o),
(208,246,cs),
(208,327,o),
(258,372,o),
(323,372,cs),
(381,372,o),
(432,329,o),
(432,251,cs),
(432,241,ls),
(432,164,o),
(381,121,o),
(323,121,cs)
);
}
);
width = 613;
},
{
layerId = "FF94DDBB-E62A-4F15-93F9-F4255DC66883";
shapes = (
{
closed = 1;
nodes = (
(117,-200,l),
(117,141,l),
(113,136,l),
(144,47,o),
(218,-10,o),
(313,-10,cs),
(443,-10,o),
(532,91,o),
(532,235,cs),
(532,244,ls),
(532,383,o),
(443,482,o),
(312,482,cs),
(218,482,o),
(144,424,o),
(113,336,c),
(117,331,l),
(117,730,l),
(88,730,l),
(88,-200,l)
);
},
{
closed = 1;
nodes = (
(198,17,o),
(117,107,o),
(117,236,cs),
(117,364,o),
(198,454,o),
(311,454,cs),
(425,454,o),
(503,367,o),
(503,244,cs),
(503,235,ls),
(503,107,o),
(425,17,o),
(311,17,cs)
);
}
);
width = 584;
}
);
unicode = 254;
},
{
glyphname = q;
kernLeft = d;
kernRight = u;
lastChange = "2024-06-28 09:22:26 +0000";
layers = (
{
hints = (
{
horizontal = 1;
origin = (0,19);
target = up;
type = BottomGhost;
},
{
horizontal = 1;
origin = (0,14);
target = (1,12);
type = Stem;
},
{
horizontal = 1;
origin = (0,7);
target = (1,6);
type = Stem;
},
{
origin = (0,11);
target = (1,3);
type = Stem;
},
{
origin = (0,19);
target = (0,1);
type = Stem;
}
);
layerId = "D56600E4-3CB1-46B6-994E-4E22114E2E10";
shapes = (
{
closed = 1;
nodes = (
(545,-200,l),
(545,493,l),
(406,493,l),
(406,383,l),
(436,416,l),
(397,471,o),
(337,503,o),
(266,503,cs),
(135,503,o),
(31,401,o),
(31,251,cs),
(31,241,ls),
(31,89,o),
(132,-10,o),
(265,-10,cs),
(331,-10,o),
(387,18,o),
(427,65,c),
(395,101,l),
(395,-200,l)
);
},
{
closed = 1;
nodes = (
(232,121,o),
(181,164,o),
(181,241,cs),
(181,251,ls),
(181,329,o),
(232,372,o),
(290,372,cs),
(355,372,o),
(405,327,o),
(405,246,cs),
(405,166,o),
(355,121,o),
(290,121,cs)
);
}
);
width = 603;
},
{
layerId = "FF94DDBB-E62A-4F15-93F9-F4255DC66883";
shapes = (
{
closed = 1;
nodes = (
(496,-200,l),
(496,472,l),
(468,472,l),
(468,331,l),
(471,336,l),
(440,424,o),
(366,482,o),
(272,482,cs),
(142,482,o),
(52,383,o),
(52,244,cs),
(52,235,ls),
(52,91,o),
(141,-10,o),
(272,-10,cs),
(366,-10,o),
(439,47,o),
(471,135,c),
(467,140,l),
(467,-200,l)
);
},
{
closed = 1;
nodes = (
(159,17,o),
(81,107,o),
(81,235,cs),
(81,244,ls),
(81,367,o),
(159,454,o),
(273,454,cs),
(386,454,o),
(468,364,o),
(468,236,cs),
(468,107,o),
(386,17,o),
(273,17,cs)
);
}
);
width = 582;
}
);
unicode = 113;
},
{
glyphname = r;
kernLeft = n;
kernRight = r;
lastChange = "2024-06-28 09:22:26 +0000";
layers = (
{
anchors = (
{
name = bottom;
pos = (134,0);
},
{
name = top;
pos = (224,493);
}
);
hints = (
{
horizontal = 1;
origin = (0,14);
target = up;
type = BottomGhost;
},
{
horizontal = 1;
origin = (0,7);
target = (0,5);
type = Stem;
},
{
origin = (0,14);
target = (0,1);
type = Stem;
}
);
layerId = "D56600E4-3CB1-46B6-994E-4E22114E2E10";
shapes = (
{
closed = 1;
nodes = (
(208,0,l),
(208,265,ls),
(208,318,o),
(247,350,o),
(319,350,cs),
(370,350,l),
(370,498,l),
(332,498,ls),
(250,498,o),
(185,460,o),
(185,334,c),
(203,334,l),
(203,493,l),
(58,493,l),
(58,0,l)
);
}
);
width = 387;
},
{
anchors = (
{
name = bottom;
pos = (102,0);
},
{
name = top;
pos = (189,472);
}
);
layerId = "FF94DDBB-E62A-4F15-93F9-F4255DC66883";
shapes = (
{
closed = 1;
nodes = (
(117,0,l),
(117,300,ls),
(117,401,o),
(168,443,o),
(251,443,cs),
(295,443,l),
(295,472,l),
(252,472,ls),
(188,472,o),
(133,453,o),
(110,378,c),
(116,376,l),
(116,472,l),
(88,472,l),
(88,0,l)
);
}
);
width = 318;
}
);
unicode = 114;
},
{
glyphname = s;
kernLeft = s;
kernRight = s;
lastChange = "2024-06-28 09:22:26 +0000";
layers = (
{
anchors = (
{
name = bottom;
pos = (229,0);
},
{
name = top;
pos = (237,493);
}
);
hints = (
{
horizontal = 1;
origin = (0,31);
target = (0,24);
type = Stem;
},
{
horizontal = 1;
origin = (0,15);
target = (0,8);
type = Stem;
},
{
origin = (0,18);
target = (0,5);
type = Stem;
},
{
origin = (0,21);
target = (0,2);
type = Stem;
}
);
layerId = "D56600E4-3CB1-46B6-994E-4E22114E2E10";
shapes = (
{
closed = 1;
nodes = (
(339,-8,o),
(426,58,o),
(426,152,cs),
(426,338,o),
(185,287,o),
(185,355,cs),
(185,376,o),
(206,390,o),
(241,390,cs),
(279,390,o),
(319,378,o),
(357,355,c),
(421,455,l),
(373,485,o),
(310,503,o),
(243,503,cs),
(118,503,o),
(42,436,o),
(42,342,cs),
(42,155,o),
(276,212,o),
(276,142,cs),
(276,121,o),
(253,107,o),
(217,107,cs),
(170,107,o),
(125,126,o),
(83,152,c),
(20,51,l),
(65,19,o),
(133,-8,o),
(217,-8,cs)
);
}
);
width = 456;
},
{
anchors = (
{
name = bottom;
pos = (198,0);
},
{
name = top;
pos = (207,472);
}
);
layerId = "FF94DDBB-E62A-4F15-93F9-F4255DC66883";
shapes = (
{
closed = 1;
nodes = (
(296,-10,o),
(362,43,o),
(362,119,cs),
(362,294,o),
(85,207,o),
(85,352,cs),
(85,412,o),
(138,455,o),
(213,455,cs),
(263,455,o),
(306,437,o),
(337,410,c),
(353,432,l),
(318,461,o),
(269,482,o),
(213,482,cs),
(121,482,o),
(57,428,o),
(57,350,cs),
(57,177,o),
(333,267,o),
(333,119,cs),
(333,58,o),
(279,16,o),
(202,16,cs),
(148,16,o),
(90,37,o),
(58,71,c),
(42,49,l),
(77,12,o),
(141,-10,o),
(202,-10,cs)
);
}
);
width = 409;
}
);
unicode = 115;
},
{
glyphname = germandbls;
kernLeft = h;
lastChange = "2024-06-28 09:22:26 +0000";
layers = (
{
hints = (
{
horizontal = 1;
origin = (0,38);
target = (0,36);
type = Stem;
},
{
horizontal = 1;
origin = (0,12);
target = (0,21);
type = Stem;
},
{
origin = (0,16);
target = (0,18);
type = Stem;
},
{
origin = (0,32);
target = (0,2);
type = Stem;
}
);
layerId = "D56600E4-3CB1-46B6-994E-4E22114E2E10";
shapes = (
{
closed = 1;
nodes = (
(491,0,o),
(588,69,o),
(588,195,cs),
(588,320,o),
(515,392,o),
(359,392,c),
(359,344,l),
(499,344,o),
(556,424,o),
(556,532,cs),
(556,658,o),
(461,740,o),
(317,740,cs),
(152,740,o),
(58,638,o),
(58,472,cs),
(58,0,l),
(208,0,l),
(208,484,ls),
(208,565,o),
(247,610,o),
(318,610,cs),
(375,610,o),
(408,579,o),
(408,524,cs),
(408,475,o),
(369,441,o),
(298,431,c),
(298,307,l),
(341,307,ls),
(398,307,o),
(438,272,o),
(438,221,cs),
(438,168,o),
(408,133,o),
(334,133,cs),
(268,133,l),
(268,0,l),
(356,0,ls)
);
}
);
width = 618;
},
{
layerId = "FF94DDBB-E62A-4F15-93F9-F4255DC66883";
shapes = (
{
closed = 1;
nodes = (
(454,0,o),
(529,72,o),
(529,177,cs),
(529,293,o),
(455,360,o),
(317,360,c),
(317,347,l),
(423,347,o),
(496,420,o),
(496,531,cs),
(496,642,o),
(421,712,o),
(302,712,cs),
(170,712,o),
(88,624,o),
(88,483,cs),
(88,0,l),
(117,0,l),
(117,484,ls),
(117,608,o),
(188,685,o),
(302,685,cs),
(404,685,o),
(468,626,o),
(468,531,cs),
(468,430,o),
(399,366,o),
(303,366,c),
(303,339,l),
(326,339,ls),
(439,339,o),
(501,276,o),
(501,179,cs),
(501,90,o),
(437,28,o),
(333,28,cs),
(260,28,l),
(260,0,l),
(335,0,ls)
);
}
);
width = 580;
}
);
unicode = 223;
},
{
glyphname = t;
kernLeft = t;
kernRight = t;
lastChange = "2024-06-28 09:22:26 +0000";
layers = (
{
anchors = (
{
name = bottom;
pos = (238,0);
},
{
name = center;
pos = (184,259);
},
{
name = top;
pos = (172,612);
},
{
name = topright;
pos = (306,730);
}
);
hints = (
{
horizontal = 1;
origin = (0,11);
target = (0,2);
type = Stem;
},
{
horizontal = 1;
origin = (1,2);
target = (1,3);
type = Stem;
},
{
origin = (0,8);
target = (0,6);
type = Stem;
}
);
layerId = "D56600E4-3CB1-46B6-994E-4E22114E2E10";
shapes = (
{
closed = 1;
nodes = (
(348,0,l),
(348,126,l),
(267,126,ls),
(256,126,o),
(247,135,o),
(247,146,cs),
(247,612,l),
(97,612,l),
(97,158,ls),
(97,25,o),
(191,0,o),
(265,0,cs)
);
},
{
closed = 1;
nodes = (
(348,367,l),
(348,493,l),
(20,493,l),
(20,367,l)
);
}
);
width = 384;
},
{
anchors = (
{
name = bottom;
pos = (189,19);
},
{
name = center;
pos = (144,293);
},
{
name = top;
pos = (128,591);
},
{
name = topright;
pos = (236,702);
}
);
layerId = "FF94DDBB-E62A-4F15-93F9-F4255DC66883";
shapes = (
{
closed = 1;
nodes = (
(287,0,l),
(287,27,l),
(220,27,ls),
(176,27,o),
(142,60,o),
(142,105,cs),
(142,591,l),
(114,591,l),
(114,106,ls),
(114,42,o),
(160,0,o),
(220,0,cs)
);
},
{
closed = 1;
nodes = (
(287,444,l),
(287,472,l),
(19,472,l),
(19,444,l)
);
}
);
width = 318;
}
);
unicode = 116;
},
{
glyphname = u;
kernLeft = u;
kernRight = u;
lastChange = "2024-06-28 09:22:26 +0000";
layers = (
{
anchors = (
{
name = ogonek;
pos = (510,0);
},
{
name = top;
pos = (281,493);
}
);
hints = (
{
horizontal = 1;
origin = (0,20);
target = (0,11);
type = Stem;
},
{
horizontal = 1;
origin = (0,16);
target = down;
type = TopGhost;
},
{
horizontal = 1;
origin = (0,5);
target = up;
type = BottomGhost;
},
{
origin = (0,15);
target = (0,17);
type = Stem;
},
{
origin = (0,6);
target = (0,8);
type = Stem;
}
);
layerId = "D56600E4-3CB1-46B6-994E-4E22114E2E10";
shapes = (
{
closed = 1;
nodes = (
(300,-10,o),
(396,12,o),
(423,138,c),
(381,138,l),
(381,0,l),
(510,0,l),
(510,493,l),
(360,493,l),
(360,220,ls),
(360,156,o),
(327,126,o),
(278,126,cs),
(233,126,o),
(203,150,o),
(203,216,cs),
(203,493,l),
(53,493,l),
(53,186,ls),
(53,58,o),
(134,-10,o),
(243,-10,cs)
);
}
);
width = 568;
},
{
anchors = (
{
name = ogonek;
pos = (462,0);
},
{
name = top;
pos = (274,472);
}
);
layerId = "FF94DDBB-E62A-4F15-93F9-F4255DC66883";
shapes = (
{
closed = 1;
nodes = (
(330,-10,o),
(415,27,o),
(444,124,c),
(436,124,l),
(436,0,l),
(462,0,l),
(462,472,l),
(435,472,l),
(435,200,ls),
(435,79,o),
(354,18,o),
(264,18,cs),
(176,18,o),
(108,61,o),
(108,192,cs),
(108,472,l),
(80,472,l),
(80,190,ls),
(80,44,o),
(157,-10,o),
(262,-10,cs)
);
}
);
width = 550;
}
);
unicode = 117;
},
{
glyphname = v;
lastChange = "2024-06-28 09:22:26 +0000";
layers = (
{
hints = (
{
horizontal = 1;
origin = (0,7);
target = up;
type = BottomGhost;
},
{
horizontal = 1;
origin = (0,6);
target = down;
type = TopGhost;
}
);
layerId = "D56600E4-3CB1-46B6-994E-4E22114E2E10";
shapes = (
{
closed = 1;
nodes = (
(341,0,l),
(524,493,l),
(368,493,l),
(233,97,l),
(290,97,l),
(155,493,l),
(-1,493,l),
(183,0,l)
);
}
);
width = 524;
},
{
layerId = "FF94DDBB-E62A-4F15-93F9-F4255DC66883";
shapes = (
{
closed = 1;
nodes = (
(249,0,l),
(445,472,l),
(415,472,l),
(227,22,l),
(240,22,l),
(51,472,l),
(21,472,l),
(218,0,l)
);
}
);
width = 466;
}
);
unicode = 118;
},
{
glyphname = w;
kernLeft = w;
kernRight = w;
lastChange = "2024-06-28 09:22:26 +0000";
layers = (
{
anchors = (
{
name = top;
pos = (395,493);
}
);
hints = (
{
horizontal = 1;
origin = (0,15);
target = up;
type = BottomGhost;
},
{
horizontal = 1;
origin = (0,14);
target = down;
type = TopGhost;
}
);
layerId = "D56600E4-3CB1-46B6-994E-4E22114E2E10";
shapes = (
{
closed = 1;
nodes = (
(311,0,l),
(422,462,l),
(370,462,l),
(481,0,l),
(655,0,l),
(776,493,l),
(628,493,l),
(545,92,l),
(575,93,l),
(475,493,l),
(317,493,l),
(217,93,l),
(247,92,l),
(164,493,l),
(16,493,l),
(137,0,l)
);
}
);
width = 792;
},
{
anchors = (
{
name = top;
pos = (346,472);
}
);
layerId = "FF94DDBB-E62A-4F15-93F9-F4255DC66883";
shapes = (
{
closed = 1;
nodes = (
(210,0,l),
(350,452,l),
(341,452,l),
(482,0,l),
(513,0,l),
(664,472,l),
(635,472,l),
(494,26,l),
(500,25,l),
(361,472,l),
(331,472,l),
(192,23,l),
(198,24,l),
(58,472,l),
(28,472,l),
(179,0,l)
);
}
);
width = 692;
}
);
unicode = 119;
},
{
glyphname = x;
lastChange = "2024-06-28 09:22:26 +0000";
layers = (
{
hints = (
{
horizontal = 1;
origin = (0,11);
target = up;
type = BottomGhost;
},
{
horizontal = 1;
origin = (0,9);
target = down;
type = TopGhost;
}
);
layerId = "D56600E4-3CB1-46B6-994E-4E22114E2E10";
shapes = (
{
closed = 1;
nodes = (
(176,0,l),
(260,149,l),
(346,0,l),
(522,0,l),
(363,247,l),
(520,493,l),
(348,493,l),
(266,342,l),
(183,493,l),
(8,493,l),
(165,246,l),
(3,0,l)
);
}
);
width = 528;
},
{
layerId = "FF94DDBB-E62A-4F15-93F9-F4255DC66883";
shapes = (
{
closed = 1;
nodes = (
(60,0,l),
(220,216,l),
(379,0,l),
(416,0,l),
(239,235,l),
(411,472,l),
(377,472,l),
(220,253,l),
(64,472,l),
(29,472,l),
(201,235,l),
(24,0,l)
);
}
);
width = 440;
}
);
unicode = 120;
},
{
glyphname = y;
kernLeft = y;
kernRight = y;
lastChange = "2024-06-28 09:22:26 +0000";
layers = (
{
anchors = (
{
name = top;
pos = (277,493);
}
);
hints = (
{
horizontal = 1;
origin = (0,12);
target = (0,11);
type = Stem;
},
{
horizontal = 1;
origin = (1,2);
target = down;
type = TopGhost;
}
);
layerId = "D56600E4-3CB1-46B6-994E-4E22114E2E10";
shapes = (
{
closed = 1;
nodes = (
(144,-200,ls),
(261,-200,o),
(296,-129,o),
(319,-71,cs),
(539,493,l),
(372,493,l),
(259,123,l),
(169,-64,ls),
(166,-71,o),
(160,-74,o),
(153,-74,cs),
(35,-74,l),
(35,-200,l)
);
},
{
closed = 1;
nodes = (
(306,90,l),
(164,493,l),
(-3,493,l),
(217,-63,l)
);
}
);
width = 538;
},
{
anchors = (
{
name = top;
pos = (234,472);
}
);
layerId = "FF94DDBB-E62A-4F15-93F9-F4255DC66883";
shapes = (
{
closed = 1;
nodes = (
(95,-200,ls),
(157,-200,o),
(187,-148,o),
(208,-96,cs),
(446,472,l),
(415,472,l),
(229,24,l),
(178,-96,ls),
(161,-137,o),
(139,-173,o),
(95,-173,cs),
(16,-173,l),
(16,-200,l)
);
},
{
closed = 1;
nodes = (
(241,21,l),
(52,472,l),
(21,472,l),
(224,-13,l)
);
}
);
width = 467;
}
);
unicode = 121;
},
{
glyphname = z;
kernLeft = z;
kernRight = z;
lastChange = "2024-06-28 09:22:26 +0000";
layers = (
{
anchors = (
{
name = top;
pos = (238,493);
}
);
hints = (
{
horizontal = 1;
origin = (0,11);
target = (0,2);
type = Stem;
},
{
horizontal = 1;
origin = (0,6);
target = (0,8);
type = Stem;
}
);
layerId = "D56600E4-3CB1-46B6-994E-4E22114E2E10";
shapes = (
{
closed = 1;
nodes = (
(442,0,l),
(442,130,l),
(141,130,l),
(170,73,l),
(433,378,l),
(433,493,l),
(38,493,l),
(38,362,l),
(329,362,l),
(296,423,l),
(35,113,l),
(35,0,l)
);
}
);
width = 474;
},
{
anchors = (
{
name = top;
pos = (203,472);
}
);
layerId = "FF94DDBB-E62A-4F15-93F9-F4255DC66883";
shapes = (
{
closed = 1;
nodes = (
(371,0,l),
(371,27,l),
(61,27,l),
(65,20,l),
(370,445,l),
(370,472,l),
(40,472,l),
(40,444,l),
(346,444,l),
(341,452,l),
(37,26,l),
(37,0,l)
);
}
);
width = 410;
}
);
unicode = 122;
},
{
color = 0;
export = 0;
glyphname = g.topAccent;
lastChange = "2024-06-28 09:22:26 +0000";
layers = (
{
anchors = (
{
name = top;
pos = (258,493);
}
);
layerId = "D56600E4-3CB1-46B6-994E-4E22114E2E10";
shapes = (
{
closed = 1;
nodes = (
(350,-200,ls),
(437,-200,o),
(499,-138,o),
(499,-56,cs),
(499,44,o),
(440,86,o),
(357,86,cs),
(212,86,ls),
(209,86,o),
(207,88,o),
(209,92,cs),
(255,185,l),
(116,185,l),
(77,108,ls),
(42,40,o),
(65,-30,o),
(142,-30,cs),
(334,-30,ls),
(353,-30,o),
(359,-37,o),
(359,-54,cs),
(359,-70,o),
(353,-77,o),
(334,-77,cs),
(31,-77,l),
(31,-200,l)
);
},
{
closed = 1;
nodes = (
(387,127,o),
(480,203,o),
(480,312,cs),
(480,322,ls),
(480,428,o),
(387,503,o),
(255,503,cs),
(123,503,o),
(30,428,o),
(30,322,cs),
(30,312,ls),
(30,203,o),
(123,127,o),
(255,127,cs)
);
},
{
closed = 1;
nodes = (
(209,239,o),
(177,269,o),
(177,311,cs),
(177,315,ls),
(177,356,o),
(209,384,o),
(255,384,cs),
(301,384,o),
(333,356,o),
(333,315,cs),
(333,311,ls),
(333,269,o),
(301,239,o),
(255,239,cs)
);
}
);
width = 515;
},
{
anchors = (
{
name = top;
pos = (243,472);
}
);
layerId = "FF94DDBB-E62A-4F15-93F9-F4255DC66883";
shapes = (
{
closed = 1;
nodes = (
(301,-200,ls),
(384,-200,o),
(436,-153,o),
(436,-80,cs),
(436,-11,o),
(384,31,o),
(302,31,cs),
(165,31,ls),
(108,31,o),
(112,76,o),
(127,104,cs),
(164,175,l),
(137,182,l),
(98,107,ls),
(76,63,o),
(86,5,o),
(161,5,cs),
(300,5,ls),
(366,5,o),
(408,-28,o),
(408,-80,cs),
(408,-138,o),
(366,-174,o),
(300,-174,cs),
(25,-174,l),
(25,-200,l)
);
},
{
closed = 1;
nodes = (
(355,148,o),
(434,217,o),
(434,314,cs),
(434,326,ls),
(434,417,o),
(355,482,o),
(243,482,cs),
(130,482,o),
(51,416,o),
(51,322,cs),
(51,314,ls),
(51,217,o),
(130,148,o),
(243,148,cs)
);
},
{
closed = 1;
nodes = (
(146,175,o),
(79,232,o),
(79,314,cs),
(79,322,ls),
(79,400,o),
(146,455,o),
(243,455,cs),
(338,455,o),
(406,402,o),
(406,325,cs),
(406,314,ls),
(406,232,o),
(338,175,o),
(243,175,cs)
);
}
);
width = 479;
}
);
},
{
glyphname = fi;
kernLeft = f;
kernRight = i;
lastChange = "2024-06-28 09:22:26 +0000";
layers = (
{
anchors = (
{
name = caret_1;
pos = (342,0);
}
);
hints = (
{
horizontal = 1;
origin = (1,11);
target = up;
type = BottomGhost;
},
{
horizontal = 1;
origin = (0,2);
target = (0,4);
type = Stem;
},
{
horizontal = 1;
origin = (2,2);
target = (2,3);
type = Stem;
},
{
origin = (1,11);
target = (1,1);
type = Stem;
},
{
origin = (0,6);
target = (0,1);
type = Stem;
}
);
layerId = "D56600E4-3CB1-46B6-994E-4E22114E2E10";
shapes = (
{
closed = 1;
nodes = (
(579,0,l),
(579,493,l),
(25,493,l),
(25,367,l),
(496,367,l),
(429,434,l),
(429,0,l)
);
},
{
closed = 1;
nodes = (
(254,0,l),
(254,586,ls),
(254,597,o),
(263,606,o),
(274,606,cs),
(358,606,l),
(358,730,l),
(276,730,ls),
(170,730,o),
(104,672,o),
(104,573,cs),
(104,0,l)
);
},
{
closed = 1;
nodes = (
(588,582,l),
(588,730,l),
(422,730,l),
(422,582,l)
);
}
);
width = 637;
},
{
anchors = (
{
name = caret_1;
pos = (279,0);
}
);
layerId = "FF94DDBB-E62A-4F15-93F9-F4255DC66883";
shapes = (
{
closed = 1;
nodes = (
(443,0,l),
(443,472,l),
(19,472,l),
(19,444,l),
(427,444,l),
(414,457,l),
(414,0,l)
);
},
{
closed = 1;
nodes = (
(144,0,l),
(144,625,ls),
(144,670,o),
(177,703,o),
(222,703,cs),
(317,703,l),
(317,730,l),
(222,730,ls),
(160,730,o),
(115,686,o),
(115,624,cs),
(115,0,l)
);
},
{
closed = 1;
nodes = (
(443,590,l),
(443,683,l),
(414,683,l),
(414,590,l)
);
}
);
width = 531;
}
);
unicode = 64257;
},
{
glyphname = fl;
kernLeft = f;
kernRight = l;
lastChange = "2024-06-28 09:22:26 +0000";
layers = (
{
anchors = (
{
name = caret_1;
pos = (342,0);
}
);
hints = (
{
horizontal = 1;
origin = (2,11);
target = (2,2);
type = Stem;
},
{
horizontal = 1;
origin = (1,2);
target = (1,3);
type = Stem;
},
{
horizontal = 1;
origin = (2,7);
target = (0,5);
type = Stem;
},
{
origin = (0,11);
target = (0,1);
type = Stem;
},
{
origin = (2,6);
target = (2,8);
type = Stem;
}
);
layerId = "D56600E4-3CB1-46B6-994E-4E22114E2E10";
shapes = (
{
closed = 1;
nodes = (
(254,0,l),
(254,586,ls),
(254,597,o),
(263,606,o),
(274,606,cs),
(344,606,l),
(344,730,l),
(276,730,ls),
(170,730,o),
(104,672,o),
(104,573,cs),
(104,0,l)
);
},
{
closed = 1;
nodes = (
(491,367,l),
(491,493,l),
(25,493,l),
(25,367,l)
);
},
{
closed = 1;
nodes = (
(638,0,l),
(638,124,l),
(581,124,ls),
(570,124,o),
(561,133,o),
(561,144,cs),
(561,730,l),
(411,730,l),
(411,147,ls),
(411,54,o),
(473,0,o),
(572,0,cs)
);
}
);
width = 664;
},
{
anchors = (
{
name = caret_1;
pos = (279,0);
}
);
layerId = "FF94DDBB-E62A-4F15-93F9-F4255DC66883";
shapes = (
{
closed = 1;
nodes = (
(144,0,l),
(144,625,ls),
(144,670,o),
(177,703,o),
(222,703,cs),
(297,703,l),
(297,730,l),
(222,730,ls),
(160,730,o),
(115,686,o),
(115,624,cs),
(115,0,l)
);
},
{
closed = 1;
nodes = (
(407,444,l),
(407,472,l),
(19,472,l),
(19,444,l)
);
},
{
closed = 1;
nodes = (
(533,0,l),
(533,27,l),
(496,27,ls),
(451,27,o),
(418,60,o),
(418,105,cs),
(418,730,l),
(390,730,l),
(390,105,ls),
(390,44,o),
(434,0,o),
(495,0,cs)
);
}
);
width = 552;
}
);
unicode = 64258;
},
{
glyphname = ordfeminine;
kernRight = "406";
lastChange = "2024-06-28 09:22:26 +0000";
layers = (
{
layerId = "D56600E4-3CB1-46B6-994E-4E22114E2E10";
shapes = (
{
closed = 1;
nodes = (
(375,329,l),
(373,367,o),
(373,406,o),
(373,445,cs),
(373,566,ls),
(373,656,o),
(305,707,o),
(208,707,cs),
(143,707,o),
(78,683,o),
(44,647,c),
(96,569,l),
(126,593,o),
(168,606,o),
(200,606,cs),
(231,606,o),
(257,594,o),
(257,559,cs),
(257,481,l),
(271,436,l),
(271,329,l)
);
},
{
closed = 1;
nodes = (
(251,322,o),
(287,364,o),
(287,438,c),
(322,438,l),
(322,503,o),
(279,546,o),
(188,546,cs),
(89,546,o),
(35,499,o),
(35,431,cs),
(35,367,o),
(89,322,o),
(171,322,cs)
);
},
{
closed = 1;
nodes = (
(175,406,o),
(153,419,o),
(153,439,cs),
(153,457,o),
(175,470,o),
(205,470,cs),
(235,470,o),
(258,457,o),
(258,439,cs),
(258,419,o),
(235,406,o),
(205,406,cs)
);
}
);
userData = {
RMXScaler = {
adjustSpace = 12;
height = 75;
verticalShift = 329;
weight = -170;
width = 75;
};
};
width = 426;
},
{
layerId = "FF94DDBB-E62A-4F15-93F9-F4255DC66883";
shapes = (
{
closed = 1;
nodes = (
(317,367,l),
(316,394,o),
(315,432,o),
(315,480,cs),
(315,586,ls),
(315,667,o),
(268,707,o),
(195,707,cs),
(149,707,o),
(100,691,o),
(71,656,c),
(85,637,l),
(113,670,o),
(159,682,o),
(194,682,cs),
(252,682,o),
(289,653,o),
(289,585,cs),
(289,483,l),
(292,477,l),
(293,367,l)
);
},
{
closed = 1;
nodes = (
(263,360,o),
(303,399,o),
(303,458,c),
(308,458,l),
(308,514,o),
(265,552,o),
(186,552,cs),
(107,552,o),
(57,513,o),
(57,456,cs),
(57,399,o),
(107,360,o),
(185,360,cs)
);
},
{
closed = 1;
nodes = (
(124,383,o),
(85,414,o),
(85,456,cs),
(85,500,o),
(124,529,o),
(189,529,cs),
(253,529,o),
(289,500,o),
(289,456,cs),
(289,414,o),
(254,383,o),
(189,383,cs)
);
}
);
userData = {
RMXScaler = {
adjustSpace = 13;
height = 70;
verticalShift = 370;
weight = 20;
width = 70;
};
};
width = 391;
},
{
associatedMasterId = "FF94DDBB-E62A-4F15-93F9-F4255DC66883";
attr = {
coordinates = (
400
);
};
layerId = "10145F64-9BCE-48A8-A1AC-099B139A625F";
name = "19 Jun 24 at 17:40";
shapes = (
{
closed = 1;
nodes = (
(342,351,l),
(340,382,o),
(340,421,o),
(340,465,cs),
(340,577,ls),
(340,662,o),
(284,707,o),
(201,707,cs),
(146,707,o),
(91,688,o),
(59,652,c),
(89,608,l),
(119,637,o),
(163,648,o),
(197,648,cs),
(243,648,o),
(275,628,o),
(275,574,cs),
(275,482,l),
(283,459,l),
(284,351,l)
);
},
{
closed = 1;
nodes = (
(258,344,o),
(296,384,o),
(296,449,c),
(314,449,l),
(314,509,o),
(271,549,o),
(187,549,cs),
(99,549,o),
(48,507,o),
(48,445,cs),
(48,385,o),
(99,344,o),
(179,344,cs)
);
},
{
closed = 1;
nodes = (
(146,396,o),
(114,417,o),
(114,447,cs),
(114,479,o),
(146,499,o),
(196,499,cs),
(245,499,o),
(276,479,o),
(276,447,cs),
(276,417,o),
(246,396,o),
(196,396,cs)
);
}
);
userData = {
RMXScaler = {
adjustSpace = 13;
height = 70;
verticalShift = 370;
weight = 20;
width = 70;
};
};
width = 406;
}
);
unicode = 170;
userData = {
RMXScaler = {
source = a;
};
};
},
{
glyphname = ordmasculine;
lastChange = "2024-06-28 09:22:26 +0000";
layers = (
{
layerId = "D56600E4-3CB1-46B6-994E-4E22114E2E10";
shapes = (
{
closed = 1;
nodes = (
(339,322,o),
(425,400,o),
(425,511,cs),
(425,518,ls),
(425,629,o),
(338,707,o),
(227,707,cs),
(116,707,o),
(29,629,o),
(29,518,cs),
(29,511,ls),
(29,400,o),
(115,322,o),
(227,322,cs)
);
},
{
closed = 1;
nodes = (
(180,424,o),
(147,460,o),
(147,511,cs),
(147,518,ls),
(147,568,o),
(180,604,o),
(227,604,cs),
(275,604,o),
(308,568,o),
(308,518,cs),
(308,511,ls),
(308,460,o),
(275,424,o),
(227,424,cs)
);
}
);
userData = {
RMXScaler = {
adjustSpace = 12;
height = 75;
verticalShift = 329;
weight = -170;
width = 75;
};
};
width = 454;
},
{
layerId = "FF94DDBB-E62A-4F15-93F9-F4255DC66883";
shapes = (
{
closed = 1;
nodes = (
(305,360,o),
(371,432,o),
(371,532,cs),
(371,540,ls),
(371,638,o),
(305,707,o),
(213,707,cs),
(121,707,o),
(54,637,o),
(54,539,cs),
(54,532,ls),
(54,432,o),
(121,360,o),
(213,360,cs)
);
},
{
closed = 1;
nodes = (
(135,385,o),
(81,446,o),
(81,532,cs),
(81,539,ls),
(81,623,o),
(136,682,o),
(213,682,cs),
(290,682,o),
(344,624,o),
(344,540,cs),
(344,532,ls),
(344,445,o),
(290,385,o),
(213,385,cs)
);
}
);
userData = {
RMXScaler = {
adjustSpace = 13;
height = 70;
verticalShift = 370;
weight = 20;
width = 70;
};
};
width = 426;
}
);
unicode = 186;
userData = {
RMXScaler = {
source = o;
};
};
},
{
glyphname = zero;
lastChange = "2024-06-28 09:22:26 +0000";
layers = (
{
hints = (
{
horizontal = 1;
origin = (0,11);
target = (1,11);
type = Stem;
},
{
horizontal = 1;
origin = (0,5);
target = (1,5);
type = Stem;
},
{
origin = (0,8);
target = (1,2);
type = Stem;
},
{
origin = (1,8);
target = (0,2);
type = Stem;
}
);
layerId = "D56600E4-3CB1-46B6-994E-4E22114E2E10";
shapes = (
{
closed = 1;
nodes = (
(472,-10,o),
(572,118,o),
(572,348,cs),
(572,580,o),
(472,710,o),
(301,710,cs),
(129,710,o),
(28,580,o),
(28,348,cs),
(28,118,o),
(129,-10,o),
(301,-10,cs)
);
},
{
closed = 1;
nodes = (
(226,133,o),
(188,201,o),
(188,348,cs),
(188,498,o),
(226,567,o),
(301,567,cs),
(375,567,o),
(412,498,o),
(412,348,cs),
(412,201,o),
(375,133,o),
(301,133,cs)
);
}
);
userData = {
RMXScaler = {
monoWidth = 600;
};
};
width = 600;
},
{
layerId = "FF94DDBB-E62A-4F15-93F9-F4255DC66883";
shapes = (
{
closed = 1;
nodes = (
(449,-10,o),
(542,128,o),
(542,350,cs),
(542,572,o),
(449,710,o),
(299,710,cs),
(150,710,o),
(58,572,o),
(58,350,cs),
(58,128,o),
(150,-10,o),
(299,-10,cs)
);
},
{
closed = 1;
nodes = (
(168,18,o),
(87,145,o),
(87,350,cs),
(87,555,o),
(168,682,o),
(299,682,cs),
(431,682,o),
(513,555,o),
(513,350,cs),
(513,145,o),
(431,18,o),
(299,18,cs)
);
}
);
userData = {
RMXScaler = {
monoWidth = 600;
};
};
width = 600;
}
);
unicode = 48;
userData = {
RMXScaler = {
source = zero;
};
};
},
{
glyphname = one;
lastChange = "2024-06-28 09:22:26 +0000";
layers = (
{
hints = (
{
horizontal = 1;
origin = (1,3);
target = (1,2);
type = Stem;
},
{
horizontal = 1;
origin = (0,5);
target = (0,7);
type = Stem;
},
{
origin = (0,11);
target = (0,1);
type = Stem;
}
);
layerId = "D56600E4-3CB1-46B6-994E-4E22114E2E10";
shapes = (
{
closed = 1;
nodes = (
(396,56,l),
(396,579,ls),
(396,649,o),
(345,700,o),
(275,700,cs),
(81,700,l),
(81,555,l),
(230,555,ls),
(238,555,o),
(241,552,o),
(241,544,cs),
(241,56,l)
);
},
{
closed = 1;
nodes = (
(545,0,l),
(545,145,l),
(88,145,l),
(88,0,l)
);
}
);
userData = {
RMXScaler = {
source = one;
};
};
width = 600;
},
{
layerId = "FF94DDBB-E62A-4F15-93F9-F4255DC66883";
shapes = (
{
closed = 1;
nodes = (
(330,13,l),
(330,597,ls),
(330,657,o),
(287,700,o),
(226,700,cs),
(102,700,l),
(102,672,l),
(223,672,ls),
(268,672,o),
(300,638,o),
(300,593,cs),
(300,13,l)
);
},
{
closed = 1;
nodes = (
(537,0,l),
(537,28,l),
(93,28,l),
(93,0,l)
);
}
);
userData = {
RMXScaler = {
monoWidth = 600;
};
};
width = 600;
}
);
unicode = 49;
userData = {
RMXScaler = {
source = one;
};
};
},
{
glyphname = two;
lastChange = "2024-06-28 09:22:26 +0000";
layers = (
{
hints = (
{
horizontal = 1;
origin = (0,25);
target = (0,2);
type = Stem;
},
{
horizontal = 1;
origin = (0,10);
target = (0,17);
type = Stem;
},
{
origin = (0,7);
target = (0,20);
type = Stem;
}
);
layerId = "D56600E4-3CB1-46B6-994E-4E22114E2E10";
shapes = (
{
closed = 1;
nodes = (
(549,0,l),
(549,142,l),
(230,142,l),
(237,99,l),
(400,262,ls),
(481,343,o),
(519,421,o),
(519,500,cs),
(519,623,o),
(419,710,o),
(280,710,cs),
(176,710,o),
(96,658,o),
(40,576,c),
(141,476,l),
(183,532,o),
(221,561,o),
(274,561,cs),
(325,561,o),
(357,528,o),
(357,483,cs),
(357,438,o),
(335,398,o),
(290,352,cs),
(56,117,l),
(56,0,l)
);
}
);
userData = {
RMXScaler = {
monoWidth = 600;
};
};
width = 600;
},
{
layerId = "FF94DDBB-E62A-4F15-93F9-F4255DC66883";
shapes = (
{
closed = 1;
nodes = (
(520,0,l),
(520,28,l),
(114,28,l),
(117,22,l),
(375,283,ls),
(476,386,o),
(494,450,o),
(494,509,cs),
(494,631,o),
(419,710,o),
(291,710,cs),
(210,710,o),
(129,664,o),
(82,586,c),
(104,568,l),
(147,639,o),
(218,681,o),
(291,681,cs),
(397,681,o),
(464,618,o),
(464,508,cs),
(464,453,o),
(446,395,o),
(353,302,cs),
(78,23,l),
(78,0,l)
);
}
);
userData = {
RMXScaler = {
monoWidth = 600;
useSpacing = 80;
};
};
width = 600;
}
);
unicode = 50;
userData = {
RMXScaler = {
source = two;
};
};
},
{
glyphname = three;
lastChange = "2024-06-28 09:22:26 +0000";
layers = (
{
hints = (
{
horizontal = 1;
origin = (0,41);
target = (0,34);
type = Stem;
},
{
horizontal = 1;
origin = (0,28);
target = (0,26);
type = Stem;
},
{
horizontal = 1;
origin = (0,12);
target = (0,19);
type = Stem;
},
{
origin = (0,31);
target = (0,2);
type = Stem;
}
);
layerId = "D56600E4-3CB1-46B6-994E-4E22114E2E10";
shapes = (
{
closed = 1;
nodes = (
(428,-10,o),
(543,74,o),
(543,200,cs),
(543,306,o),
(470,394,o),
(300,394,c),
(300,316,l),
(444,316,o),
(527,402,o),
(527,513,cs),
(527,631,o),
(429,710,o),
(283,710,cs),
(191,710,o),
(105,674,o),
(44,612,c),
(133,505,l),
(172,549,o),
(219,575,o),
(277,575,cs),
(337,575,o),
(373,544,o),
(373,493,cs),
(373,447,o),
(336,416,o),
(284,416,cs),
(188,416,l),
(188,281,l),
(297,281,ls),
(350,281,o),
(387,253,o),
(387,207,cs),
(387,155,o),
(344,122,o),
(275,122,cs),
(216,122,o),
(169,144,o),
(123,190,c),
(36,85,l),
(99,23,o),
(177,-10,o),
(274,-10,cs)
);
}
);
userData = {
RMXScaler = {
monoWidth = 600;
};
};
width = 600;
},
{
layerId = "FF94DDBB-E62A-4F15-93F9-F4255DC66883";
shapes = (
{
closed = 1;
nodes = (
(417,-10,o),
(513,67,o),
(513,179,cs),
(513,285,o),
(428,362,o),
(271,362,c),
(271,347,l),
(412,347,o),
(493,431,o),
(493,534,cs),
(493,643,o),
(405,710,o),
(279,710,cs),
(187,710,o),
(122,674,o),
(89,643,c),
(106,621,l),
(134,648,o),
(193,682,o),
(279,682,cs),
(388,682,o),
(464,625,o),
(464,531,cs),
(464,443,o),
(394,368,o),
(269,368,cs),
(177,368,l),
(177,340,l),
(270,340,ls),
(404,340,o),
(484,275,o),
(484,181,cs),
(484,85,o),
(401,17,o),
(282,17,cs),
(182,17,o),
(121,54,o),
(83,91,c),
(64,69,l),
(108,27,o),
(175,-10,o),
(281,-10,cs)
);
}
);
userData = {
RMXScaler = {
monoWidth = 600;
useSpacing = 68;
};
};
width = 600;
}
);
unicode = 51;
userData = {
RMXScaler = {
source = three;
};
};
},
{
glyphname = four;
lastChange = "2024-06-28 09:22:26 +0000";
layers = (
{
hints = (
{
horizontal = 1;
origin = (1,3);
target = up;
type = BottomGhost;
},
{
horizontal = 1;
origin = (0,7);
target = (0,2);
type = Stem;
},
{
horizontal = 1;
origin = (0,5);
target = down;
type = TopGhost;
},
{
origin = (1,3);
target = (1,1);
type = Stem;
}
);
layerId = "D56600E4-3CB1-46B6-994E-4E22114E2E10";
shapes = (
{
closed = 1;
nodes = (
(574,145,l),
(574,284,l),
(138,284,l),
(174,237,l),
(382,700,l),
(226,700,l),
(28,275,l),
(28,145,l)
);
},
{
closed = 1;
nodes = (
(486,0,l),
(486,450,l),
(334,450,l),
(334,0,l)
);
}
);
userData = {
RMXScaler = {
monoWidth = 600;
};
};
width = 600;
},
{
layerId = "FF94DDBB-E62A-4F15-93F9-F4255DC66883";
shapes = (
{
closed = 1;
nodes = (
(553,189,l),
(553,217,l),
(86,217,l),
(92,211,l),
(353,700,l),
(320,700,l),
(61,214,l),
(61,189,l)
);
},
{
closed = 1;
nodes = (
(425,0,l),
(425,422,l),
(396,422,l),
(396,0,l)
);
}
);
userData = {
RMXScaler = {
monoWidth = 600;
};
};
width = 600;
}
);
unicode = 52;
userData = {
RMXScaler = {
source = four;
};
};
},
{
glyphname = five;
lastChange = "2024-06-28 09:22:26 +0000";
layers = (
{
hints = (
{
horizontal = 1;
origin = (0,37);
target = (0,30);
type = Stem;
},
{
horizontal = 1;
origin = (0,24);
target = (0,5);
type = Stem;
},
{
horizontal = 1;
origin = (0,16);
target = (0,14);
type = Stem;
},
{
place = (91.5,145.5);
type = Stem;
},
{
origin = (0,27);
target = (0,2);
type = Stem;
}
);
layerId = "D56600E4-3CB1-46B6-994E-4E22114E2E10";
shapes = (
{
closed = 1;
nodes = (
(433,-10,o),
(549,77,o),
(549,230,cs),
(549,359,o),
(460,443,o),
(333,443,cs),
(243,443,o),
(194,401,o),
(171,334,c),
(232,334,l),
(237,550,ls),
(237,556,o),
(242,561,o),
(248,561,cs),
(523,561,l),
(523,700,l),
(214,700,ls),
(147,700,o),
(94,653,o),
(93,585,cs),
(90,263,l),
(214,263,l),
(233,294,o),
(262,310,o),
(300,310,cs),
(359,310,o),
(393,276,o),
(393,223,cs),
(393,161,o),
(352,122,o),
(279,122,cs),
(222,122,o),
(174,144,o),
(128,190,c),
(41,85,l),
(104,23,o),
(182,-10,o),
(278,-10,cs)
);
}
);
userData = {
RMXScaler = {
monoWidth = 600;
};
};
width = 600;
},
{
layerId = "FF94DDBB-E62A-4F15-93F9-F4255DC66883";
shapes = (
{
closed = 1;
nodes = (
(427,-10,o),
(526,77,o),
(526,222,cs),
(526,346,o),
(450,436,o),
(321,436,cs),
(226,436,o),
(158,387,o),
(129,321,c),
(139,319,l),
(154,609,ls),
(156,646,o),
(188,672,o),
(226,672,cs),
(488,672,l),
(488,700,l),
(223,700,ls),
(170,700,o),
(128,663,o),
(125,611,cs),
(109,284,l),
(137,284,l),
(159,357,o),
(224,408,o),
(317,408,cs),
(433,408,o),
(497,329,o),
(497,220,cs),
(497,95,o),
(412,17,o),
(284,17,cs),
(190,17,o),
(125,58,o),
(91,91,c),
(72,69,l),
(112,30,o),
(184,-10,o),
(282,-10,cs)
);
}
);
userData = {
RMXScaler = {
monoWidth = 600;
useSpacing = 80;
};
};
width = 600;
}
);
unicode = 53;
userData = {
RMXScaler = {
source = five;
};
};
},
{
glyphname = six;
lastChange = "2024-06-28 09:22:26 +0000";
layers = (
{
hints = (
{
horizontal = 1;
origin = (0,18);
target = (1,11);
type = Stem;
},
{
horizontal = 1;
origin = (1,5);
target = (0,5);
type = Stem;
},
{
horizontal = 1;
origin = (0,11);
target = down;
type = TopGhost;
},
{
origin = (0,15);
target = (1,2);
type = Stem;
},
{
origin = (1,8);
target = (0,2);
type = Stem;
}
);
layerId = "D56600E4-3CB1-46B6-994E-4E22114E2E10";
shapes = (
{
closed = 1;
nodes = (
(463,-10,o),
(571,81,o),
(571,229,cs),
(571,364,o),
(476,463,o),
(338,463,cs),
(283,463,o),
(233,441,o),
(189,396,c),
(256,404,l),
(477,700,l),
(288,700,l),
(125,460,ls),
(70,379,o),
(37,306,o),
(37,239,cs),
(37,86,o),
(140,-10,o),
(305,-10,cs)
);
},
{
closed = 1;
nodes = (
(241,126,o),
(198,168,o),
(198,228,cs),
(198,289,o),
(241,332,o),
(303,332,cs),
(365,332,o),
(409,289,o),
(409,228,cs),
(409,168,o),
(365,126,o),
(303,126,cs)
);
}
);
userData = {
RMXScaler = {
monoWidth = 600;
};
};
width = 600;
},
{
layerId = "FF94DDBB-E62A-4F15-93F9-F4255DC66883";
shapes = (
{
closed = 1;
nodes = (
(441,-10,o),
(535,84,o),
(535,218,cs),
(535,352,o),
(442,446,o),
(312,446,cs),
(260,446,o),
(208,432,o),
(168,395,c),
(175,391,l),
(399,700,l),
(361,700,l),
(126,369,ls),
(97,328,o),
(78,278,o),
(78,218,cs),
(78,79,o),
(167,-10,o),
(307,-10,cs)
);
},
{
closed = 1;
nodes = (
(185,18,o),
(107,96,o),
(107,218,cs),
(107,337,o),
(187,419,o),
(310,419,cs),
(425,419,o),
(506,336,o),
(506,218,cs),
(506,100,o),
(424,18,o),
(306,18,cs)
);
}
);
userData = {
RMXScaler = {
monoWidth = 600;
useSpacing = 80;
};
};
width = 600;
}
);
unicode = 54;
userData = {
RMXScaler = {
source = six;
};
};
},
{
glyphname = seven;
lastChange = "2024-06-28 09:22:26 +0000";
layers = (
{
hints = (
{
horizontal = 1;
origin = (0,7);
target = up;
type = BottomGhost;
},
{
horizontal = 1;
origin = (0,3);
target = (0,5);
type = Stem;
}
);
layerId = "D56600E4-3CB1-46B6-994E-4E22114E2E10";
shapes = (
{
closed = 1;
nodes = (
(270,0,l),
(552,590,l),
(552,700,l),
(52,700,l),
(52,559,l),
(431,559,l),
(397,597,l),
(94,0,l)
);
}
);
userData = {
RMXScaler = {
monoWidth = 600;
};
};
width = 600;
},
{
layerId = "FF94DDBB-E62A-4F15-93F9-F4255DC66883";
shapes = (
{
closed = 1;
nodes = (
(182,0,l),
(531,680,l),
(531,700,l),
(64,700,l),
(64,672,l),
(507,672,l),
(502,682,l),
(148,0,l)
);
}
);
userData = {
RMXScaler = {
monoWidth = 600;
};
};
width = 600;
}
);
unicode = 55;
userData = {
RMXScaler = {
source = seven;
};
};
},
{
glyphname = eight;
lastChange = "2024-06-28 09:22:26 +0000";
layers = (
{
hints = (
{
horizontal = 1;
origin = (0,25);
target = (1,11);
type = Stem;
},
{
horizontal = 1;
origin = (1,5);
target = (2,11);
type = Stem;
},
{
horizontal = 1;
origin = (0,12);
target = (2,5);
type = Stem;
},
{
origin = (2,2);
target = (0,15);
type = Stem;
},
{
origin = (2,8);
target = (0,9);
type = Stem;
}
);
layerId = "D56600E4-3CB1-46B6-994E-4E22114E2E10";
shapes = (
{
closed = 1;
nodes = (
(465,-10,o),
(571,69,o),
(571,197,cs),
(571,308,o),
(491,384,o),
(359,384,c),
(359,337,l),
(475,337,o),
(550,417,o),
(550,518,cs),
(550,634,o),
(452,710,o),
(300,710,cs),
(147,710,o),
(49,633,o),
(49,517,cs),
(49,415,o),
(125,337,o),
(241,337,c),
(241,384,l),
(109,384,o),
(29,308,o),
(29,196,cs),
(29,69,o),
(134,-10,o),
(300,-10,cs)
);
},
{
closed = 1;
nodes = (
(234,125,o),
(193,159,o),
(193,211,cs),
(193,264,o),
(235,297,o),
(301,297,cs),
(366,297,o),
(407,264,o),
(407,211,cs),
(407,159,o),
(366,125,o),
(300,125,cs)
);
},
{
closed = 1;
nodes = (
(242,418,o),
(205,448,o),
(205,495,cs),
(205,543,o),
(242,573,o),
(300,573,cs),
(358,573,o),
(395,543,o),
(395,495,cs),
(395,448,o),
(359,418,o),
(301,418,cs)
);
}
);
userData = {
RMXScaler = {
monoWidth = 600;
};
};
width = 600;
},
{
layerId = "FF94DDBB-E62A-4F15-93F9-F4255DC66883";
shapes = (
{
closed = 1;
nodes = (
(441,-10,o),
(541,71,o),
(541,187,cs),
(541,301,o),
(443,376,o),
(306,376,c),
(306,361,l),
(431,361,o),
(512,431,o),
(512,534,cs),
(512,639,o),
(428,710,o),
(300,710,cs),
(173,710,o),
(89,639,o),
(89,534,cs),
(89,431,o),
(170,361,o),
(294,361,c),
(294,376,l),
(157,376,o),
(59,301,o),
(59,187,cs),
(59,71,o),
(159,-10,o),
(300,-10,cs)
);
},
{
closed = 1;
nodes = (
(177,18,o),
(88,88,o),
(88,190,cs),
(88,290,o),
(177,355,o),
(300,355,cs),
(423,355,o),
(512,290,o),
(512,190,cs),
(512,88,o),
(423,18,o),
(300,18,cs)
);
},
{
closed = 1;
nodes = (
(190,382,o),
(118,442,o),
(118,532,cs),
(118,621,o),
(190,682,o),
(300,682,cs),
(410,682,o),
(483,621,o),
(483,532,cs),
(483,442,o),
(410,382,o),
(300,382,cs)
);
}
);
userData = {
RMXScaler = {
monoWidth = 600;
useSpacing = 80;
};
};
width = 600;
}
);
unicode = 56;
userData = {
RMXScaler = {
source = eight;
};
};
},
{
glyphname = nine;
lastChange = "2024-06-28 09:22:26 +0000";
layers = (
{
hints = (
{
horizontal = 1;
origin = (0,18);
target = up;
type = BottomGhost;
},
{
horizontal = 1;
origin = (0,13);
target = (1,11);
type = Stem;
},
{
horizontal = 1;
origin = (0,7);
target = (1,5);
type = Stem;
},
{
origin = (0,10);
target = (1,2);
type = Stem;
},
{
origin = (1,8);
target = (0,4);
type = Stem;
}
);
layerId = "D56600E4-3CB1-46B6-994E-4E22114E2E10";
shapes = (
{
closed = 1;
nodes = (
(312,0,l),
(475,240,ls),
(530,321,o),
(563,394,o),
(563,461,cs),
(563,614,o),
(460,710,o),
(295,710,cs),
(137,710,o),
(29,619,o),
(29,471,cs),
(29,336,o),
(124,237,o),
(262,237,cs),
(317,237,o),
(367,259,o),
(411,304,c),
(344,296,l),
(123,0,l)
);
},
{
closed = 1;
nodes = (
(235,368,o),
(191,411,o),
(191,472,cs),
(191,532,o),
(235,574,o),
(297,574,cs),
(359,574,o),
(402,532,o),
(402,472,cs),
(402,411,o),
(359,368,o),
(297,368,cs)
);
}
);
userData = {
RMXScaler = {
monoWidth = 600;
};
};
width = 600;
},
{
layerId = "FF94DDBB-E62A-4F15-93F9-F4255DC66883";
shapes = (
{
closed = 1;
nodes = (
(239,0,l),
(474,331,ls),
(503,372,o),
(522,422,o),
(522,482,cs),
(522,621,o),
(433,710,o),
(293,710,cs),
(159,710,o),
(65,616,o),
(65,482,cs),
(65,348,o),
(158,254,o),
(288,254,cs),
(340,254,o),
(392,268,o),
(432,305,c),
(425,309,l),
(201,0,l)
);
},
{
closed = 1;
nodes = (
(175,281,o),
(94,364,o),
(94,482,cs),
(94,600,o),
(176,682,o),
(294,682,cs),
(415,682,o),
(493,604,o),
(493,482,cs),
(493,363,o),
(413,281,o),
(290,281,cs)
);
}
);
userData = {
RMXScaler = {
monoWidth = 600;
useSpacing = 80;
};
};
width = 600;
}
);
unicode = 57;
userData = {
RMXScaler = {
source = nine;
};
};
},
{
glyphname = zero.dnom;
kernLeft = zero.dnom;
kernRight = zero.dnom;
lastChange = "2024-06-28 09:22:26 +0000";
layers = (
{
hints = (
{
horizontal = 1;
origin = (0,11);
target = (1,11);
type = Stem;
},
{
horizontal = 1;
origin = (1,5);
target = (0,5);
type = Stem;
},
{
origin = (0,8);
target = (1,2);
type = Stem;
},
{
origin = (1,8);
target = (0,2);
type = Stem;
}
);
layerId = "D56600E4-3CB1-46B6-994E-4E22114E2E10";
shapes = (
{
closed = 1;
nodes = (
(310,-6,o),
(372,71,o),
(372,212,cs),
(372,355,o),
(310,433,o),
(203,433,cs),
(95,433,o),
(32,355,o),
(32,212,cs),
(32,71,o),
(95,-6,o),
(203,-6,cs)
);
},
{
closed = 1;
nodes = (
(164,96,o),
(147,131,o),
(147,212,cs),
(147,295,o),
(164,331,o),
(203,331,cs),
(240,331,o),
(257,297,o),
(257,212,cs),
(257,129,o),
(240,96,o),
(203,96,cs)
);
}
);
userData = {
RMXScaler = {
height = 61;
weight = -220;
width = 61;
};
};
width = 404;
},
{
layerId = "FF94DDBB-E62A-4F15-93F9-F4255DC66883";
shapes = (
{
closed = 1;
nodes = (
(280,-6,o),
(337,78,o),
(337,210,cs),
(337,343,o),
(280,426,o),
(188,426,cs),
(98,426,o),
(41,344,o),
(41,210,cs),
(41,77,o),
(98,-6,o),
(188,-6,cs)
);
},
{
closed = 1;
nodes = (
(114,19,o),
(68,91,o),
(68,210,cs),
(68,330,o),
(114,402,o),
(188,402,cs),
(264,402,o),
(310,329,o),
(310,210,cs),
(310,92,o),
(264,19,o),
(188,19,cs)
);
}
);
userData = {
RMXScaler = {
height = 60;
weight = 23;
width = 60;
};
};
width = 378;
}
);
userData = {
RMXScaler = {
source = zero;
};
};
},
{
glyphname = one.dnom;
kernLeft = zero.dnom;
kernRight = zero.dnom;
lastChange = "2024-06-28 09:22:26 +0000";
layers = (
{
hints = (
{
horizontal = 1;
origin = (1,3);
target = (1,2);
type = Stem;
},
{
horizontal = 1;
origin = (0,7);
target = (0,5);
type = Stem;
},
{
origin = (0,11);
target = (0,1);
type = Stem;
}
);
layerId = "D56600E4-3CB1-46B6-994E-4E22114E2E10";
shapes = (
{
closed = 1;
nodes = (
(236,40,l),
(236,351,ls),
(236,395,o),
(203,427,o),
(159,427,cs),
(32,427,l),
(32,323,l),
(120,323,ls),
(123,323,o),
(125,321,o),
(125,318,cs),
(125,40,l)
);
},
{
closed = 1;
nodes = (
(319,0,l),
(319,104,l),
(38,104,l),
(38,0,l)
);
}
);
userData = {
RMXScaler = {
height = 61;
weight = -220;
width = 61;
};
};
width = 336;
},
{
layerId = "FF94DDBB-E62A-4F15-93F9-F4255DC66883";
shapes = (
{
closed = 1;
nodes = (
(175,11,l),
(175,358,ls),
(175,394,o),
(149,420,o),
(111,420,cs),
(32,420,l),
(32,396,l),
(106,396,ls),
(131,396,o),
(148,377,o),
(148,353,cs),
(148,11,l)
);
},
{
closed = 1;
nodes = (
(296,0,l),
(296,25,l),
(28,25,l),
(28,0,l)
);
}
);
userData = {
RMXScaler = {
height = 60;
weight = 23;
width = 60;
};
};
width = 304;
}
);
userData = {
RMXScaler = {
source = one;
};
};
},
{
glyphname = two.dnom;
kernLeft = zero.dnom;
kernRight = zero.dnom;
lastChange = "2024-06-28 09:22:26 +0000";
layers = (
{
hints = (
{
horizontal = 1;
origin = (0,25);
target = (0,2);
type = Stem;
},
{
horizontal = 1;
origin = (0,17);
target = (0,10);
type = Stem;
},
{
origin = (0,20);
target = (0,7);
type = Stem;
}
);
layerId = "D56600E4-3CB1-46B6-994E-4E22114E2E10";
shapes = (
{
closed = 1;
nodes = (
(341,0,l),
(341,102,l),
(158,102,l),
(163,70,l),
(249,157,ls),
(298,207,o),
(322,255,o),
(322,304,cs),
(322,379,o),
(257,433,o),
(171,433,cs),
(108,433,o),
(58,403,o),
(21,350,c),
(93,278,l),
(119,311,o),
(138,326,o),
(167,326,cs),
(191,326,o),
(206,310,o),
(206,291,cs),
(206,266,o),
(194,244,o),
(171,221,cs),
(33,84,l),
(33,0,l)
);
}
);
userData = {
RMXScaler = {
height = 61;
weight = -220;
width = 61;
};
};
width = 369;
},
{
layerId = "FF94DDBB-E62A-4F15-93F9-F4255DC66883";
shapes = (
{
closed = 1;
nodes = (
(299,0,l),
(299,25,l),
(61,25,l),
(63,19,l),
(212,169,ls),
(271,229,o),
(283,268,o),
(283,305,cs),
(283,378,o),
(236,426,o),
(159,426,cs),
(108,426,o),
(60,398,o),
(31,352,c),
(49,335,l),
(75,377,o),
(116,402,o),
(159,402,cs),
(218,402,o),
(256,365,o),
(256,303,cs),
(256,272,o),
(245,238,o),
(192,185,cs),
(30,20,l),
(30,0,l)
);
}
);
userData = {
RMXScaler = {
height = 60;
weight = 23;
width = 60;
};
};
width = 329;
}
);
userData = {
RMXScaler = {
source = two;
};
};
},
{
glyphname = three.dnom;
kernLeft = zero.dnom;
kernRight = zero.dnom;
lastChange = "2024-06-28 09:22:26 +0000";
layers = (
{
hints = (
{
horizontal = 1;
origin = (0,41);
target = (0,34);
type = Stem;
},
{
horizontal = 1;
origin = (0,28);
target = (0,26);
type = Stem;
},
{
horizontal = 1;
origin = (0,19);
target = (0,12);
type = Stem;
},
{
origin = (0,31);
target = (0,2);
type = Stem;
}
);
layerId = "D56600E4-3CB1-46B6-994E-4E22114E2E10";
shapes = (
{
closed = 1;
nodes = (
(263,-6,o),
(336,46,o),
(336,125,cs),
(336,190,o),
(293,245,o),
(188,245,c),
(188,189,l),
(276,189,o),
(327,242,o),
(327,310,cs),
(327,383,o),
(266,433,o),
(174,433,cs),
(118,433,o),
(63,411,o),
(22,369,c),
(85,293,l),
(112,324,o),
(139,337,o),
(169,337,cs),
(200,337,o),
(216,321,o),
(216,296,cs),
(216,273,o),
(198,260,o),
(176,260,cs),
(117,260,l),
(117,164,l),
(185,164,ls),
(206,164,o),
(224,152,o),
(224,130,cs),
(224,104,o),
(203,88,o),
(168,88,cs),
(135,88,o),
(109,101,o),
(81,129,c),
(19,54,l),
(62,12,o),
(111,-6,o),
(167,-6,cs)
);
}
);
userData = {
RMXScaler = {
adjustSpace = 7;
height = 61;
weight = -220;
width = 61;
};
};
width = 368;
},
{
layerId = "FF94DDBB-E62A-4F15-93F9-F4255DC66883";
shapes = (
{
closed = 1;
nodes = (
(240,-6,o),
(299,41,o),
(299,109,cs),
(299,172,o),
(248,220,o),
(153,220,c),
(153,207,l),
(238,207,o),
(287,257,o),
(287,319,cs),
(287,386,o),
(232,426,o),
(156,426,cs),
(99,426,o),
(59,404,o),
(39,384,c),
(53,365,l),
(73,385,o),
(109,402,o),
(155,402,cs),
(218,402,o),
(261,370,o),
(261,317,cs),
(261,266,o),
(220,225,o),
(151,225,cs),
(95,225,l),
(95,200,l),
(152,200,ls),
(227,200,o),
(273,164,o),
(273,110,cs),
(273,55,o),
(224,17,o),
(157,17,cs),
(99,17,o),
(63,39,o),
(41,61,c),
(25,43,l),
(52,17,o),
(92,-6,o),
(156,-6,cs)
);
}
);
userData = {
RMXScaler = {
adjustSpace = 5;
height = 60;
weight = 23;
width = 60;
};
};
width = 339;
}
);
userData = {
RMXScaler = {
source = three;
};
};
},
{
glyphname = four.dnom;
kernLeft = zero.dnom;
kernRight = zero.dnom;
lastChange = "2024-06-28 09:22:26 +0000";
layers = (
{
hints = (
{
horizontal = 1;
origin = (0,7);
target = (0,2);
type = Stem;
},
{
origin = (1,3);
target = (1,1);
type = Stem;
},
{
horizontal = 1;
origin = (1,0);
target = up;
type = BottomGhost;
}
);
layerId = "D56600E4-3CB1-46B6-994E-4E22114E2E10";
shapes = (
{
closed = 1;
nodes = (
(361,83,l),
(361,182,l),
(99,182,l),
(125,148,l),
(245,427,l),
(134,427,l),
(21,176,l),
(21,83,l)
);
},
{
closed = 1;
nodes = (
(313,0,l),
(313,278,l),
(204,278,l),
(204,0,l)
);
}
);
userData = {
RMXScaler = {
height = 61;
weight = -220;
width = 61;
};
};
width = 381;
},
{
layerId = "FF94DDBB-E62A-4F15-93F9-F4255DC66883";
shapes = (
{
closed = 1;
nodes = (
(329,111,l),
(329,134,l),
(50,134,l),
(56,128,l),
(210,420,l),
(182,420,l),
(29,133,l),
(29,111,l)
);
},
{
closed = 1;
nodes = (
(255,0,l),
(255,256,l),
(228,256,l),
(228,0,l)
);
}
);
userData = {
RMXScaler = {
height = 60;
weight = 23;
width = 60;
};
};
width = 348;
}
);
userData = {
RMXScaler = {
source = four;
};
};
},
{
glyphname = five.dnom;
kernLeft = zero.dnom;
kernRight = zero.dnom;
lastChange = "2024-06-28 09:22:26 +0000";
layers = (
{
hints = (
{
horizontal = 1;
origin = (0,37);
target = (0,30);
type = Stem;
},
{
horizontal = 1;
origin = (0,14);
target = (0,16);
type = Stem;
},
{
horizontal = 1;
origin = (0,24);
target = (0,5);
type = Stem;
},
{
origin = (0,19);
target = (0,10);
type = Stem;
},
{
origin = (0,27);
target = (0,2);
type = Stem;
}
);
layerId = "D56600E4-3CB1-46B6-994E-4E22114E2E10";
shapes = (
{
closed = 1;
nodes = (
(265,-6,o),
(338,47,o),
(338,141,cs),
(338,220,o),
(282,271,o),
(205,271,cs),
(152,271,o),
(123,248,o),
(109,205,c),
(154,206,l),
(156,328,ls),
(156,327,o),
(155,328,o),
(154,328,cs),
(324,328,l),
(324,427,l),
(129,427,ls),
(88,427,o),
(53,398,o),
(53,353,cs),
(52,158,l),
(141,158,l),
(152,171,o),
(165,176,o),
(181,176,cs),
(209,176,o),
(226,161,o),
(226,136,cs),
(226,107,o),
(207,88,o),
(170,88,cs),
(138,88,o),
(112,100,o),
(83,129,c),
(21,54,l),
(65,11,o),
(114,-6,o),
(169,-6,cs)
);
}
);
userData = {
RMXScaler = {
height = 61;
weight = -220;
width = 61;
};
};
width = 368;
},
{
layerId = "FF94DDBB-E62A-4F15-93F9-F4255DC66883";
shapes = (
{
closed = 1;
nodes = (
(246,-6,o),
(306,47,o),
(306,134,cs),
(306,209,o),
(261,262,o),
(184,262,cs),
(126,262,o),
(87,232,o),
(71,194,c),
(78,193,l),
(87,362,ls),
(88,379,o),
(103,396,o),
(126,396,cs),
(285,396,l),
(285,420,l),
(122,420,ls),
(98,420,o),
(64,405,o),
(62,365,cs),
(53,169,l),
(77,169,l),
(90,212,o),
(129,239,o),
(178,239,cs),
(244,239,o),
(281,194,o),
(281,132,cs),
(281,61,o),
(233,17,o),
(160,17,cs),
(110,17,o),
(70,37,o),
(47,61,c),
(30,43,l),
(58,15,o),
(104,-6,o),
(158,-6,cs)
);
}
);
userData = {
RMXScaler = {
height = 60;
weight = 23;
width = 60;
};
};
width = 340;
}
);
userData = {
RMXScaler = {
source = five;
};
};
},
{
glyphname = six.dnom;
kernLeft = zero.dnom;
kernRight = zero.dnom;
lastChange = "2024-06-28 09:22:26 +0000";
layers = (
{
hints = (
{
horizontal = 1;
origin = (0,18);
target = (1,11);
type = Stem;
},
{
horizontal = 1;
origin = (1,5);
target = (0,5);
type = Stem;
},
{
origin = (0,15);
target = (1,2);
type = Stem;
},
{
origin = (1,8);
target = (0,2);
type = Stem;
}
);
layerId = "D56600E4-3CB1-46B6-994E-4E22114E2E10";
shapes = (
{
closed = 1;
nodes = (
(295,-6,o),
(363,49,o),
(363,141,cs),
(363,224,o),
(304,285,o),
(219,285,cs),
(184,285,o),
(154,269,o),
(128,242,c),
(177,248,l),
(311,427,l),
(176,427,l),
(86,293,ls),
(49,238,o),
(27,190,o),
(27,148,cs),
(27,53,o),
(92,-6,o),
(196,-6,cs)
);
},
{
closed = 1;
nodes = (
(165,91,o),
(143,112,o),
(143,140,cs),
(143,170,o),
(164,191,o),
(194,191,cs),
(225,191,o),
(247,170,o),
(247,140,cs),
(247,112,o),
(225,91,o),
(194,91,cs)
);
}
);
userData = {
RMXScaler = {
height = 61;
weight = -220;
width = 61;
};
};
width = 383;
},
{
layerId = "FF94DDBB-E62A-4F15-93F9-F4255DC66883";
shapes = (
{
closed = 1;
nodes = (
(257,-6,o),
(314,50,o),
(314,132,cs),
(314,212,o),
(259,269,o),
(181,269,cs),
(149,269,o),
(119,261,o),
(93,237,c),
(101,236,l),
(236,420,l),
(203,420,l),
(66,228,ls),
(48,202,o),
(35,170,o),
(35,132,cs),
(35,48,o),
(90,-6,o),
(175,-6,cs)
);
},
{
closed = 1;
nodes = (
(107,18,o),
(62,63,o),
(62,132,cs),
(62,199,o),
(107,246,o),
(177,246,cs),
(243,246,o),
(289,198,o),
(289,132,cs),
(289,64,o),
(242,18,o),
(174,18,cs)
);
}
);
userData = {
RMXScaler = {
height = 60;
weight = 23;
width = 60;
};
};
width = 342;
}
);
userData = {
RMXScaler = {
source = six;
};
};
},
{
glyphname = seven.dnom;
kernLeft = zero.dnom;
kernRight = zero.dnom;
lastChange = "2024-06-28 09:22:26 +0000";
layers = (
{
hints = (
{
horizontal = 1;
origin = (0,3);
target = up;
type = BottomGhost;
},
{
horizontal = 1;
origin = (0,7);
target = (0,6);
type = Stem;
}
);
layerId = "D56600E4-3CB1-46B6-994E-4E22114E2E10";
shapes = (
{
closed = 1;
nodes = (
(244,326,l),
(219,353,l),
(41,0,l),
(167,0,l),
(330,348,l),
(330,427,l),
(21,427,l),
(21,326,l)
);
}
);
userData = {
RMXScaler = {
height = 61;
weight = -220;
width = 61;
};
};
width = 348;
},
{
layerId = "FF94DDBB-E62A-4F15-93F9-F4255DC66883";
shapes = (
{
closed = 1;
nodes = (
(277,396,l),
(272,404,l),
(63,0,l),
(93,0,l),
(298,402,l),
(298,420,l),
(15,420,l),
(15,396,l)
);
}
);
userData = {
RMXScaler = {
height = 60;
weight = 23;
width = 60;
};
};
width = 316;
}
);
userData = {
RMXScaler = {
source = seven;
};
};
},
{
glyphname = eight.dnom;
kernLeft = zero.dnom;
kernRight = zero.dnom;
lastChange = "2024-06-28 09:22:26 +0000";
layers = (
{
hints = (
{
horizontal = 1;
origin = (0,25);
target = (1,11);
type = Stem;
},
{
horizontal = 1;
origin = (1,5);
target = (2,11);
type = Stem;
},
{
horizontal = 1;
origin = (2,5);
target = (0,12);
type = Stem;
},
{
origin = (0,22);
target = (1,2);
type = Stem;
},
{
origin = (1,8);
target = (0,2);
type = Stem;
}
);
layerId = "D56600E4-3CB1-46B6-994E-4E22114E2E10";
shapes = (
{
closed = 1;
nodes = (
(304,-6,o),
(369,42,o),
(369,122,cs),
(369,188,o),
(323,235,o),
(243,235,c),
(243,202,l),
(313,202,o),
(358,253,o),
(358,314,cs),
(358,386,o),
(296,433,o),
(200,433,cs),
(103,433,o),
(42,385,o),
(42,313,cs),
(42,251,o),
(88,202,o),
(157,202,c),
(157,235,l),
(77,235,o),
(31,188,o),
(31,121,cs),
(31,42,o),
(96,-6,o),
(200,-6,cs)
);
},
{
closed = 1;
nodes = (
(168,90,o),
(149,106,o),
(149,132,cs),
(149,158,o),
(169,174,o),
(201,174,cs),
(233,174,o),
(252,158,o),
(252,132,cs),
(252,106,o),
(233,90,o),
(200,90,cs)
);
},
{
closed = 1;
nodes = (
(172,260,o),
(154,274,o),
(154,297,cs),
(154,321,o),
(172,335,o),
(200,335,cs),
(228,335,o),
(247,321,o),
(247,297,cs),
(247,274,o),
(229,260,o),
(201,260,cs)
);
}
);
userData = {
RMXScaler = {
height = 61;
weight = -220;
width = 61;
};
};
width = 400;
},
{
layerId = "FF94DDBB-E62A-4F15-93F9-F4255DC66883";
shapes = (
{
closed = 1;
nodes = (
(271,-6,o),
(332,43,o),
(332,113,cs),
(332,181,o),
(274,227,o),
(193,227,c),
(193,215,l),
(266,215,o),
(315,258,o),
(315,320,cs),
(315,383,o),
(263,426,o),
(185,426,cs),
(108,426,o),
(56,383,o),
(56,320,cs),
(56,258,o),
(105,215,o),
(178,215,c),
(178,227,l),
(96,227,o),
(38,181,o),
(38,113,cs),
(38,43,o),
(99,-6,o),
(185,-6,cs)
);
},
{
closed = 1;
nodes = (
(115,18,o),
(65,58,o),
(65,115,cs),
(65,173,o),
(116,209,o),
(185,209,cs),
(255,209,o),
(305,172,o),
(305,115,cs),
(305,58,o),
(255,18,o),
(185,18,cs)
);
},
{
closed = 1;
nodes = (
(123,232,o),
(82,267,o),
(82,318,cs),
(82,368,o),
(123,402,o),
(185,402,cs),
(248,402,o),
(289,368,o),
(289,318,cs),
(289,267,o),
(248,232,o),
(185,232,cs)
);
}
);
userData = {
RMXScaler = {
height = 60;
weight = 23;
width = 60;
};
};
width = 370;
}
);
userData = {
RMXScaler = {
source = eight;
};
};
},
{
glyphname = nine.dnom;
kernLeft = zero.dnom;
kernRight = zero.dnom;
lastChange = "2024-06-28 09:22:26 +0000";
layers = (
{
hints = (
{
horizontal = 1;
origin = (0,18);
target = up;
type = BottomGhost;
},
{
horizontal = 1;
origin = (0,13);
target = (1,11);
type = Stem;
},
{
horizontal = 1;
origin = (1,5);
target = (0,7);
type = Stem;
},
{
origin = (0,10);
target = (1,2);
type = Stem;
},
{
origin = (1,8);
target = (0,4);
type = Stem;
}
);
layerId = "D56600E4-3CB1-46B6-994E-4E22114E2E10";
shapes = (
{
closed = 1;
nodes = (
(207,0,l),
(297,134,ls),
(334,189,o),
(356,237,o),
(356,279,cs),
(356,374,o),
(291,433,o),
(187,433,cs),
(88,433,o),
(20,378,o),
(20,286,cs),
(20,203,o),
(79,142,o),
(163,142,cs),
(199,142,o),
(229,158,o),
(255,185,c),
(206,179,l),
(72,0,l)
);
},
{
closed = 1;
nodes = (
(158,236,o),
(136,257,o),
(136,287,cs),
(136,315,o),
(158,336,o),
(189,336,cs),
(218,336,o),
(240,315,o),
(240,287,cs),
(240,257,o),
(219,236,o),
(189,236,cs)
);
}
);
userData = {
RMXScaler = {
height = 61;
weight = -220;
width = 61;
};
};
width = 383;
},
{
layerId = "FF94DDBB-E62A-4F15-93F9-F4255DC66883";
shapes = (
{
closed = 1;
nodes = (
(139,0,l),
(276,193,ls),
(294,219,o),
(307,250,o),
(307,288,cs),
(307,372,o),
(252,426,o),
(166,426,cs),
(85,426,o),
(27,371,o),
(27,289,cs),
(27,209,o),
(83,151,o),
(162,151,cs),
(192,151,o),
(223,160,o),
(248,183,c),
(241,185,l),
(107,0,l)
);
},
{
closed = 1;
nodes = (
(100,174,o),
(54,222,o),
(54,289,cs),
(54,356,o),
(101,402,o),
(168,402,cs),
(236,402,o),
(281,358,o),
(281,289,cs),
(281,222,o),
(235,174,o),
(166,174,cs)
);
}
);
userData = {
RMXScaler = {
height = 60;
weight = 23;
width = 60;
};
};
width = 342;
}
);
userData = {
RMXScaler = {
source = nine;
};
};
},
{
glyphname = zero.numr;
kernLeft = zerosuperior;
kernRight = zerosuperior;
lastChange = "2024-06-28 09:22:26 +0000";
layers = (
{
hints = (
{
horizontal = 1;
origin = (0,11);
target = (1,11);
type = Stem;
},
{
horizontal = 1;
origin = (0,5);
target = (1,5);
type = Stem;
},
{
origin = (0,8);
target = (1,2);
type = Stem;
},
{
origin = (1,8);
target = (0,2);
type = Stem;
}
);
layerId = "D56600E4-3CB1-46B6-994E-4E22114E2E10";
shapes = (
{
closed = 1;
nodes = (
(306,267,o),
(368,344,o),
(368,485,cs),
(368,628,o),
(306,706,o),
(199,706,cs),
(91,706,o),
(28,628,o),
(28,485,cs),
(28,344,o),
(91,267,o),
(199,267,cs)
);
},
{
closed = 1;
nodes = (
(160,369,o),
(143,404,o),
(143,485,cs),
(143,568,o),
(160,604,o),
(199,604,cs),
(236,604,o),
(253,570,o),
(253,485,cs),
(253,402,o),
(236,369,o),
(199,369,cs)
);
}
);
userData = {
RMXScaler = {
height = 61;
verticalShift = 273;
weight = -220;
width = 61;
};
};
width = 396;
},
{
layerId = "FF94DDBB-E62A-4F15-93F9-F4255DC66883";
shapes = (
{
closed = 1;
nodes = (
(280,274,o),
(336,357,o),
(336,490,cs),
(336,622,o),
(280,706,o),
(188,706,cs),
(98,706,o),
(41,623,o),
(41,490,cs),
(41,356,o),
(98,274,o),
(188,274,cs)
);
},
{
closed = 1;
nodes = (
(113,298,o),
(67,370,o),
(67,490,cs),
(67,609,o),
(113,681,o),
(188,681,cs),
(264,681,o),
(310,608,o),
(310,490,cs),
(310,371,o),
(264,298,o),
(188,298,cs)
);
}
);
userData = {
RMXScaler = {
height = 60;
verticalShift = 280;
weight = 23;
width = 60;
};
};
width = 377;
}
);
userData = {
RMXScaler = {
source = zero;
};
};
},
{
glyphname = one.numr;
kernLeft = zerosuperior;
kernRight = zerosuperior;
lastChange = "2024-06-28 09:22:26 +0000";
layers = (
{
hints = (
{
horizontal = 1;
origin = (1,3);
target = (1,2);
type = Stem;
},
{
horizontal = 1;
origin = (0,5);
target = (0,7);
type = Stem;
},
{
origin = (0,11);
target = (0,1);
type = Stem;
}
);
layerId = "D56600E4-3CB1-46B6-994E-4E22114E2E10";
shapes = (
{
closed = 1;
nodes = (
(233,313,l),
(233,624,ls),
(233,668,o),
(200,700,o),
(156,700,cs),
(29,700,l),
(29,596,l),
(117,596,ls),
(120,596,o),
(122,594,o),
(122,591,cs),
(122,313,l)
);
},
{
closed = 1;
nodes = (
(316,273,l),
(316,377,l),
(35,377,l),
(35,273,l)
);
}
);
userData = {
RMXScaler = {
height = 61;
verticalShift = 273;
weight = -220;
width = 61;
};
};
width = 330;
},
{
layerId = "FF94DDBB-E62A-4F15-93F9-F4255DC66883";
shapes = (
{
closed = 1;
nodes = (
(175,291,l),
(175,637,ls),
(175,674,o),
(149,700,o),
(111,700,cs),
(32,700,l),
(32,675,l),
(106,675,ls),
(131,675,o),
(148,657,o),
(148,632,cs),
(148,291,l)
);
},
{
closed = 1;
nodes = (
(295,280,l),
(295,304,l),
(28,304,l),
(28,280,l)
);
}
);
userData = {
RMXScaler = {
height = 60;
verticalShift = 280;
weight = 23;
width = 60;
};
};
width = 304;
}
);
userData = {
RMXScaler = {
source = one;
};
};
},
{
glyphname = two.numr;
kernLeft = zerosuperior;
kernRight = zerosuperior;
lastChange = "2024-06-28 09:22:26 +0000";
layers = (
{
hints = (
{
horizontal = 1;
origin = (0,25);
target = (0,2);
type = Stem;
},
{
horizontal = 1;
origin = (0,10);
target = (0,17);
type = Stem;
},
{
origin = (0,20);
target = (0,7);
type = Stem;
}
);
layerId = "D56600E4-3CB1-46B6-994E-4E22114E2E10";
shapes = (
{
closed = 1;
nodes = (
(337,273,l),
(337,375,l),
(154,375,l),
(159,343,l),
(245,430,ls),
(294,480,o),
(318,528,o),
(318,577,cs),
(318,652,o),
(253,706,o),
(167,706,cs),
(104,706,o),
(54,676,o),
(17,623,c),
(89,551,l),
(115,584,o),
(134,599,o),
(163,599,cs),
(187,599,o),
(202,583,o),
(202,564,cs),
(202,539,o),
(190,517,o),
(167,494,cs),
(29,357,l),
(29,273,l)
);
}
);
userData = {
RMXScaler = {
height = 61;
verticalShift = 273;
weight = -220;
width = 61;
};
};
width = 364;
},
{
layerId = "FF94DDBB-E62A-4F15-93F9-F4255DC66883";
shapes = (
{
closed = 1;
nodes = (
(299,280,l),
(299,304,l),
(61,304,l),
(63,298,l),
(211,449,ls),
(271,509,o),
(283,548,o),
(283,584,cs),
(283,658,o),
(236,706,o),
(159,706,cs),
(108,706,o),
(60,678,o),
(31,631,c),
(49,614,l),
(75,657,o),
(115,681,o),
(158,681,cs),
(218,681,o),
(256,645,o),
(256,583,cs),
(256,551,o),
(245,518,o),
(192,464,cs),
(30,299,l),
(30,280,l)
);
}
);
userData = {
RMXScaler = {
height = 60;
verticalShift = 280;
weight = 23;
width = 60;
};
};
width = 329;
}
);
userData = {
RMXScaler = {
source = two;
};
};
},
{
glyphname = three.numr;
kernLeft = zerosuperior;
kernRight = zerosuperior;
lastChange = "2024-06-28 09:22:26 +0000";
layers = (
{
hints = (
{
horizontal = 1;
origin = (0,41);
target = (0,34);
type = Stem;
},
{
horizontal = 1;
origin = (0,12);
target = (0,19);
type = Stem;
},
{
horizontal = 1;
origin = (0,28);
target = (0,26);
type = Stem;
},
{
origin = (0,31);
target = (0,2);
type = Stem;
}
);
layerId = "D56600E4-3CB1-46B6-994E-4E22114E2E10";
shapes = (
{
closed = 1;
nodes = (
(259,267,o),
(332,319,o),
(332,398,cs),
(332,463,o),
(289,518,o),
(184,518,c),
(184,462,l),
(272,462,o),
(323,515,o),
(323,583,cs),
(323,656,o),
(262,706,o),
(170,706,cs),
(114,706,o),
(59,684,o),
(18,642,c),
(81,566,l),
(108,597,o),
(135,610,o),
(165,610,cs),
(196,610,o),
(212,594,o),
(212,569,cs),
(212,546,o),
(194,533,o),
(172,533,cs),
(113,533,l),
(113,437,l),
(181,437,ls),
(202,437,o),
(220,425,o),
(220,403,cs),
(220,377,o),
(199,361,o),
(164,361,cs),
(131,361,o),
(105,374,o),
(77,402,c),
(15,327,l),
(58,285,o),
(107,267,o),
(163,267,cs)
);
}
);
userData = {
RMXScaler = {
height = 61;
verticalShift = 273;
weight = -220;
width = 61;
};
};
width = 360;
},
{
layerId = "FF94DDBB-E62A-4F15-93F9-F4255DC66883";
shapes = (
{
closed = 1;
nodes = (
(239,274,o),
(298,321,o),
(298,389,cs),
(298,452,o),
(248,499,o),
(152,499,c),
(152,486,l),
(237,486,o),
(287,536,o),
(287,599,cs),
(287,665,o),
(232,706,o),
(156,706,cs),
(99,706,o),
(59,683,o),
(39,663,c),
(53,644,l),
(73,664,o),
(109,682,o),
(155,682,cs),
(217,682,o),
(261,649,o),
(261,596,cs),
(261,546,o),
(220,504,o),
(151,504,cs),
(94,504,l),
(94,480,l),
(152,480,ls),
(226,480,o),
(272,444,o),
(272,390,cs),
(272,335,o),
(224,297,o),
(157,297,cs),
(98,297,o),
(63,319,o),
(41,340,c),
(24,322,l),
(51,296,o),
(92,274,o),
(156,274,cs)
);
}
);
userData = {
RMXScaler = {
height = 60;
verticalShift = 280;
weight = 23;
width = 60;
};
};
width = 339;
}
);
userData = {
RMXScaler = {
source = three;
};
};
},
{
glyphname = four.numr;
kernLeft = zerosuperior;
kernRight = zerosuperior;
lastChange = "2024-06-28 09:22:26 +0000";
layers = (
{
hints = (
{
horizontal = 1;
origin = (0,7);
target = (0,2);
type = Stem;
},
{
horizontal = 1;
origin = (0,5);
target = down;
type = TopGhost;
},
{
origin = (1,3);
target = (1,1);
type = Stem;
}
);
layerId = "D56600E4-3CB1-46B6-994E-4E22114E2E10";
shapes = (
{
closed = 1;
nodes = (
(359,356,l),
(359,455,l),
(97,455,l),
(123,421,l),
(243,700,l),
(132,700,l),
(19,449,l),
(19,356,l)
);
},
{
closed = 1;
nodes = (
(311,273,l),
(311,551,l),
(202,551,l),
(202,273,l)
);
}
);
userData = {
RMXScaler = {
height = 61;
verticalShift = 273;
weight = -220;
width = 61;
};
};
width = 377;
},
{
layerId = "FF94DDBB-E62A-4F15-93F9-F4255DC66883";
shapes = (
{
closed = 1;
nodes = (
(329,391,l),
(329,414,l),
(50,414,l),
(56,408,l),
(209,700,l),
(181,700,l),
(29,413,l),
(29,391,l)
);
},
{
closed = 1;
nodes = (
(255,280,l),
(255,535,l),
(228,535,l),
(228,280,l)
);
}
);
userData = {
RMXScaler = {
height = 60;
verticalShift = 280;
weight = 23;
width = 60;
};
};
width = 348;
}
);
userData = {
RMXScaler = {
source = four;
};
};
},
{
glyphname = five.numr;
kernLeft = zerosuperior;
kernRight = zerosuperior;
lastChange = "2024-06-28 09:22:26 +0000";
layers = (
{
hints = (
{
horizontal = 1;
origin = (0,37);
target = (0,30);
type = Stem;
},
{
horizontal = 1;
origin = (0,16);
target = (0,14);
type = Stem;
},
{
horizontal = 1;
origin = (0,24);
target = (0,5);
type = Stem;
},
{
origin = (0,19);
target = (0,10);
type = Stem;
},
{
origin = (0,27);
target = (0,2);
type = Stem;
}
);
layerId = "D56600E4-3CB1-46B6-994E-4E22114E2E10";
shapes = (
{
closed = 1;
nodes = (
(262,267,o),
(335,320,o),
(335,414,cs),
(335,493,o),
(279,544,o),
(202,544,cs),
(149,544,o),
(120,521,o),
(106,478,c),
(151,479,l),
(153,601,ls),
(153,600,o),
(152,601,o),
(151,601,cs),
(321,601,l),
(321,700,l),
(126,700,ls),
(85,700,o),
(50,671,o),
(50,626,cs),
(49,431,l),
(138,431,l),
(149,444,o),
(162,449,o),
(178,449,cs),
(206,449,o),
(223,434,o),
(223,409,cs),
(223,380,o),
(204,361,o),
(167,361,cs),
(135,361,o),
(109,373,o),
(80,402,c),
(18,327,l),
(62,284,o),
(111,267,o),
(166,267,cs)
);
}
);
userData = {
RMXScaler = {
height = 61;
verticalShift = 273;
weight = -220;
width = 61;
};
};
width = 362;
},
{
layerId = "FF94DDBB-E62A-4F15-93F9-F4255DC66883";
shapes = (
{
closed = 1;
nodes = (
(246,274,o),
(306,327,o),
(306,413,cs),
(306,488,o),
(260,541,o),
(183,541,cs),
(126,541,o),
(86,512,o),
(71,473,c),
(78,472,l),
(87,641,ls),
(88,659,o),
(103,676,o),
(126,676,cs),
(285,676,l),
(285,700,l),
(122,700,ls),
(98,700,o),
(64,684,o),
(62,645,cs),
(53,449,l),
(76,449,l),
(90,492,o),
(128,518,o),
(178,518,cs),
(244,518,o),
(281,473,o),
(281,412,cs),
(281,341,o),
(233,297,o),
(160,297,cs),
(110,297,o),
(70,317,o),
(46,340,c),
(30,322,l),
(58,294,o),
(104,274,o),
(158,274,cs)
);
}
);
userData = {
RMXScaler = {
height = 60;
verticalShift = 280;
weight = 23;
width = 60;
};
};
width = 340;
}
);
userData = {
RMXScaler = {
source = five;
};
};
},
{
glyphname = six.numr;
kernLeft = zerosuperior;
kernRight = zerosuperior;
lastChange = "2024-06-28 09:22:26 +0000";
layers = (
{
hints = (
{
horizontal = 1;
origin = (0,18);
target = (1,11);
type = Stem;
},
{
horizontal = 1;
origin = (1,5);
target = (0,5);
type = Stem;
},
{
horizontal = 1;
origin = (0,11);
target = down;
type = TopGhost;
},
{
origin = (0,15);
target = (1,2);
type = Stem;
},
{
origin = (1,8);
target = (0,2);
type = Stem;
}
);
layerId = "D56600E4-3CB1-46B6-994E-4E22114E2E10";
shapes = (
{
closed = 1;
nodes = (
(292,267,o),
(360,322,o),
(360,414,cs),
(360,497,o),
(301,558,o),
(216,558,cs),
(181,558,o),
(151,542,o),
(125,515,c),
(174,521,l),
(308,700,l),
(173,700,l),
(83,566,ls),
(46,511,o),
(24,463,o),
(24,421,cs),
(24,326,o),
(89,267,o),
(193,267,cs)
);
},
{
closed = 1;
nodes = (
(162,364,o),
(140,385,o),
(140,413,cs),
(140,443,o),
(161,464,o),
(191,464,cs),
(222,464,o),
(244,443,o),
(244,413,cs),
(244,385,o),
(222,364,o),
(191,364,cs)
);
}
);
userData = {
RMXScaler = {
height = 61;
verticalShift = 273;
weight = -220;
width = 61;
};
};
width = 380;
},
{
layerId = "FF94DDBB-E62A-4F15-93F9-F4255DC66883";
shapes = (
{
closed = 1;
nodes = (
(257,274,o),
(314,329,o),
(314,411,cs),
(314,491,o),
(259,549,o),
(181,549,cs),
(149,549,o),
(118,540,o),
(93,517,c),
(101,515,l),
(236,700,l),
(203,700,l),
(66,507,ls),
(48,481,o),
(35,450,o),
(35,412,cs),
(35,328,o),
(90,274,o),
(175,274,cs)
);
},
{
closed = 1;
nodes = (
(107,298,o),
(62,342,o),
(62,411,cs),
(62,478,o),
(107,526,o),
(177,526,cs),
(243,526,o),
(289,478,o),
(289,411,cs),
(289,344,o),
(242,298,o),
(174,298,cs)
);
}
);
userData = {
RMXScaler = {
height = 60;
verticalShift = 280;
weight = 23;
width = 60;
};
};
width = 342;
}
);
userData = {
RMXScaler = {
source = six;
};
};
},
{
glyphname = seven.numr;
kernLeft = zerosuperior;
kernRight = zerosuperior;
lastChange = "2024-06-28 09:22:26 +0000";
layers = (
{
hints = (
{
horizontal = 1;
origin = (0,3);
target = (0,5);
type = Stem;
}
);
layerId = "D56600E4-3CB1-46B6-994E-4E22114E2E10";
shapes = (
{
closed = 1;
nodes = (
(165,273,l),
(328,621,l),
(328,700,l),
(19,700,l),
(19,599,l),
(242,599,l),
(217,626,l),
(39,273,l)
);
}
);
userData = {
RMXScaler = {
height = 61;
verticalShift = 273;
weight = -220;
width = 61;
};
};
width = 343;
},
{
layerId = "FF94DDBB-E62A-4F15-93F9-F4255DC66883";
shapes = (
{
closed = 1;
nodes = (
(93,280,l),
(298,682,l),
(298,700,l),
(15,700,l),
(15,676,l),
(277,676,l),
(272,684,l),
(63,280,l)
);
}
);
userData = {
RMXScaler = {
height = 60;
verticalShift = 280;
weight = 23;
width = 60;
};
};
width = 316;
}
);
userData = {
RMXScaler = {
source = seven;
};
};
},
{
glyphname = eight.numr;
kernLeft = zerosuperior;
kernRight = zerosuperior;
lastChange = "2024-06-28 09:22:26 +0000";
layers = (
{
hints = (
{
horizontal = 1;
origin = (0,25);
target = (1,11);
type = Stem;
},
{
horizontal = 1;
origin = (0,12);
target = (2,5);
type = Stem;
},
{
horizontal = 1;
origin = (1,5);
target = (2,11);
type = Stem;
},
{
origin = (0,22);
target = (1,2);
type = Stem;
},
{
origin = (1,8);
target = (0,2);
type = Stem;
}
);
layerId = "D56600E4-3CB1-46B6-994E-4E22114E2E10";
shapes = (
{
closed = 1;
nodes = (
(300,267,o),
(365,315,o),
(365,395,cs),
(365,461,o),
(319,508,o),
(239,508,c),
(239,475,l),
(309,475,o),
(354,526,o),
(354,587,cs),
(354,659,o),
(292,706,o),
(196,706,cs),
(99,706,o),
(38,658,o),
(38,586,cs),
(38,524,o),
(84,475,o),
(153,475,c),
(153,508,l),
(73,508,o),
(27,461,o),
(27,394,cs),
(27,315,o),
(92,267,o),
(196,267,cs)
);
},
{
closed = 1;
nodes = (
(164,363,o),
(145,379,o),
(145,405,cs),
(145,431,o),
(165,447,o),
(197,447,cs),
(229,447,o),
(248,431,o),
(248,405,cs),
(248,379,o),
(229,363,o),
(196,363,cs)
);
},
{
closed = 1;
nodes = (
(168,533,o),
(150,547,o),
(150,570,cs),
(150,594,o),
(168,608,o),
(196,608,cs),
(224,608,o),
(243,594,o),
(243,570,cs),
(243,547,o),
(225,533,o),
(197,533,cs)
);
}
);
userData = {
RMXScaler = {
height = 61;
verticalShift = 273;
weight = -220;
width = 61;
};
};
width = 392;
},
{
layerId = "FF94DDBB-E62A-4F15-93F9-F4255DC66883";
shapes = (
{
closed = 1;
nodes = (
(271,274,o),
(331,322,o),
(331,392,cs),
(331,461,o),
(274,506,o),
(192,506,c),
(192,495,l),
(266,495,o),
(315,537,o),
(315,599,cs),
(315,663,o),
(263,706,o),
(185,706,cs),
(107,706,o),
(56,663,o),
(56,599,cs),
(56,537,o),
(105,495,o),
(178,495,c),
(178,506,l),
(95,506,o),
(38,461,o),
(38,392,cs),
(38,322,o),
(99,274,o),
(185,274,cs)
);
},
{
closed = 1;
nodes = (
(115,298,o),
(65,338,o),
(65,395,cs),
(65,452,o),
(116,489,o),
(185,489,cs),
(255,489,o),
(305,452,o),
(305,395,cs),
(305,338,o),
(255,298,o),
(185,298,cs)
);
},
{
closed = 1;
nodes = (
(122,512,o),
(82,546,o),
(82,597,cs),
(82,647,o),
(122,682,o),
(185,682,cs),
(247,682,o),
(289,647,o),
(289,597,cs),
(289,546,o),
(247,512,o),
(185,512,cs)
);
}
);
userData = {
RMXScaler = {
height = 60;
verticalShift = 280;
weight = 23;
width = 60;
};
};
width = 370;
}
);
userData = {
RMXScaler = {
source = eight;
};
};
},
{
glyphname = nine.numr;
kernLeft = zerosuperior;
kernRight = zerosuperior;
lastChange = "2024-06-28 09:22:26 +0000";
layers = (
{
hints = (
{
horizontal = 1;
origin = (0,7);
target = (1,5);
type = Stem;
},
{
horizontal = 1;
origin = (0,13);
target = (1,11);
type = Stem;
},
{
origin = (0,10);
target = (1,2);
type = Stem;
},
{
origin = (1,8);
target = (0,4);
type = Stem;
}
);
layerId = "D56600E4-3CB1-46B6-994E-4E22114E2E10";
shapes = (
{
closed = 1;
nodes = (
(207,273,l),
(297,407,ls),
(334,462,o),
(356,510,o),
(356,552,cs),
(356,647,o),
(291,706,o),
(187,706,cs),
(88,706,o),
(20,651,o),
(20,559,cs),
(20,476,o),
(79,415,o),
(163,415,cs),
(199,415,o),
(229,431,o),
(255,458,c),
(206,452,l),
(72,273,l)
);
},
{
closed = 1;
nodes = (
(158,509,o),
(136,530,o),
(136,560,cs),
(136,588,o),
(158,609,o),
(189,609,cs),
(218,609,o),
(240,588,o),
(240,560,cs),
(240,530,o),
(219,509,o),
(189,509,cs)
);
}
);
userData = {
RMXScaler = {
height = 61;
verticalShift = 273;
weight = -220;
width = 61;
};
};
width = 380;
},
{
layerId = "FF94DDBB-E62A-4F15-93F9-F4255DC66883";
shapes = (
{
closed = 1;
nodes = (
(139,280,l),
(276,472,ls),
(294,498,o),
(307,530,o),
(307,568,cs),
(307,652,o),
(252,706,o),
(166,706,cs),
(85,706,o),
(27,650,o),
(27,568,cs),
(27,488,o),
(83,431,o),
(162,431,cs),
(192,431,o),
(223,439,o),
(248,463,c),
(241,464,l),
(107,280,l)
);
},
{
closed = 1;
nodes = (
(100,454,o),
(54,501,o),
(54,568,cs),
(54,636,o),
(101,682,o),
(168,682,cs),
(236,682,o),
(281,637,o),
(281,568,cs),
(281,501,o),
(235,454,o),
(166,454,cs)
);
}
);
userData = {
RMXScaler = {
height = 60;
verticalShift = 280;
weight = 23;
width = 60;
};
};
width = 342;
}
);
userData = {
RMXScaler = {
source = nine;
};
};
},
{
glyphname = fraction;
lastChange = "2024-06-28 09:22:26 +0000";
layers = (
{
layerId = "D56600E4-3CB1-46B6-994E-4E22114E2E10";
shapes = (
{
closed = 1;
nodes = (
(-20,0,l),
(171,329,l),
(391,700,l),
(261,700,l),
(63,357,l),
(-151,0,l)
);
}
);
width = 240;
},
{
layerId = "FF94DDBB-E62A-4F15-93F9-F4255DC66883";
shapes = (
{
closed = 1;
nodes = (
(-129,0,l),
(82,326,l),
(325,700,l),
(294,700,l),
(59,338,l),
(-160,0,l)
);
}
);
width = 165;
}
);
unicode = 8260;
},
{
glyphname = zeroinferior;
kernLeft = zeroinferior;
kernRight = zeroinferior;
lastChange = "2024-06-28 09:22:26 +0000";
layers = (
{
hints = (
{
horizontal = 1;
origin = (0,11);
target = (1,11);
type = Stem;
},
{
horizontal = 1;
origin = (1,5);
target = (0,5);
type = Stem;
},
{
origin = (0,8);
target = (1,2);
type = Stem;
},
{
origin = (1,8);
target = (0,2);
type = Stem;
}
);
layerId = "D56600E4-3CB1-46B6-994E-4E22114E2E10";
shapes = (
{
closed = 1;
nodes = (
(310,-186,o),
(372,-109,o),
(372,32,cs),
(372,175,o),
(310,253,o),
(203,253,cs),
(95,253,o),
(32,175,o),
(32,32,cs),
(32,-109,o),
(95,-186,o),
(203,-186,cs)
);
},
{
closed = 1;
nodes = (
(164,-84,o),
(147,-49,o),
(147,32,cs),
(147,115,o),
(164,151,o),
(203,151,cs),
(240,151,o),
(257,117,o),
(257,32,cs),
(257,-51,o),
(240,-84,o),
(203,-84,cs)
);
}
);
userData = {
RMXScaler = {
height = 61;
verticalShift = -180;
weight = -220;
width = 61;
};
};
width = 404;
},
{
layerId = "FF94DDBB-E62A-4F15-93F9-F4255DC66883";
shapes = (
{
closed = 1;
nodes = (
(280,-186,o),
(337,-102,o),
(337,30,cs),
(337,163,o),
(280,246,o),
(188,246,cs),
(98,246,o),
(41,164,o),
(41,30,cs),
(41,-103,o),
(98,-186,o),
(188,-186,cs)
);
},
{
closed = 1;
nodes = (
(114,-161,o),
(68,-89,o),
(68,30,cs),
(68,150,o),
(114,222,o),
(188,222,cs),
(264,222,o),
(310,149,o),
(310,30,cs),
(310,-88,o),
(264,-161,o),
(188,-161,cs)
);
}
);
userData = {
RMXScaler = {
height = 60;
verticalShift = -180;
weight = 23;
width = 60;
};
};
width = 378;
}
);
unicode = 8320;
userData = {
RMXScaler = {
source = zero;
};
};
},
{
glyphname = oneinferior;
kernLeft = zeroinferior;
kernRight = zeroinferior;
lastChange = "2024-06-28 09:22:26 +0000";
layers = (
{
hints = (
{
horizontal = 1;
origin = (1,3);
target = (1,2);
type = Stem;
},
{
horizontal = 1;
origin = (0,7);
target = (0,5);
type = Stem;
},
{
origin = (0,11);
target = (0,1);
type = Stem;
}
);
layerId = "D56600E4-3CB1-46B6-994E-4E22114E2E10";
shapes = (
{
closed = 1;
nodes = (
(236,-140,l),
(236,171,ls),
(236,215,o),
(203,247,o),
(159,247,cs),
(32,247,l),
(32,143,l),
(120,143,ls),
(123,143,o),
(125,141,o),
(125,138,cs),
(125,-140,l)
);
},
{
closed = 1;
nodes = (
(319,-180,l),
(319,-76,l),
(38,-76,l),
(38,-180,l)
);
}
);
userData = {
RMXScaler = {
height = 61;
verticalShift = -180;
weight = -220;
width = 61;
};
};
width = 336;
},
{
layerId = "FF94DDBB-E62A-4F15-93F9-F4255DC66883";
shapes = (
{
closed = 1;
nodes = (
(175,-169,l),
(175,178,ls),
(175,214,o),
(149,240,o),
(111,240,cs),
(32,240,l),
(32,216,l),
(106,216,ls),
(131,216,o),
(148,197,o),
(148,173,cs),
(148,-169,l)
);
},
{
closed = 1;
nodes = (
(296,-180,l),
(296,-155,l),
(28,-155,l),
(28,-180,l)
);
}
);
userData = {
RMXScaler = {
height = 60;
verticalShift = -180;
weight = 23;
width = 60;
};
};
width = 304;
}
);
unicode = 8321;
userData = {
RMXScaler = {
source = one;
};
};
},
{
glyphname = twoinferior;
kernLeft = zeroinferior;
kernRight = zeroinferior;
lastChange = "2024-06-28 09:22:26 +0000";
layers = (
{
hints = (
{
horizontal = 1;
origin = (0,25);
target = (0,2);
type = Stem;
},
{
horizontal = 1;
origin = (0,17);
target = (0,10);
type = Stem;
},
{
origin = (0,20);
target = (0,7);
type = Stem;
}
);
layerId = "D56600E4-3CB1-46B6-994E-4E22114E2E10";
shapes = (
{
closed = 1;
nodes = (
(341,-180,l),
(341,-78,l),
(158,-78,l),
(163,-110,l),
(249,-23,ls),
(298,27,o),
(322,75,o),
(322,124,cs),
(322,199,o),
(257,253,o),
(171,253,cs),
(108,253,o),
(58,223,o),
(21,170,c),
(93,98,l),
(119,131,o),
(138,146,o),
(167,146,cs),
(191,146,o),
(206,130,o),
(206,111,cs),
(206,86,o),
(194,64,o),
(171,41,cs),
(33,-96,l),
(33,-180,l)
);
}
);
userData = {
RMXScaler = {
height = 61;
verticalShift = -180;
weight = -220;
width = 61;
};
};
width = 369;
},
{
layerId = "FF94DDBB-E62A-4F15-93F9-F4255DC66883";
shapes = (
{
closed = 1;
nodes = (
(299,-180,l),
(299,-155,l),
(61,-155,l),
(63,-161,l),
(212,-11,ls),
(271,49,o),
(283,88,o),
(283,125,cs),
(283,198,o),
(236,246,o),
(159,246,cs),
(108,246,o),
(60,218,o),
(31,172,c),
(49,155,l),
(75,197,o),
(116,222,o),
(159,222,cs),
(218,222,o),
(256,185,o),
(256,123,cs),
(256,92,o),
(245,58,o),
(192,5,cs),
(30,-160,l),
(30,-180,l)
);
}
);
userData = {
RMXScaler = {
height = 60;
verticalShift = -180;
weight = 23;
width = 60;
};
};
width = 329;
}
);
unicode = 8322;
userData = {
RMXScaler = {
source = two;
};
};
},
{
glyphname = threeinferior;
kernLeft = zeroinferior;
kernRight = zeroinferior;
lastChange = "2024-06-28 09:22:26 +0000";
layers = (
{
hints = (
{
horizontal = 1;
origin = (0,41);
target = (0,34);
type = Stem;
},
{
horizontal = 1;
origin = (0,28);
target = (0,26);
type = Stem;
},
{
horizontal = 1;
origin = (0,19);
target = (0,12);
type = Stem;
},
{
origin = (0,22);
target = (0,9);
type = Stem;
}
);
layerId = "D56600E4-3CB1-46B6-994E-4E22114E2E10";
shapes = (
{
closed = 1;
nodes = (
(263,-186,o),
(336,-134,o),
(336,-55,cs),
(336,10,o),
(293,65,o),
(188,65,c),
(188,9,l),
(276,9,o),
(327,62,o),
(327,130,cs),
(327,203,o),
(266,253,o),
(174,253,cs),
(118,253,o),
(63,231,o),
(22,189,c),
(85,113,l),
(112,144,o),
(139,157,o),
(169,157,cs),
(200,157,o),
(216,141,o),
(216,116,cs),
(216,93,o),
(198,80,o),
(176,80,cs),
(117,80,l),
(117,-16,l),
(185,-16,ls),
(206,-16,o),
(224,-28,o),
(224,-50,cs),
(224,-76,o),
(203,-92,o),
(168,-92,cs),
(135,-92,o),
(109,-79,o),
(81,-51,c),
(19,-126,l),
(62,-168,o),
(111,-186,o),
(167,-186,cs)
);
}
);
userData = {
RMXScaler = {
height = 61;
verticalShift = -180;
weight = -220;
width = 61;
};
};
width = 368;
},
{
layerId = "FF94DDBB-E62A-4F15-93F9-F4255DC66883";
shapes = (
{
closed = 1;
nodes = (
(240,-186,o),
(299,-139,o),
(299,-71,cs),
(299,-8,o),
(248,40,o),
(153,40,c),
(153,27,l),
(238,27,o),
(287,77,o),
(287,139,cs),
(287,206,o),
(232,246,o),
(156,246,cs),
(99,246,o),
(59,224,o),
(39,204,c),
(53,185,l),
(73,205,o),
(109,222,o),
(155,222,cs),
(218,222,o),
(261,190,o),
(261,137,cs),
(261,86,o),
(220,45,o),
(151,45,cs),
(95,45,l),
(95,20,l),
(152,20,ls),
(227,20,o),
(273,-16,o),
(273,-70,cs),
(273,-125,o),
(224,-163,o),
(157,-163,cs),
(99,-163,o),
(63,-141,o),
(41,-119,c),
(25,-137,l),
(52,-163,o),
(92,-186,o),
(156,-186,cs)
);
}
);
userData = {
RMXScaler = {
height = 60;
verticalShift = -180;
weight = 23;
width = 60;
};
};
width = 339;
}
);
unicode = 8323;
userData = {
RMXScaler = {
source = three;
};
};
},
{
glyphname = fourinferior;
kernLeft = zeroinferior;
kernRight = zeroinferior;
lastChange = "2024-06-28 09:22:26 +0000";
layers = (
{
hints = (
{
horizontal = 1;
origin = (0,7);
target = (0,2);
type = Stem;
},
{
origin = (1,3);
target = (1,1);
type = Stem;
}
);
layerId = "D56600E4-3CB1-46B6-994E-4E22114E2E10";
shapes = (
{
closed = 1;
nodes = (
(361,-97,l),
(361,2,l),
(99,2,l),
(125,-32,l),
(245,247,l),
(134,247,l),
(21,-4,l),
(21,-97,l)
);
},
{
closed = 1;
nodes = (
(313,-180,l),
(313,98,l),
(204,98,l),
(204,-180,l)
);
}
);
userData = {
RMXScaler = {
height = 61;
verticalShift = -180;
weight = -220;
width = 61;
};
};
width = 381;
},
{
layerId = "FF94DDBB-E62A-4F15-93F9-F4255DC66883";
shapes = (
{
closed = 1;
nodes = (
(329,-69,l),
(329,-46,l),
(50,-46,l),
(56,-52,l),
(210,240,l),
(182,240,l),
(29,-47,l),
(29,-69,l)
);
},
{
closed = 1;
nodes = (
(255,-180,l),
(255,76,l),
(228,76,l),
(228,-180,l)
);
}
);
userData = {
RMXScaler = {
height = 60;
verticalShift = -180;
weight = 23;
width = 60;
};
};
width = 348;
}
);
unicode = 8324;
userData = {
RMXScaler = {
source = four;
};
};
},
{
glyphname = fiveinferior;
kernLeft = zeroinferior;
kernRight = zeroinferior;
lastChange = "2024-06-28 09:22:26 +0000";
layers = (
{
hints = (
{
horizontal = 1;
origin = (0,37);
target = (0,30);
type = Stem;
},
{
horizontal = 1;
origin = (0,24);
target = (0,5);
type = Stem;
},
{
horizontal = 1;
origin = (0,14);
target = (0,16);
type = Stem;
},
{
origin = (0,19);
target = (0,10);
type = Stem;
},
{
origin = (0,27);
target = (0,2);
type = Stem;
}
);
layerId = "D56600E4-3CB1-46B6-994E-4E22114E2E10";
shapes = (
{
closed = 1;
nodes = (
(265,-186,o),
(338,-133,o),
(338,-39,cs),
(338,40,o),
(282,91,o),
(205,91,cs),
(149,91,o),
(123,65,o),
(110,26,c),
(154,26,l),
(156,143,ls),
(156,146,o),
(158,148,o),
(161,148,cs),
(324,148,l),
(324,247,l),
(129,247,ls),
(88,247,o),
(53,218,o),
(53,173,cs),
(52,-22,l),
(141,-22,l),
(152,-9,o),
(165,-4,o),
(181,-4,cs),
(209,-4,o),
(226,-19,o),
(226,-44,cs),
(226,-73,o),
(207,-92,o),
(170,-92,cs),
(138,-92,o),
(112,-80,o),
(83,-51,c),
(21,-126,l),
(65,-169,o),
(114,-186,o),
(169,-186,cs)
);
}
);
userData = {
RMXScaler = {
height = 61;
verticalShift = -180;
weight = -220;
width = 61;
};
};
width = 368;
},
{
layerId = "FF94DDBB-E62A-4F15-93F9-F4255DC66883";
shapes = (
{
closed = 1;
nodes = (
(246,-186,o),
(306,-133,o),
(306,-46,cs),
(306,29,o),
(261,82,o),
(184,82,cs),
(126,82,o),
(87,52,o),
(71,14,c),
(78,13,l),
(87,181,ls),
(88,199,o),
(103,216,o),
(126,216,cs),
(285,216,l),
(285,240,l),
(122,240,ls),
(98,240,o),
(64,225,o),
(62,185,cs),
(53,-11,l),
(77,-11,l),
(90,32,o),
(129,59,o),
(178,59,cs),
(244,59,o),
(281,14,o),
(281,-48,cs),
(281,-119,o),
(233,-163,o),
(160,-163,cs),
(110,-163,o),
(70,-143,o),
(47,-119,c),
(30,-137,l),
(58,-165,o),
(104,-186,o),
(158,-186,cs)
);
}
);
userData = {
RMXScaler = {
height = 60;
verticalShift = -180;
weight = 23;
width = 60;
};
};
width = 340;
}
);
unicode = 8325;
userData = {
RMXScaler = {
source = five;
};
};
},
{
glyphname = sixinferior;
kernLeft = zeroinferior;
kernRight = zeroinferior;
lastChange = "2024-06-28 09:22:26 +0000";
layers = (
{
hints = (
{
horizontal = 1;
origin = (0,18);
target = (1,11);
type = Stem;
},
{
horizontal = 1;
origin = (1,5);
target = (0,5);
type = Stem;
},
{
origin = (0,15);
target = (1,2);
type = Stem;
},
{
origin = (1,8);
target = (0,2);
type = Stem;
}
);
layerId = "D56600E4-3CB1-46B6-994E-4E22114E2E10";
shapes = (
{
closed = 1;
nodes = (
(295,-186,o),
(363,-131,o),
(363,-39,cs),
(363,44,o),
(304,105,o),
(219,105,cs),
(184,105,o),
(154,89,o),
(128,62,c),
(177,68,l),
(311,247,l),
(176,247,l),
(86,113,ls),
(49,58,o),
(27,10,o),
(27,-32,cs),
(27,-127,o),
(92,-186,o),
(196,-186,cs)
);
},
{
closed = 1;
nodes = (
(165,-89,o),
(143,-68,o),
(143,-40,cs),
(143,-10,o),
(164,11,o),
(194,11,cs),
(225,11,o),
(247,-10,o),
(247,-40,cs),
(247,-68,o),
(225,-89,o),
(194,-89,cs)
);
}
);
userData = {
RMXScaler = {
height = 61;
verticalShift = -180;
weight = -220;
width = 61;
};
};
width = 383;
},
{
layerId = "FF94DDBB-E62A-4F15-93F9-F4255DC66883";
shapes = (
{
closed = 1;
nodes = (
(257,-186,o),
(314,-130,o),
(314,-48,cs),
(314,32,o),
(259,89,o),
(181,89,cs),
(149,89,o),
(119,81,o),
(93,57,c),
(101,56,l),
(236,240,l),
(203,240,l),
(66,48,ls),
(48,22,o),
(35,-10,o),
(35,-48,cs),
(35,-132,o),
(90,-186,o),
(175,-186,cs)
);
},
{
closed = 1;
nodes = (
(107,-162,o),
(62,-117,o),
(62,-48,cs),
(62,19,o),
(107,66,o),
(177,66,cs),
(243,66,o),
(289,18,o),
(289,-48,cs),
(289,-116,o),
(242,-162,o),
(174,-162,cs)
);
}
);
userData = {
RMXScaler = {
height = 60;
verticalShift = -180;
weight = 23;
width = 60;
};
};
width = 342;
}
);
unicode = 8326;
userData = {
RMXScaler = {
source = six;
};
};
},
{
glyphname = seveninferior;
kernLeft = zeroinferior;
kernRight = zeroinferior;
lastChange = "2024-06-28 09:22:26 +0000";
layers = (
{
hints = (
{
horizontal = 1;
origin = (0,7);
target = (0,6);
type = Stem;
}
);
layerId = "D56600E4-3CB1-46B6-994E-4E22114E2E10";
shapes = (
{
closed = 1;
nodes = (
(244,146,l),
(219,173,l),
(41,-180,l),
(167,-180,l),
(330,168,l),
(330,247,l),
(21,247,l),
(21,146,l)
);
}
);
userData = {
RMXScaler = {
height = 61;
verticalShift = -180;
weight = -220;
width = 61;
};
};
width = 348;
},
{
layerId = "FF94DDBB-E62A-4F15-93F9-F4255DC66883";
shapes = (
{
closed = 1;
nodes = (
(277,216,l),
(272,224,l),
(63,-180,l),
(93,-180,l),
(298,222,l),
(298,240,l),
(15,240,l),
(15,216,l)
);
}
);
userData = {
RMXScaler = {
height = 60;
verticalShift = -180;
weight = 23;
width = 60;
};
};
width = 316;
}
);
unicode = 8327;
userData = {
RMXScaler = {
source = seven;
};
};
},
{
glyphname = eightinferior;
kernLeft = zeroinferior;
kernRight = zeroinferior;
lastChange = "2024-06-28 09:22:26 +0000";
layers = (
{
hints = (
{
horizontal = 1;
origin = (0,25);
target = (1,11);
type = Stem;
},
{
horizontal = 1;
origin = (1,5);
target = (2,11);
type = Stem;
},
{
horizontal = 1;
origin = (2,5);
target = (0,12);
type = Stem;
},
{
origin = (0,22);
target = (1,2);
type = Stem;
},
{
origin = (1,8);
target = (0,2);
type = Stem;
}
);
layerId = "D56600E4-3CB1-46B6-994E-4E22114E2E10";
shapes = (
{
closed = 1;
nodes = (
(304,-186,o),
(369,-138,o),
(369,-58,cs),
(369,8,o),
(323,55,o),
(243,55,c),
(243,22,l),
(313,22,o),
(358,73,o),
(358,134,cs),
(358,206,o),
(296,253,o),
(200,253,cs),
(103,253,o),
(42,205,o),
(42,133,cs),
(42,71,o),
(88,22,o),
(157,22,c),
(157,55,l),
(77,55,o),
(31,8,o),
(31,-59,cs),
(31,-138,o),
(96,-186,o),
(200,-186,cs)
);
},
{
closed = 1;
nodes = (
(168,-90,o),
(149,-74,o),
(149,-48,cs),
(149,-22,o),
(169,-6,o),
(201,-6,cs),
(233,-6,o),
(252,-22,o),
(252,-48,cs),
(252,-74,o),
(233,-90,o),
(200,-90,cs)
);
},
{
closed = 1;
nodes = (
(172,80,o),
(154,94,o),
(154,117,cs),
(154,141,o),
(172,155,o),
(200,155,cs),
(228,155,o),
(247,141,o),
(247,117,cs),
(247,94,o),
(229,80,o),
(201,80,cs)
);
}
);
userData = {
RMXScaler = {
height = 61;
verticalShift = -180;
weight = -220;
width = 61;
};
};
width = 400;
},
{
layerId = "FF94DDBB-E62A-4F15-93F9-F4255DC66883";
shapes = (
{
closed = 1;
nodes = (
(271,-186,o),
(332,-137,o),
(332,-67,cs),
(332,1,o),
(274,47,o),
(193,47,c),
(193,35,l),
(266,35,o),
(315,78,o),
(315,140,cs),
(315,203,o),
(263,246,o),
(185,246,cs),
(108,246,o),
(56,203,o),
(56,140,cs),
(56,78,o),
(105,35,o),
(178,35,c),
(178,47,l),
(96,47,o),
(38,1,o),
(38,-67,cs),
(38,-137,o),
(99,-186,o),
(185,-186,cs)
);
},
{
closed = 1;
nodes = (
(115,-162,o),
(65,-122,o),
(65,-65,cs),
(65,-7,o),
(116,29,o),
(185,29,cs),
(255,29,o),
(305,-8,o),
(305,-65,cs),
(305,-122,o),
(255,-162,o),
(185,-162,cs)
);
},
{
closed = 1;
nodes = (
(123,52,o),
(82,87,o),
(82,138,cs),
(82,188,o),
(123,222,o),
(185,222,cs),
(248,222,o),
(289,188,o),
(289,138,cs),
(289,87,o),
(248,52,o),
(185,52,cs)
);
}
);
userData = {
RMXScaler = {
height = 60;
verticalShift = -180;
weight = 23;
width = 60;
};
};
width = 370;
}
);
unicode = 8328;
userData = {
RMXScaler = {
source = eight;
};
};
},
{
glyphname = nineinferior;
kernLeft = zeroinferior;
kernRight = zeroinferior;
lastChange = "2024-06-28 09:22:26 +0000";
layers = (
{
hints = (
{
horizontal = 1;
origin = (1,5);
target = (0,7);
type = Stem;
},
{
horizontal = 1;
origin = (0,13);
target = (1,11);
type = Stem;
},
{
origin = (0,10);
target = (1,2);
type = Stem;
},
{
origin = (1,8);
target = (0,4);
type = Stem;
}
);
layerId = "D56600E4-3CB1-46B6-994E-4E22114E2E10";
shapes = (
{
closed = 1;
nodes = (
(207,-180,l),
(297,-46,ls),
(334,9,o),
(356,57,o),
(356,99,cs),
(356,194,o),
(291,253,o),
(187,253,cs),
(88,253,o),
(20,198,o),
(20,106,cs),
(20,23,o),
(79,-38,o),
(163,-38,cs),
(199,-38,o),
(229,-22,o),
(255,5,c),
(206,-1,l),
(72,-180,l)
);
},
{
closed = 1;
nodes = (
(158,56,o),
(136,77,o),
(136,107,cs),
(136,135,o),
(158,156,o),
(189,156,cs),
(218,156,o),
(240,135,o),
(240,107,cs),
(240,77,o),
(219,56,o),
(189,56,cs)
);
}
);
userData = {
RMXScaler = {
height = 61;
verticalShift = -180;
weight = -220;
width = 61;
};
};
width = 383;
},
{
layerId = "FF94DDBB-E62A-4F15-93F9-F4255DC66883";
shapes = (
{
closed = 1;
nodes = (
(139,-180,l),
(276,13,ls),
(294,39,o),
(307,70,o),
(307,108,cs),
(307,192,o),
(252,246,o),
(166,246,cs),
(85,246,o),
(27,191,o),
(27,109,cs),
(27,29,o),
(83,-29,o),
(162,-29,cs),
(192,-29,o),
(223,-20,o),
(248,3,c),
(241,5,l),
(107,-180,l)
);
},
{
closed = 1;
nodes = (
(100,-6,o),
(54,42,o),
(54,109,cs),
(54,176,o),
(101,222,o),
(168,222,cs),
(236,222,o),
(281,178,o),
(281,109,cs),
(281,42,o),
(235,-6,o),
(166,-6,cs)
);
}
);
userData = {
RMXScaler = {
height = 60;
verticalShift = -180;
weight = 23;
width = 60;
};
};
width = 342;
}
);
unicode = 8329;
userData = {
RMXScaler = {
source = nine;
};
};
},
{
glyphname = zerosuperior;
kernLeft = zerosuperior;
kernRight = zerosuperior;
lastChange = "2024-06-28 09:22:26 +0000";
layers = (
{
hints = (
{
horizontal = 1;
origin = (0,11);
target = (1,11);
type = Stem;
},
{
horizontal = 1;
origin = (0,5);
target = (1,5);
type = Stem;
},
{
origin = (0,8);
target = (1,2);
type = Stem;
},
{
origin = (1,8);
target = (0,2);
type = Stem;
}
);
layerId = "D56600E4-3CB1-46B6-994E-4E22114E2E10";
shapes = (
{
closed = 1;
nodes = (
(306,267,o),
(368,344,o),
(368,485,cs),
(368,628,o),
(306,706,o),
(199,706,cs),
(91,706,o),
(28,628,o),
(28,485,cs),
(28,344,o),
(91,267,o),
(199,267,cs)
);
},
{
closed = 1;
nodes = (
(160,369,o),
(143,404,o),
(143,485,cs),
(143,568,o),
(160,604,o),
(199,604,cs),
(236,604,o),
(253,570,o),
(253,485,cs),
(253,402,o),
(236,369,o),
(199,369,cs)
);
}
);
userData = {
RMXScaler = {
height = 61;
verticalShift = 273;
weight = -220;
width = 61;
};
};
width = 396;
},
{
layerId = "FF94DDBB-E62A-4F15-93F9-F4255DC66883";
shapes = (
{
closed = 1;
nodes = (
(280,274,o),
(336,357,o),
(336,490,cs),
(336,622,o),
(280,706,o),
(188,706,cs),
(98,706,o),
(41,623,o),
(41,490,cs),
(41,356,o),
(98,274,o),
(188,274,cs)
);
},
{
closed = 1;
nodes = (
(113,298,o),
(67,370,o),
(67,490,cs),
(67,609,o),
(113,681,o),
(188,681,cs),
(264,681,o),
(310,608,o),
(310,490,cs),
(310,371,o),
(264,298,o),
(188,298,cs)
);
}
);
userData = {
RMXScaler = {
height = 60;
verticalShift = 280;
weight = 23;
width = 60;
};
};
width = 377;
}
);
unicode = 8304;
userData = {
RMXScaler = {
source = zero;
};
};
},
{
glyphname = onesuperior;
kernLeft = zerosuperior;
kernRight = zerosuperior;
lastChange = "2024-06-28 09:22:26 +0000";
layers = (
{
hints = (
{
horizontal = 1;
origin = (1,3);
target = (1,2);
type = Stem;
},
{
horizontal = 1;
origin = (0,5);
target = (0,7);
type = Stem;
},
{
origin = (0,11);
target = (0,1);
type = Stem;
}
);
layerId = "D56600E4-3CB1-46B6-994E-4E22114E2E10";
shapes = (
{
closed = 1;
nodes = (
(233,313,l),
(233,624,ls),
(233,668,o),
(200,700,o),
(156,700,cs),
(29,700,l),
(29,596,l),
(117,596,ls),
(120,596,o),
(122,594,o),
(122,591,cs),
(122,313,l)
);
},
{
closed = 1;
nodes = (
(316,273,l),
(316,377,l),
(35,377,l),
(35,273,l)
);
}
);
userData = {
RMXScaler = {
height = 61;
verticalShift = 273;
weight = -220;
width = 61;
};
};
width = 330;
},
{
layerId = "FF94DDBB-E62A-4F15-93F9-F4255DC66883";
shapes = (
{
closed = 1;
nodes = (
(175,291,l),
(175,637,ls),
(175,674,o),
(149,700,o),
(111,700,cs),
(32,700,l),
(32,675,l),
(106,675,ls),
(131,675,o),
(148,657,o),
(148,632,cs),
(148,291,l)
);
},
{
closed = 1;
nodes = (
(295,280,l),
(295,304,l),
(28,304,l),
(28,280,l)
);
}
);
userData = {
RMXScaler = {
height = 60;
verticalShift = 280;
weight = 23;
width = 60;
};
};
width = 304;
}
);
unicode = 185;
userData = {
RMXScaler = {
source = one;
};
};
},
{
glyphname = twosuperior;
kernLeft = zerosuperior;
kernRight = zerosuperior;
lastChange = "2024-06-28 09:22:26 +0000";
layers = (
{
hints = (
{
horizontal = 1;
origin = (0,25);
target = (0,2);
type = Stem;
},
{
horizontal = 1;
origin = (0,10);
target = (0,17);
type = Stem;
},
{
origin = (0,20);
target = (0,7);
type = Stem;
}
);
layerId = "D56600E4-3CB1-46B6-994E-4E22114E2E10";
shapes = (
{
closed = 1;
nodes = (
(337,273,l),
(337,375,l),
(154,375,l),
(159,343,l),
(245,430,ls),
(294,480,o),
(318,528,o),
(318,577,cs),
(318,652,o),
(253,706,o),
(167,706,cs),
(104,706,o),
(54,676,o),
(17,623,c),
(89,551,l),
(115,584,o),
(134,599,o),
(163,599,cs),
(187,599,o),
(202,583,o),
(202,564,cs),
(202,539,o),
(190,517,o),
(167,494,cs),
(29,357,l),
(29,273,l)
);
}
);
userData = {
RMXScaler = {
height = 61;
verticalShift = 273;
weight = -220;
width = 61;
};
};
width = 364;
},
{
layerId = "FF94DDBB-E62A-4F15-93F9-F4255DC66883";
shapes = (
{
closed = 1;
nodes = (
(299,280,l),
(299,304,l),
(61,304,l),
(63,298,l),
(211,449,ls),
(271,509,o),
(283,548,o),
(283,584,cs),
(283,658,o),
(236,706,o),
(159,706,cs),
(108,706,o),
(60,678,o),
(31,631,c),
(49,614,l),
(75,657,o),
(115,681,o),
(158,681,cs),
(218,681,o),
(256,645,o),
(256,583,cs),
(256,551,o),
(245,518,o),
(192,464,cs),
(30,299,l),
(30,280,l)
);
}
);
userData = {
RMXScaler = {
height = 60;
verticalShift = 280;
weight = 23;
width = 60;
};
};
width = 329;
}
);
unicode = 178;
userData = {
RMXScaler = {
source = two;
};
};
},
{
glyphname = threesuperior;
kernLeft = zerosuperior;
kernRight = zerosuperior;
lastChange = "2024-06-28 09:22:26 +0000";
layers = (
{
hints = (
{
horizontal = 1;
origin = (0,41);
target = (0,34);
type = Stem;
},
{
horizontal = 1;
origin = (0,12);
target = (0,19);
type = Stem;
},
{
horizontal = 1;
origin = (0,28);
target = (0,26);
type = Stem;
},
{
origin = (0,31);
target = (0,2);
type = Stem;
}
);
layerId = "D56600E4-3CB1-46B6-994E-4E22114E2E10";
shapes = (
{
closed = 1;
nodes = (
(259,267,o),
(332,319,o),
(332,398,cs),
(332,463,o),
(289,518,o),
(184,518,c),
(184,462,l),
(272,462,o),
(323,515,o),
(323,583,cs),
(323,656,o),
(262,706,o),
(170,706,cs),
(114,706,o),
(59,684,o),
(18,642,c),
(81,566,l),
(108,597,o),
(135,610,o),
(165,610,cs),
(196,610,o),
(212,594,o),
(212,569,cs),
(212,546,o),
(194,533,o),
(172,533,cs),
(113,533,l),
(113,437,l),
(181,437,ls),
(202,437,o),
(220,425,o),
(220,403,cs),
(220,377,o),
(199,361,o),
(164,361,cs),
(131,361,o),
(105,374,o),
(77,402,c),
(15,327,l),
(58,285,o),
(107,267,o),
(163,267,cs)
);
}
);
userData = {
RMXScaler = {
height = 61;
verticalShift = 273;
weight = -220;
width = 61;
};
};
width = 360;
},
{
layerId = "FF94DDBB-E62A-4F15-93F9-F4255DC66883";
shapes = (
{
closed = 1;
nodes = (
(239,274,o),
(298,321,o),
(298,389,cs),
(298,452,o),
(248,499,o),
(152,499,c),
(152,486,l),
(237,486,o),
(287,536,o),
(287,599,cs),
(287,665,o),
(232,706,o),
(156,706,cs),
(99,706,o),
(59,683,o),
(39,663,c),
(53,644,l),
(73,664,o),
(109,682,o),
(155,682,cs),
(217,682,o),
(261,649,o),
(261,596,cs),
(261,546,o),
(220,504,o),
(151,504,cs),
(94,504,l),
(94,480,l),
(152,480,ls),
(226,480,o),
(272,444,o),
(272,390,cs),
(272,335,o),
(224,297,o),
(157,297,cs),
(98,297,o),
(63,319,o),
(41,340,c),
(24,322,l),
(51,296,o),
(92,274,o),
(156,274,cs)
);
}
);
userData = {
RMXScaler = {
height = 60;
verticalShift = 280;
weight = 23;
width = 60;
};
};
width = 339;
}
);
unicode = 179;
userData = {
RMXScaler = {
source = three;
};
};
},
{
glyphname = foursuperior;
kernLeft = zerosuperior;
kernRight = zerosuperior;
lastChange = "2024-06-28 09:22:26 +0000";
layers = (
{
hints = (
{
horizontal = 1;
origin = (0,7);
target = (0,2);
type = Stem;
},
{
horizontal = 1;
origin = (0,5);
target = down;
type = TopGhost;
},
{
origin = (1,3);
target = (1,1);
type = Stem;
}
);
layerId = "D56600E4-3CB1-46B6-994E-4E22114E2E10";
shapes = (
{
closed = 1;
nodes = (
(359,356,l),
(359,455,l),
(97,455,l),
(123,421,l),
(243,700,l),
(132,700,l),
(19,449,l),
(19,356,l)
);
},
{
closed = 1;
nodes = (
(311,273,l),
(311,551,l),
(202,551,l),
(202,273,l)
);
}
);
userData = {
RMXScaler = {
height = 61;
verticalShift = 273;
weight = -220;
width = 61;
};
};
width = 377;
},
{
layerId = "FF94DDBB-E62A-4F15-93F9-F4255DC66883";
shapes = (
{
closed = 1;
nodes = (
(329,391,l),
(329,414,l),
(50,414,l),
(56,408,l),
(209,700,l),
(181,700,l),
(29,413,l),
(29,391,l)
);
},
{
closed = 1;
nodes = (
(255,280,l),
(255,535,l),
(228,535,l),
(228,280,l)
);
}
);
userData = {
RMXScaler = {
height = 60;
verticalShift = 280;
weight = 23;
width = 60;
};
};
width = 348;
}
);
unicode = 8308;
userData = {
RMXScaler = {
source = four;
};
};
},
{
glyphname = fivesuperior;
kernLeft = zerosuperior;
kernRight = zerosuperior;
lastChange = "2024-06-28 09:22:26 +0000";
layers = (
{
hints = (
{
horizontal = 1;
origin = (0,37);
target = (0,30);
type = Stem;
},
{
horizontal = 1;
origin = (0,16);
target = (0,14);
type = Stem;
},
{
horizontal = 1;
origin = (0,24);
target = (0,5);
type = Stem;
},
{
origin = (0,19);
target = (0,10);
type = Stem;
},
{
origin = (0,27);
target = (0,2);
type = Stem;
}
);
layerId = "D56600E4-3CB1-46B6-994E-4E22114E2E10";
shapes = (
{
closed = 1;
nodes = (
(262,267,o),
(335,320,o),
(335,414,cs),
(335,493,o),
(279,544,o),
(202,544,cs),
(146,544,o),
(120,518,o),
(107,479,c),
(151,479,l),
(153,596,ls),
(153,599,o),
(155,601,o),
(158,601,cs),
(321,601,l),
(321,700,l),
(126,700,ls),
(85,700,o),
(50,671,o),
(50,626,cs),
(49,431,l),
(138,431,l),
(149,444,o),
(162,449,o),
(178,449,cs),
(206,449,o),
(223,434,o),
(223,409,cs),
(223,380,o),
(204,361,o),
(167,361,cs),
(135,361,o),
(109,373,o),
(80,402,c),
(18,327,l),
(62,284,o),
(111,267,o),
(166,267,cs)
);
}
);
userData = {
RMXScaler = {
height = 61;
verticalShift = 273;
weight = -220;
width = 61;
};
};
width = 362;
},
{
layerId = "FF94DDBB-E62A-4F15-93F9-F4255DC66883";
shapes = (
{
closed = 1;
nodes = (
(246,274,o),
(306,327,o),
(306,413,cs),
(306,488,o),
(260,541,o),
(183,541,cs),
(125,541,o),
(86,511,o),
(71,473,c),
(78,472,l),
(87,641,ls),
(88,659,o),
(103,676,o),
(126,676,cs),
(285,676,l),
(285,700,l),
(122,700,ls),
(98,700,o),
(64,684,o),
(62,645,cs),
(53,449,l),
(76,449,l),
(90,492,o),
(128,518,o),
(178,518,cs),
(244,518,o),
(281,473,o),
(281,412,cs),
(281,341,o),
(233,297,o),
(160,297,cs),
(110,297,o),
(70,317,o),
(46,340,c),
(30,322,l),
(58,294,o),
(104,274,o),
(158,274,cs)
);
}
);
userData = {
RMXScaler = {
height = 60;
verticalShift = 280;
weight = 23;
width = 60;
};
};
width = 340;
}
);
unicode = 8309;
userData = {
RMXScaler = {
source = five;
};
};
},
{
glyphname = sixsuperior;
kernLeft = zerosuperior;
kernRight = zerosuperior;
lastChange = "2024-06-28 09:22:26 +0000";
layers = (
{
hints = (
{
horizontal = 1;
origin = (0,18);
target = (1,11);
type = Stem;
},
{
horizontal = 1;
origin = (1,5);
target = (0,5);
type = Stem;
},
{
horizontal = 1;
origin = (0,11);
target = down;
type = TopGhost;
},
{
origin = (0,15);
target = (1,2);
type = Stem;
},
{
origin = (1,8);
target = (0,2);
type = Stem;
}
);
layerId = "D56600E4-3CB1-46B6-994E-4E22114E2E10";
shapes = (
{
closed = 1;
nodes = (
(292,267,o),
(360,322,o),
(360,414,cs),
(360,497,o),
(301,558,o),
(216,558,cs),
(181,558,o),
(151,542,o),
(125,515,c),
(174,521,l),
(308,700,l),
(173,700,l),
(83,566,ls),
(46,511,o),
(24,463,o),
(24,421,cs),
(24,326,o),
(89,267,o),
(193,267,cs)
);
},
{
closed = 1;
nodes = (
(162,364,o),
(140,385,o),
(140,413,cs),
(140,443,o),
(161,464,o),
(191,464,cs),
(222,464,o),
(244,443,o),
(244,413,cs),
(244,385,o),
(222,364,o),
(191,364,cs)
);
}
);
userData = {
RMXScaler = {
height = 61;
verticalShift = 273;
weight = -220;
width = 61;
};
};
width = 380;
},
{
layerId = "FF94DDBB-E62A-4F15-93F9-F4255DC66883";
shapes = (
{
closed = 1;
nodes = (
(257,274,o),
(314,329,o),
(314,411,cs),
(314,491,o),
(259,549,o),
(181,549,cs),
(149,549,o),
(118,540,o),
(93,517,c),
(101,515,l),
(236,700,l),
(203,700,l),
(66,507,ls),
(48,481,o),
(35,450,o),
(35,412,cs),
(35,328,o),
(90,274,o),
(175,274,cs)
);
},
{
closed = 1;
nodes = (
(107,298,o),
(62,342,o),
(62,411,cs),
(62,478,o),
(107,526,o),
(177,526,cs),
(243,526,o),
(289,478,o),
(289,411,cs),
(289,344,o),
(242,298,o),
(174,298,cs)
);
}
);
userData = {
RMXScaler = {
height = 60;
verticalShift = 280;
weight = 23;
width = 60;
};
};
width = 342;
}
);
unicode = 8310;
userData = {
RMXScaler = {
source = six;
};
};
},
{
glyphname = sevensuperior;
kernLeft = zerosuperior;
kernRight = zerosuperior;
lastChange = "2024-06-28 09:22:26 +0000";
layers = (
{
hints = (
{
horizontal = 1;
origin = (0,3);
target = (0,5);
type = Stem;
}
);
layerId = "D56600E4-3CB1-46B6-994E-4E22114E2E10";
shapes = (
{
closed = 1;
nodes = (
(165,273,l),
(328,621,l),
(328,700,l),
(19,700,l),
(19,599,l),
(242,599,l),
(217,626,l),
(39,273,l)
);
}
);
userData = {
RMXScaler = {
height = 61;
verticalShift = 273;
weight = -220;
width = 61;
};
};
width = 343;
},
{
layerId = "FF94DDBB-E62A-4F15-93F9-F4255DC66883";
shapes = (
{
closed = 1;
nodes = (
(93,280,l),
(298,682,l),
(298,700,l),
(15,700,l),
(15,676,l),
(277,676,l),
(272,684,l),
(63,280,l)
);
}
);
userData = {
RMXScaler = {
height = 60;
verticalShift = 280;
weight = 23;
width = 60;
};
};
width = 316;
}
);
unicode = 8311;
userData = {
RMXScaler = {
source = seven;
};
};
},
{
glyphname = eightsuperior;
kernLeft = zerosuperior;
kernRight = zerosuperior;
lastChange = "2024-06-28 09:22:26 +0000";
layers = (
{
hints = (
{
horizontal = 1;
origin = (0,25);
target = (1,11);
type = Stem;
},
{
horizontal = 1;
origin = (0,12);
target = (2,5);
type = Stem;
},
{
horizontal = 1;
origin = (1,5);
target = (2,11);
type = Stem;
},
{
origin = (0,22);
target = (1,2);
type = Stem;
},
{
origin = (1,8);
target = (0,2);
type = Stem;
}
);
layerId = "D56600E4-3CB1-46B6-994E-4E22114E2E10";
shapes = (
{
closed = 1;
nodes = (
(300,267,o),
(365,315,o),
(365,395,cs),
(365,461,o),
(319,508,o),
(239,508,c),
(239,475,l),
(309,475,o),
(354,526,o),
(354,587,cs),
(354,659,o),
(292,706,o),
(196,706,cs),
(99,706,o),
(38,658,o),
(38,586,cs),
(38,524,o),
(84,475,o),
(153,475,c),
(153,508,l),
(73,508,o),
(27,461,o),
(27,394,cs),
(27,315,o),
(92,267,o),
(196,267,cs)
);
},
{
closed = 1;
nodes = (
(164,363,o),
(145,379,o),
(145,405,cs),
(145,431,o),
(165,447,o),
(197,447,cs),
(229,447,o),
(248,431,o),
(248,405,cs),
(248,379,o),
(229,363,o),
(196,363,cs)
);
},
{
closed = 1;
nodes = (
(168,533,o),
(150,547,o),
(150,570,cs),
(150,594,o),
(168,608,o),
(196,608,cs),
(224,608,o),
(243,594,o),
(243,570,cs),
(243,547,o),
(225,533,o),
(197,533,cs)
);
}
);
userData = {
RMXScaler = {
height = 61;
verticalShift = 273;
weight = -220;
width = 61;
};
};
width = 392;
},
{
layerId = "FF94DDBB-E62A-4F15-93F9-F4255DC66883";
shapes = (
{
closed = 1;
nodes = (
(271,274,o),
(331,322,o),
(331,392,cs),
(331,461,o),
(274,506,o),
(192,506,c),
(192,495,l),
(266,495,o),
(315,537,o),
(315,599,cs),
(315,663,o),
(263,706,o),
(185,706,cs),
(107,706,o),
(56,663,o),
(56,599,cs),
(56,537,o),
(105,495,o),
(178,495,c),
(178,506,l),
(95,506,o),
(38,461,o),
(38,392,cs),
(38,322,o),
(99,274,o),
(185,274,cs)
);
},
{
closed = 1;
nodes = (
(115,298,o),
(65,338,o),
(65,395,cs),
(65,452,o),
(116,489,o),
(185,489,cs),
(255,489,o),
(305,452,o),
(305,395,cs),
(305,338,o),
(255,298,o),
(185,298,cs)
);
},
{
closed = 1;
nodes = (
(122,512,o),
(82,546,o),
(82,597,cs),
(82,647,o),
(122,682,o),
(185,682,cs),
(247,682,o),
(289,647,o),
(289,597,cs),
(289,546,o),
(247,512,o),
(185,512,cs)
);
}
);
userData = {
RMXScaler = {
height = 60;
verticalShift = 280;
weight = 23;
width = 60;
};
};
width = 370;
}
);
unicode = 8312;
userData = {
RMXScaler = {
source = eight;
};
};
},
{
glyphname = ninesuperior;
kernLeft = zerosuperior;
kernRight = zerosuperior;
lastChange = "2024-06-28 09:22:26 +0000";
layers = (
{
hints = (
{
horizontal = 1;
origin = (0,7);
target = (1,5);
type = Stem;
},
{
horizontal = 1;
origin = (0,13);
target = (1,11);
type = Stem;
},
{
origin = (0,10);
target = (1,2);
type = Stem;
},
{
origin = (1,8);
target = (0,4);
type = Stem;
}
);
layerId = "D56600E4-3CB1-46B6-994E-4E22114E2E10";
shapes = (
{
closed = 1;
nodes = (
(207,273,l),
(297,407,ls),
(334,462,o),
(356,510,o),
(356,552,cs),
(356,647,o),
(291,706,o),
(187,706,cs),
(88,706,o),
(20,651,o),
(20,559,cs),
(20,476,o),
(79,415,o),
(163,415,cs),
(199,415,o),
(229,431,o),
(255,458,c),
(206,452,l),
(72,273,l)
);
},
{
closed = 1;
nodes = (
(158,509,o),
(136,530,o),
(136,560,cs),
(136,588,o),
(158,609,o),
(189,609,cs),
(218,609,o),
(240,588,o),
(240,560,cs),
(240,530,o),
(219,509,o),
(189,509,cs)
);
}
);
userData = {
RMXScaler = {
height = 61;
verticalShift = 273;
weight = -220;
width = 61;
};
};
width = 380;
},
{
layerId = "FF94DDBB-E62A-4F15-93F9-F4255DC66883";
shapes = (
{
closed = 1;
nodes = (
(139,280,l),
(276,472,ls),
(294,498,o),
(307,530,o),
(307,568,cs),
(307,652,o),
(252,706,o),
(166,706,cs),
(85,706,o),
(27,650,o),
(27,568,cs),
(27,488,o),
(83,431,o),
(162,431,cs),
(192,431,o),
(223,439,o),
(248,463,c),
(241,464,l),
(107,280,l)
);
},
{
closed = 1;
nodes = (
(100,454,o),
(54,501,o),
(54,568,cs),
(54,636,o),
(101,682,o),
(168,682,cs),
(236,682,o),
(281,637,o),
(281,568,cs),
(281,501,o),
(235,454,o),
(166,454,cs)
);
}
);
userData = {
RMXScaler = {
height = 60;
verticalShift = 280;
weight = 23;
width = 60;
};
};
width = 342;
}
);
unicode = 8313;
userData = {
RMXScaler = {
source = nine;
};
};
},
{
glyphname = .notdef;
lastChange = "2024-06-28 09:22:26 +0000";
layers = (
{
layerId = "D56600E4-3CB1-46B6-994E-4E22114E2E10";
shapes = (
{
closed = 1;
nodes = (
(193,731,o),
(41,578,o),
(41,348,cs),
(41,120,o),
(193,-32,o),
(420,-32,cs),
(648,-32,o),
(800,120,o),
(800,348,cs),
(800,578,o),
(648,731,o),
(420,731,cs)
);
},
{
closed = 1;
nodes = (
(478,121,o),
(445,155,o),
(445,207,cs),
(445,216,ls),
(445,222,o),
(440,227,o),
(434,227,cs),
(244,227,ls),
(238,227,o),
(233,232,o),
(233,238,cs),
(233,258,ls),
(233,264,o),
(238,269,o),
(244,269,cs),
(598,269,ls),
(604,269,o),
(609,264,o),
(609,258,cs),
(609,207,ls),
(609,155,o),
(576,121,o),
(527,121,cs)
);
},
{
closed = 1;
nodes = (
(553,168,o),
(561,182,o),
(561,208,cs),
(561,227,l),
(493,227,l),
(493,208,ls),
(493,182,o),
(501,168,o),
(527,168,cs)
);
},
{
closed = 1;
nodes = (
(214,371,ls),
(209,375,o),
(209,381,o),
(214,386,cs),
(263,436,ls),
(267,442,o),
(268,445,o),
(263,451,cs),
(214,500,ls),
(208,506,o),
(209,511,o),
(214,516,cs),
(227,529,ls),
(232,534,o),
(237,534,o),
(242,529,cs),
(291,480,ls),
(297,474,o),
(303,475,o),
(307,480,cs),
(356,529,ls),
(362,534,o),
(367,533,o),
(372,529,cs),
(385,516,ls),
(390,511,o),
(390,506,o),
(385,500,cs),
(336,451,ls),
(331,446,o),
(330,441,o),
(336,435,cs),
(385,386,ls),
(390,381,o),
(390,375,o),
(385,371,cs),
(372,358,ls),
(367,353,o),
(362,352,o),
(356,358,cs),
(307,407,ls),
(303,411,o),
(297,412,o),
(291,407,cs),
(242,358,ls),
(237,352,o),
(232,352,o),
(227,358,cs)
);
},
{
closed = 1;
nodes = (
(456,371,ls),
(451,375,o),
(451,381,o),
(456,386,cs),
(505,436,ls),
(510,442,o),
(511,445,o),
(505,451,cs),
(456,500,ls),
(451,506,o),
(451,511,o),
(456,516,cs),
(469,529,ls),
(475,534,o),
(479,534,o),
(485,529,cs),
(534,480,ls),
(539,474,o),
(545,475,o),
(550,480,cs),
(599,529,ls),
(604,534,o),
(610,533,o),
(614,529,cs),
(627,516,ls),
(632,511,o),
(633,506,o),
(627,500,cs),
(578,451,ls),
(574,446,o),
(573,441,o),
(578,435,cs),
(627,386,ls),
(633,381,o),
(633,376,o),
(627,371,cs),
(614,358,ls),
(610,353,o),
(604,352,o),
(599,358,cs),
(550,407,ls),
(545,411,o),
(539,412,o),
(534,407,cs),
(485,358,ls),
(479,352,o),
(474,353,o),
(469,358,cs)
);
}
);
width = 841;
},
{
layerId = "FF94DDBB-E62A-4F15-93F9-F4255DC66883";
shapes = (
{
closed = 1;
nodes = (
(205,731,o),
(53,578,o),
(53,348,cs),
(53,120,o),
(205,-32,o),
(432,-32,cs),
(660,-32,o),
(812,120,o),
(812,348,cs),
(812,578,o),
(660,731,o),
(432,731,cs)
);
},
{
closed = 1;
nodes = (
(490,121,o),
(457,155,o),
(457,207,cs),
(457,216,ls),
(457,222,o),
(452,227,o),
(446,227,cs),
(256,227,ls),
(250,227,o),
(245,232,o),
(245,238,cs),
(245,258,ls),
(245,264,o),
(250,269,o),
(256,269,cs),
(610,269,ls),
(616,269,o),
(621,264,o),
(621,258,cs),
(621,207,ls),
(621,155,o),
(588,121,o),
(539,121,cs)
);
},
{
closed = 1;
nodes = (
(565,168,o),
(573,182,o),
(573,208,cs),
(573,227,l),
(505,227,l),
(505,208,ls),
(505,182,o),
(513,168,o),
(539,168,cs)
);
},
{
closed = 1;
nodes = (
(226,371,ls),
(221,375,o),
(221,381,o),
(226,386,cs),
(275,436,ls),
(279,442,o),
(280,445,o),
(275,451,cs),
(226,500,ls),
(220,506,o),
(221,511,o),
(226,516,cs),
(239,529,ls),
(244,534,o),
(249,534,o),
(254,529,cs),
(303,480,ls),
(309,474,o),
(315,475,o),
(319,480,cs),
(368,529,ls),
(374,534,o),
(379,533,o),
(384,529,cs),
(397,516,ls),
(402,511,o),
(402,506,o),
(397,500,cs),
(348,451,ls),
(343,446,o),
(342,441,o),
(348,435,cs),
(397,386,ls),
(402,381,o),
(402,375,o),
(397,371,cs),
(384,358,ls),
(379,353,o),
(374,352,o),
(368,358,cs),
(319,407,ls),
(315,411,o),
(309,412,o),
(303,407,cs),
(254,358,ls),
(249,352,o),
(244,352,o),
(239,358,cs)
);
},
{
closed = 1;
nodes = (
(468,371,ls),
(463,375,o),
(463,381,o),
(468,386,cs),
(517,436,ls),
(522,442,o),
(523,445,o),
(517,451,cs),
(468,500,ls),
(463,506,o),
(463,511,o),
(468,516,cs),
(481,529,ls),
(487,534,o),
(491,534,o),
(497,529,cs),
(546,480,ls),
(551,474,o),
(557,475,o),
(562,480,cs),
(611,529,ls),
(616,534,o),
(622,533,o),
(626,529,cs),
(639,516,ls),
(644,511,o),
(645,506,o),
(639,500,cs),
(590,451,ls),
(586,446,o),
(585,441,o),
(590,435,cs),
(639,386,ls),
(645,381,o),
(645,376,o),
(639,371,cs),
(626,358,ls),
(622,353,o),
(616,352,o),
(611,358,cs),
(562,407,ls),
(557,411,o),
(551,412,o),
(546,407,cs),
(497,358,ls),
(491,352,o),
(486,353,o),
(481,358,cs)
);
}
);
width = 865;
}
);
},
{
glyphname = period;
kernLeft = period;
kernRight = period;
lastChange = "2024-06-28 09:22:26 +0000";
layers = (
{
hints = (
{
horizontal = 1;
origin = (0,3);
target = (0,2);
type = Stem;
},
{
origin = (0,3);
target = (0,1);
type = Stem;
}
);
layerId = "D56600E4-3CB1-46B6-994E-4E22114E2E10";
shapes = (
{
closed = 1;
nodes = (
(218,0,l),
(218,160,l),
(52,160,l),
(52,0,l)
);
}
);
width = 270;
},
{
layerId = "FF94DDBB-E62A-4F15-93F9-F4255DC66883";
shapes = (
{
closed = 1;
nodes = (
(104,0,l),
(104,56,l),
(71,56,l),
(71,0,l)
);
}
);
width = 175;
},
{
associatedMasterId = "FF94DDBB-E62A-4F15-93F9-F4255DC66883";
attr = {
coordinates = (
400
);
};
layerId = "0C4F39A9-F085-47A2-AFA5-666BF1DCEA50";
name = "19 Jun 24 at 17:35";
shapes = (
{
closed = 1;
nodes = (
(162,0,l),
(162,110,l),
(54,110,l),
(54,0,l)
);
}
);
width = 216;
}
);
unicode = 46;
},
{
glyphname = comma;
kernLeft = period;
kernRight = period;
lastChange = "2024-06-28 09:22:26 +0000";
layers = (
{
hints = (
{
horizontal = 1;
origin = (0,7);
target = (0,5);
type = Stem;
},
{
horizontal = 1;
origin = (0,13);
target = (0,12);
type = Stem;
},
{
origin = (0,13);
target = (0,11);
type = Stem;
}
);
layerId = "D56600E4-3CB1-46B6-994E-4E22114E2E10";
shapes = (
{
closed = 1;
nodes = (
(131,0,l),
(131,-44,ls),
(131,-57,o),
(122,-68,o),
(107,-68,cs),
(52,-68,l),
(52,-152,l),
(107,-152,ls),
(156,-152,o),
(218,-135,o),
(218,-47,cs),
(218,160,l),
(52,160,l),
(52,0,l)
);
}
);
width = 270;
},
{
layerId = "FF94DDBB-E62A-4F15-93F9-F4255DC66883";
shapes = (
{
closed = 1;
nodes = (
(74,0,l),
(74,-87,ls),
(74,-106,o),
(64,-119,o),
(45,-119,cs),
(21,-119,l),
(21,-141,l),
(45,-141,ls),
(76,-141,o),
(99,-121,o),
(99,-88,cs),
(99,56,l),
(66,56,l),
(66,0,l)
);
}
);
width = 162;
},
{
associatedMasterId = "FF94DDBB-E62A-4F15-93F9-F4255DC66883";
attr = {
coordinates = (
400
);
};
layerId = "81246154-9E4B-42DE-A16D-A9924BF4C5A3";
name = "19 Jun 24 at 17:37";
shapes = (
{
closed = 1;
nodes = (
(104,0,l),
(104,-64,ls),
(104,-84,o),
(94,-97,o),
(74,-97,cs),
(40,-97,l),
(40,-146,l),
(78,-146,ls),
(116,-146,o),
(156,-127,o),
(156,-70,cs),
(156,110,l),
(48,110,l),
(48,0,l)
);
}
);
width = 218;
}
);
unicode = 44;
},
{
glyphname = exclam;
lastChange = "2024-06-28 09:22:26 +0000";
layers = (
{
hints = (
{
horizontal = 1;
origin = (1,3);
target = (1,2);
type = Stem;
},
{
horizontal = 1;
origin = (0,2);
target = down;
type = TopGhost;
},
{
origin = (1,3);
target = (1,1);
type = Stem;
}
);
layerId = "D56600E4-3CB1-46B6-994E-4E22114E2E10";
shapes = (
{
closed = 1;
nodes = (
(219,254,l),
(227,700,l),
(58,700,l),
(65,254,l)
);
},
{
closed = 1;
nodes = (
(223,0,l),
(223,155,l),
(62,155,l),
(62,0,l)
);
}
);
width = 285;
},
{
layerId = "FF94DDBB-E62A-4F15-93F9-F4255DC66883";
shapes = (
{
closed = 1;
nodes = (
(116,204,l),
(117,700,l),
(87,700,l),
(87,204,l)
);
},
{
closed = 1;
nodes = (
(117,0,l),
(117,54,l),
(87,54,l),
(87,0,l)
);
}
);
width = 204;
}
);
unicode = 33;
},
{
glyphname = question;
lastChange = "2024-06-28 09:22:26 +0000";
layers = (
{
hints = (
{
horizontal = 1;
origin = (1,3);
target = (1,2);
type = Stem;
},
{
horizontal = 1;
origin = (0,6);
target = (0,13);
type = Stem;
},
{
origin = (0,19);
target = (0,0);
type = Stem;
},
{
origin = (0,16);
target = (0,3);
type = Stem;
}
);
layerId = "D56600E4-3CB1-46B6-994E-4E22114E2E10";
shapes = (
{
closed = 1;
nodes = (
(266,254,l),
(266,377,o),
(426,378,o),
(426,530,cs),
(426,644,o),
(347,715,o),
(222,715,cs),
(134,715,o),
(72,688,o),
(13,638,c),
(99,532,l),
(134,562,o),
(169,578,o),
(203,578,cs),
(241,578,o),
(265,556,o),
(265,520,cs),
(265,434,o),
(120,432,o),
(120,254,c)
);
},
{
closed = 1;
nodes = (
(273,0,l),
(273,155,l),
(112,155,l),
(112,0,l)
);
}
);
width = 459;
},
{
layerId = "FF94DDBB-E62A-4F15-93F9-F4255DC66883";
shapes = (
{
closed = 1;
nodes = (
(192,204,l),
(192,380,o),
(379,365,o),
(379,537,cs),
(379,640,o),
(306,710,o),
(197,710,cs),
(126,710,o),
(65,681,o),
(25,630,c),
(43,609,l),
(78,655,o),
(133,683,o),
(195,683,cs),
(287,683,o),
(350,623,o),
(350,538,cs),
(350,382,o),
(164,391,o),
(164,204,c)
);
},
{
closed = 1;
nodes = (
(192,0,l),
(192,54,l),
(162,54,l),
(162,0,l)
);
}
);
width = 424;
}
);
unicode = 63;
},
{
glyphname = bullet;
lastChange = "2024-06-28 09:22:26 +0000";
layers = (
{
layerId = "D56600E4-3CB1-46B6-994E-4E22114E2E10";
shapes = (
{
closed = 1;
nodes = (
(306,143,o),
(375,211,o),
(375,297,cs),
(375,383,o),
(306,451,o),
(219,451,cs),
(133,451,o),
(66,383,o),
(66,297,cs),
(66,211,o),
(133,143,o),
(219,143,cs)
);
}
);
width = 441;
},
{
layerId = "FF94DDBB-E62A-4F15-93F9-F4255DC66883";
shapes = (
{
closed = 1;
nodes = (
(193,234,o),
(221,261,o),
(221,297,cs),
(221,333,o),
(193,360,o),
(157,360,cs),
(122,360,o),
(95,333,o),
(95,297,cs),
(95,261,o),
(122,234,o),
(157,234,cs)
);
}
);
width = 316;
}
);
unicode = 8226;
},
{
glyphname = asterisk;
lastChange = "2024-06-28 09:22:26 +0000";
layers = (
{
layerId = "D56600E4-3CB1-46B6-994E-4E22114E2E10";
shapes = (
{
closed = 1;
nodes = (
(305,265,l),
(297,394,l),
(416,310,l),
(471,399,l),
(336,473,l),
(471,546,l),
(416,634,l),
(297,550,l),
(306,700,l),
(202,700,l),
(211,550,l),
(91,635,l),
(36,546,l),
(171,472,l),
(36,399,l),
(91,311,l),
(209,394,l),
(201,265,l)
);
}
);
width = 507;
},
{
layerId = "FF94DDBB-E62A-4F15-93F9-F4255DC66883";
shapes = (
{
closed = 1;
nodes = (
(244,318,l),
(244,489,l),
(386,399,l),
(400,420,l),
(254,511,l),
(400,602,l),
(386,623,l),
(244,533,l),
(244,700,l),
(219,700,l),
(219,533,l),
(77,624,l),
(63,602,l),
(209,511,l),
(63,420,l),
(77,400,l),
(219,489,l),
(219,318,l)
);
}
);
width = 464;
}
);
unicode = 42;
},
{
glyphname = numbersign;
lastChange = "2024-06-28 09:22:26 +0000";
layers = (
{
hints = (
{
horizontal = 1;
origin = (2,3);
target = up;
type = BottomGhost;
},
{
horizontal = 1;
origin = (1,3);
target = (1,2);
type = Stem;
},
{
horizontal = 1;
origin = (3,3);
target = (3,2);
type = Stem;
},
{
horizontal = 1;
origin = (2,2);
target = down;
type = TopGhost;
}
);
layerId = "D56600E4-3CB1-46B6-994E-4E22114E2E10";
shapes = (
{
closed = 1;
nodes = (
(237,0,l),
(359,700,l),
(222,700,l),
(99,0,l)
);
},
{
closed = 1;
nodes = (
(644,148,l),
(667,282,l),
(45,282,l),
(22,148,l)
);
},
{
closed = 1;
nodes = (
(522,0,l),
(643,700,l),
(506,700,l),
(383,0,l)
);
},
{
closed = 1;
nodes = (
(695,431,l),
(717,556,l),
(95,556,l),
(73,431,l)
);
}
);
width = 742;
},
{
layerId = "FF94DDBB-E62A-4F15-93F9-F4255DC66883";
shapes = (
{
closed = 1;
nodes = (
(182,0,l),
(306,700,l),
(279,700,l),
(155,0,l)
);
},
{
closed = 1;
nodes = (
(659,191,l),
(663,215,l),
(41,215,l),
(37,191,l)
);
},
{
closed = 1;
nodes = (
(480,0,l),
(603,700,l),
(577,700,l),
(453,0,l)
);
},
{
closed = 1;
nodes = (
(712,490,l),
(716,513,l),
(94,513,l),
(90,490,l)
);
}
);
width = 753;
}
);
unicode = 35;
},
{
glyphname = slash;
lastChange = "2024-06-28 09:22:26 +0000";
layers = (
{
layerId = "D56600E4-3CB1-46B6-994E-4E22114E2E10";
shapes = (
{
closed = 1;
nodes = (
(161,-144,l),
(504,759,l),
(352,759,l),
(10,-144,l)
);
}
);
width = 514;
},
{
layerId = "FF94DDBB-E62A-4F15-93F9-F4255DC66883";
shapes = (
{
closed = 1;
nodes = (
(42,-144,l),
(436,759,l),
(405,759,l),
(13,-144,l)
);
}
);
width = 451;
}
);
unicode = 47;
},
{
glyphname = backslash;
lastChange = "2024-06-28 09:22:26 +0000";
layers = (
{
layerId = "D56600E4-3CB1-46B6-994E-4E22114E2E10";
shapes = (
{
closed = 1;
nodes = (
(504,-144,l),
(162,759,l),
(10,759,l),
(353,-144,l)
);
}
);
width = 514;
},
{
layerId = "FF94DDBB-E62A-4F15-93F9-F4255DC66883";
shapes = (
{
closed = 1;
nodes = (
(437,-144,l),
(44,759,l),
(15,759,l),
(408,-144,l)
);
}
);
width = 450;
}
);
unicode = 92;
},
{
glyphname = hyphen;
kernLeft = hyphen;
kernRight = hyphen;
lastChange = "2024-06-28 09:22:26 +0000";
layers = (
{
hints = (
{
horizontal = 1;
origin = (0,3);
target = (0,2);
type = Stem;
}
);
layerId = "D56600E4-3CB1-46B6-994E-4E22114E2E10";
shapes = (
{
closed = 1;
nodes = (
(346,200,l),
(346,350,l),
(46,350,l),
(46,200,l)
);
}
);
width = 392;
},
{
layerId = "FF94DDBB-E62A-4F15-93F9-F4255DC66883";
shapes = (
{
closed = 1;
nodes = (
(368,266,l),
(368,295,l),
(55,295,l),
(55,266,l)
);
}
);
width = 424;
}
);
unicode = 45;
},
{
glyphname = endash;
kernLeft = hyphen;
kernRight = hyphen;
lastChange = "2024-06-28 09:22:26 +0000";
layers = (
{
hints = (
{
horizontal = 1;
origin = (0,3);
target = (0,2);
type = Stem;
}
);
layerId = "D56600E4-3CB1-46B6-994E-4E22114E2E10";
shapes = (
{
closed = 1;
nodes = (
(447,207,l),
(447,347,l),
(47,347,l),
(47,207,l)
);
}
);
width = 494;
},
{
layerId = "FF94DDBB-E62A-4F15-93F9-F4255DC66883";
shapes = (
{
closed = 1;
nodes = (
(458,266,l),
(458,294,l),
(58,294,l),
(58,266,l)
);
}
);
width = 516;
}
);
unicode = 8211;
},
{
glyphname = emdash;
kernLeft = hyphen;
kernRight = hyphen;
lastChange = "2024-06-28 09:22:26 +0000";
layers = (
{
hints = (
{
horizontal = 1;
origin = (0,3);
target = (0,2);
type = Stem;
}
);
layerId = "D56600E4-3CB1-46B6-994E-4E22114E2E10";
shapes = (
{
closed = 1;
nodes = (
(947,208,l),
(947,348,l),
(47,348,l),
(47,208,l)
);
}
);
width = 994;
},
{
layerId = "FF94DDBB-E62A-4F15-93F9-F4255DC66883";
shapes = (
{
closed = 1;
nodes = (
(958,266,l),
(958,294,l),
(58,294,l),
(58,266,l)
);
}
);
width = 1016;
}
);
unicode = 8212;
},
{
glyphname = underscore;
lastChange = "2024-06-28 09:22:26 +0000";
layers = (
{
hints = (
{
horizontal = 1;
origin = (0,3);
target = (0,2);
type = Stem;
}
);
layerId = "D56600E4-3CB1-46B6-994E-4E22114E2E10";
shapes = (
{
closed = 1;
nodes = (
(439,-200,l),
(439,-76,l),
(39,-76,l),
(39,-200,l)
);
}
);
width = 478;
},
{
layerId = "FF94DDBB-E62A-4F15-93F9-F4255DC66883";
shapes = (
{
closed = 1;
nodes = (
(433,-200,l),
(433,-173,l),
(33,-173,l),
(33,-200,l)
);
}
);
width = 467;
}
);
unicode = 95;
},
{
glyphname = parenleft;
lastChange = "2024-06-28 09:22:26 +0000";
layers = (
{
hints = (
{
origin = (0,9);
target = (0,2);
type = Stem;
}
);
layerId = "D56600E4-3CB1-46B6-994E-4E22114E2E10";
shapes = (
{
closed = 1;
nodes = (
(242,-18,o),
(179,141,o),
(179,306,cs),
(179,472,o),
(241,633,o),
(326,760,c),
(190,760,l),
(88,625,o),
(34,462,o),
(34,306,cs),
(34,153,o),
(87,-9,o),
(189,-144,c),
(325,-144,l)
);
}
);
width = 327;
},
{
layerId = "FF94DDBB-E62A-4F15-93F9-F4255DC66883";
shapes = (
{
closed = 1;
nodes = (
(152,-39,o),
(84,120,o),
(84,308,cs),
(84,496,o),
(152,654,o),
(256,759,c),
(223,759,l),
(119,652,o),
(55,488,o),
(55,308,cs),
(55,129,o),
(119,-37,o),
(223,-144,c),
(256,-144,l)
);
}
);
width = 269;
}
);
unicode = 40;
},
{
glyphname = braceleft;
lastChange = "2024-06-28 09:22:26 +0000";
layers = (
{
hints = (
{
horizontal = 1;
origin = (0,37);
target = (0,2);
type = Stem;
},
{
horizontal = 1;
origin = (0,30);
target = (0,28);
type = Stem;
},
{
horizontal = 1;
origin = (0,18);
target = (0,20);
type = Stem;
},
{
origin = (0,34);
target = (0,14);
type = Stem;
}
);
layerId = "D56600E4-3CB1-46B6-994E-4E22114E2E10";
shapes = (
{
closed = 1;
nodes = (
(372,-144,l),
(372,-30,l),
(299,-30,ls),
(265,-30,o),
(253,-16,o),
(253,24,cs),
(253,184,ls),
(253,282,o),
(218,329,o),
(80,329,c),
(80,289,l),
(218,289,o),
(253,324,o),
(253,430,cs),
(253,591,ls),
(253,631,o),
(265,644,o),
(299,644,cs),
(372,644,l),
(372,759,l),
(255,759,ls),
(143,759,o),
(105,718,o),
(105,595,cs),
(105,413,ls),
(105,384,o),
(91,370,o),
(62,370,cs),
(27,370,l),
(27,244,l),
(60,244,ls),
(91,244,o),
(105,230,o),
(105,199,cs),
(105,21,ls),
(105,-103,o),
(143,-144,o),
(255,-144,cs)
);
}
);
width = 396;
},
{
layerId = "FF94DDBB-E62A-4F15-93F9-F4255DC66883";
shapes = (
{
closed = 1;
nodes = (
(302,-144,l),
(302,-119,l),
(238,-119,ls),
(166,-119,o),
(144,-86,o),
(144,-7,cs),
(144,239,ls),
(144,292,o),
(125,317,o),
(64,317,c),
(64,301,l),
(125,301,o),
(144,325,o),
(144,379,cs),
(144,623,ls),
(144,702,o),
(166,734,o),
(238,734,cs),
(302,734,l),
(302,759,l),
(235,759,ls),
(146,759,o),
(116,716,o),
(116,623,cs),
(116,378,ls),
(116,341,o),
(102,322,o),
(62,322,cs),
(34,322,l),
(34,295,l),
(62,295,ls),
(102,295,o),
(116,277,o),
(116,240,cs),
(116,-7,ls),
(116,-101,o),
(146,-144,o),
(235,-144,cs)
);
}
);
width = 327;
}
);
unicode = 123;
},
{
glyphname = bracketleft;
lastChange = "2024-06-28 09:22:26 +0000";
layers = (
{
hints = (
{
horizontal = 1;
origin = (0,7);
target = (0,2);
type = Stem;
},
{
horizontal = 1;
origin = (0,4);
target = (0,6);
type = Stem;
},
{
origin = (0,7);
target = (0,3);
type = Stem;
}
);
layerId = "D56600E4-3CB1-46B6-994E-4E22114E2E10";
shapes = (
{
closed = 1;
nodes = (
(334,-144,l),
(334,-36,l),
(204,-36,l),
(204,651,l),
(334,651,l),
(334,759,l),
(72,759,l),
(72,-144,l)
);
}
);
width = 356;
},
{
layerId = "FF94DDBB-E62A-4F15-93F9-F4255DC66883";
shapes = (
{
closed = 1;
nodes = (
(288,-144,l),
(288,-121,l),
(120,-121,l),
(120,736,l),
(288,736,l),
(288,759,l),
(94,759,l),
(94,-144,l)
);
}
);
width = 313;
}
);
unicode = 91;
},
{
glyphname = guillemetleft;
kernLeft = guilsinglleft;
kernRight = guilsinglleft;
lastChange = "2024-06-28 09:22:26 +0000";
layers = (
{
layerId = "D56600E4-3CB1-46B6-994E-4E22114E2E10";
shapes = (
{
closed = 1;
nodes = (
(477,87,l),
(352,325,l),
(352,207,l),
(477,445,l),
(341,445,l),
(249,266,l),
(341,87,l)
);
},
{
closed = 1;
nodes = (
(266,87,l),
(141,325,l),
(141,207,l),
(266,445,l),
(130,445,l),
(38,266,l),
(130,87,l)
);
}
);
width = 521;
},
{
layerId = "FF94DDBB-E62A-4F15-93F9-F4255DC66883";
shapes = (
{
closed = 1;
nodes = (
(357,96,l),
(232,282,l),
(232,261,l),
(357,447,l),
(327,447,l),
(207,272,l),
(327,96,l)
);
},
{
closed = 1;
nodes = (
(203,96,l),
(78,282,l),
(78,261,l),
(203,447,l),
(173,447,l),
(53,272,l),
(173,96,l)
);
}
);
width = 419;
}
);
unicode = 171;
},
{
glyphname = guilsinglleft;
kernLeft = guilsinglleft;
kernRight = guilsinglleft;
lastChange = "2024-06-28 09:22:26 +0000";
layers = (
{
layerId = "D56600E4-3CB1-46B6-994E-4E22114E2E10";
shapes = (
{
closed = 1;
nodes = (
(271,87,l),
(146,325,l),
(146,207,l),
(271,445,l),
(130,445,l),
(38,266,l),
(130,87,l)
);
}
);
width = 315;
},
{
layerId = "FF94DDBB-E62A-4F15-93F9-F4255DC66883";
shapes = (
{
closed = 1;
nodes = (
(212,96,l),
(78,282,l),
(78,261,l),
(212,447,l),
(182,447,l),
(53,272,l),
(182,96,l)
);
}
);
width = 276;
}
);
unicode = 8249;
},
{
glyphname = quotesingle;
kernLeft = quotesingle;
kernRight = quotesingle;
lastChange = "2024-06-28 09:22:26 +0000";
layers = (
{
hints = (
{
origin = (0,1);
target = (0,3);
type = Stem;
}
);
layerId = "D56600E4-3CB1-46B6-994E-4E22114E2E10";
shapes = (
{
closed = 1;
nodes = (
(191,404,l),
(191,700,l),
(54,700,l),
(54,404,l)
);
}
);
width = 245;
},
{
layerId = "FF94DDBB-E62A-4F15-93F9-F4255DC66883";
shapes = (
{
closed = 1;
nodes = (
(102,502,l),
(102,700,l),
(74,700,l),
(74,502,l)
);
}
);
width = 176;
}
);
unicode = 39;
},
